<?xml version="1.0" encoding="utf-8"?>
<!-- Generator: Adobe Illustrator 26.0.1, SVG Export Plug-In . SVG Version: 6.00 Build 0)  -->
<svg version="1.1" id="Слой_1" xmlns="http://www.w3.org/2000/svg" xmlns:xlink="http://www.w3.org/1999/xlink" x="0px" y="0px"
	 viewBox="0 0 127.8 139.2" style="enable-background:new 0 0 127.8 139.2;" xml:space="preserve">
<style type="text/css">
	.st0{fill:#004385;}
	.st1{opacity:0.59;}
	.st2{opacity:0.78;}
	.st3{opacity:0.4;}
	.st4{fill:url(#SVGID_1_);}
	.st5{fill:url(#SVGID_00000108997419717283767850000005765323373981029817_);}
	.st6{fill:url(#SVGID_00000181800338046606594730000012293172458025145765_);}
	.st7{fill:url(#SVGID_00000142883945999144720180000007326443205550475701_);}
	.st8{fill:url(#SVGID_00000117675191923245146960000017272477626548551309_);}
	.st9{fill:url(#SVGID_00000090295732730525401170000011465215291358502041_);}
	.st10{opacity:0.37;}
	.st11{opacity:0.44;}
	.st12{fill:url(#SVGID_00000178920823259292277940000016890170770992116134_);}
	.st13{fill:url(#SVGID_00000150102337198615809210000006956353812394501027_);}
	.st14{fill:#040E2E;}
	.st15{fill:url(#SVGID_00000044159123202748073070000008096118835885469056_);}
	.st16{fill:url(#SVGID_00000146488974709619893240000010492412665038271617_);}
	.st17{fill:#ED1B24;}
	.st18{fill:#F19331;}
	.st19{fill:#FDE38E;}
	.st20{fill:url(#SVGID_00000176021534447439414240000014811765916133984183_);}
	.st21{fill:url(#SVGID_00000075841944544159092980000009430922350309074340_);}
	.st22{fill:url(#SVGID_00000041979594907281658670000006653457940631337381_);}
	.st23{fill:url(#SVGID_00000069397218845207409580000014563412464153025464_);}
	.st24{fill:url(#SVGID_00000123427773462423662030000016704735938111257227_);}
	.st25{fill:url(#SVGID_00000161610511239103701780000014613149431226763158_);}
	.st26{fill:url(#SVGID_00000058575979487444121670000010492995108627848582_);}
	.st27{fill:url(#SVGID_00000041292118910514171360000007637317996812312747_);}
	.st28{fill:url(#SVGID_00000017494594633117542370000004309765531421833896_);}
	.st29{fill:url(#SVGID_00000173149648611171416160000005709905947552849852_);}
	.st30{fill:url(#SVGID_00000100381262199535120570000003809291931030193321_);}
	.st31{fill:url(#SVGID_00000113328193048297802630000007360008888093655211_);}
	.st32{fill:url(#SVGID_00000078766942158121753710000002115996321280586671_);}
	.st33{fill:url(#SVGID_00000065062418660063282720000010424744995500023694_);}
	.st34{fill:#690A00;}
	.st35{fill:url(#SVGID_00000088816891706797965700000007858815321422370712_);}
	.st36{opacity:0.33;}
	.st37{fill:#FFFFFF;}
	.st38{fill:url(#SVGID_00000158031077706266821440000015120802858818015383_);}
	.st39{opacity:0.47;fill:url(#SVGID_00000034806945095784140590000017430018587559456952_);enable-background:new    ;}
	.st40{opacity:0.74;fill:url(#SVGID_00000134227002535145965140000014158673230063467704_);enable-background:new    ;}
	.st41{fill:url(#SVGID_00000073000499088713870080000013477514542165706884_);}
	.st42{opacity:0.51;}
	.st43{fill:url(#SVGID_00000034778151454378010210000011139920413957904282_);}
	.st44{fill:url(#SVGID_00000176032291577564980120000017089220107317574323_);}
</style>
<path d="M52.9,83.7c-8.8,0.1-15.6,0.1-20.7,0c-7.1-0.1-11.1-0.2-13.1,0.5c-1.4,0.4-1.8,1.2-1.7,3c0,0.6-0.3,1.1-0.9,1.3L2.1,84.2
	c-0.8,0-1.7-0.8-1.7-1.9L0.3,65c0-1.2,0.8-2.3,1.9-2.7C5.4,61,9,59.8,12.5,58.6c13.7-4.7,29.2-10,31.3-14c0.2-0.4,0.6-0.8,1.1-0.9
	l8.5-0.1l0.1,40.1L52.9,83.7L52.9,83.7z"/>
<path class="st0" d="M2.3,83.6l13.7,4.3c0.4,0.1,0.8-0.2,0.8-0.7c-0.2-6.1,4.8-3.6,36.1-4.1l-0.1-38.9l-7.4,0
	c-0.4,0-0.9,0.3-1.1,0.7c-2.7,5.3-25.3,11.9-42,17.9c-0.9,0.3-1.5,1.2-1.5,2.2L1,82.2C1,83,1.6,83.6,2.3,83.6z"/>
<g class="st1">
	<path class="st0" d="M2.3,83.6l13.7,4.3c0.4,0.1,0.8-0.2,0.8-0.7c-0.2-6.1,4.8-3.6,36.1-4.1l-0.1-38.9l-7.4,0
		c-0.4,0-0.9,0.3-1.1,0.7c-2.7,5.3-25.3,11.9-42,17.9c-0.9,0.3-1.5,1.2-1.5,2.2L1,82.2C1,83,1.6,83.6,2.3,83.6z"/>
</g>
<g class="st2">
	<g>
		<path class="st0" d="M52.9,44l0,1.2l-6.3,0c-0.4,0-0.9,0.3-1.1,0.7c-2.7,5.2-25.3,11.9-42,17.9C2.7,64.1,2.1,65,2.1,66l0.1,14.2
			c-0.1,0.8-1.1,0.6-1.1-0.1L1,64.8c0-1,0.6-1.9,1.5-2.2c16.8-6,39.3-12.6,42-17.9c0.2-0.4,0.6-0.7,1.1-0.7L52.9,44z"/>
	</g>
	<g>
		<path class="st0" d="M52.9,44l0,1.2l-6.3,0c-0.4,0-0.9,0.3-1.1,0.7c-2.7,5.2-25.3,11.9-42,17.9C2.7,64.1,2.1,65,2.1,66l0.1,14.2
			c-0.1,0.8-1.1,0.6-1.1-0.1L1,64.8c0-1,0.6-1.9,1.5-2.2c16.8-6,39.3-12.6,42-17.9c0.2-0.4,0.6-0.7,1.1-0.7L52.9,44z"/>
	</g>
</g>
<g class="st2">
	<g>
		<path class="st0" d="M52.9,44l0,1.2l-6.3,0c-0.4,0-0.9,0.3-1.1,0.7c-2.7,5.2-25.3,11.9-42,17.9C2.7,64.1,2.1,65,2.1,66l0.1,14.2
			c-0.1,0.8-1.1,0.6-1.1-0.1L1,64.8c0-1,0.6-1.9,1.5-2.2c16.8-6,39.3-12.6,42-17.9c0.2-0.4,0.6-0.7,1.1-0.7L52.9,44z"/>
	</g>
	<g>
		<path class="st0" d="M52.9,44l0,1.2l-6.3,0c-0.4,0-0.9,0.3-1.1,0.7c-2.7,5.2-25.3,11.9-42,17.9C2.7,64.1,2.1,65,2.1,66l0.1,14.2
			c-0.1,0.8-1.1,0.6-1.1-0.1L1,64.8c0-1,0.6-1.9,1.5-2.2c16.8-6,39.3-12.6,42-17.9c0.2-0.4,0.6-0.7,1.1-0.7L52.9,44z"/>
	</g>
</g>
<path class="st0" d="M52.8,44.2l0.1,38.9c-31.4,0.5-36.3-1.9-36.1,4.1c0,0.5-0.4,0.8-0.8,0.7L2.3,83.6c-0.4-0.1-0.6-0.1-0.9-0.3
	l-0.2-0.3c-0.2-0.5,0.2-0.6,0.5-0.5l13.7,4.3c0.4,0.1,0.7-0.2,0.8-0.7c0.7-5.6,4.9-3.4,36.3-3.9l-0.2-38L52.8,44.2z"/>
<g class="st3">
	<path d="M39.6,48.7c0,0-0.9,27.2-1.9,34.2c-1.1,0-3.2,0.1-3.3,0.1c0.1-0.3,0.4-1.3,0.5-1.7c1-6.7,1.9-32.1,1.9-32.2
		C37.6,49.5,39.6,48.7,39.6,48.7z"/>
</g>
<path d="M29.8,60.5c-2.3,0-3.6-5.7-3.6-11c0-5,1-10.4,3.1-11c2.7-0.1,4,5.6,4,11c0,5-1,10.4-3.1,11L29.8,60.5z"/>
<radialGradient id="SVGID_1_" cx="-320.5727" cy="523.2719" r="1" gradientTransform="matrix(-2.8193 2.873721e-02 0.1103 10.8169 -934.173 -5604.457)" gradientUnits="userSpaceOnUse">
	<stop  offset="0" style="stop-color:#FFFFFF"/>
	<stop  offset="1" style="stop-color:#AEAEAE"/>
</radialGradient>
<path class="st4" d="M29.8,60.1c1.7,0,3.1-4.8,3.1-10.7c0-5.9-1.5-10.6-3.2-10.6c-1.7,0-3.1,4.8-3.1,10.7S28,60.1,29.8,60.1z"/>
<path d="M37.3,53.5c-0.5-0.4-1-0.9-1.5-1.3c-1.8-1.7-3.9-3.5-5.9-3.5c-0.4,0-0.8,0.1-1.2,0.2c-1.7,0.6-3.4,2.1-4.9,3.4l-1.2,1.1
	c-1.3-3.5-0.5-5.7,0.1-7.5c0.5-1.4,1.4-2.5,2.5-2.8l0.2-0.1c1.8-0.6,3.2-0.8,4.6-0.8c1.6,0,3.2,0.2,4.6,0.7c1.1,0.4,2,1.4,2.5,2.8
	c1.1,2.9,1.4,5.4,0.9,7.5L37.9,54L37.3,53.5z"/>
<radialGradient id="SVGID_00000096039359428182209990000004848556407397506212_" cx="-251.1909" cy="510.3732" r="1" gradientTransform="matrix(-14.5396 0.1482 0.184 18.0532 -3718.1096 -9132.8516)" gradientUnits="userSpaceOnUse">
	<stop  offset="0" style="stop-color:#FFFFFF"/>
	<stop  offset="0.4" style="stop-color:#D8D8D8"/>
	<stop  offset="0.79" style="stop-color:#B9B9B9"/>
	<stop  offset="1" style="stop-color:#AEAEAE"/>
</radialGradient>
<path style="fill:url(#SVGID_00000096039359428182209990000004848556407397506212_);" d="M22.3,53.1c2.1-1.8,4.9-4.8,7.6-4.8
	c2.7,0,5.5,3.2,7.7,4.9c0.7-3.4-0.8-6.9-0.9-7.3c-0.4-1.2-1.2-2.2-2.2-2.6c-1.4-0.5-2.9-0.7-4.5-0.7c-1.7,0-3.2,0.3-4.6,0.8
	c-0.9,0.4-1.7,1.3-2.2,2.5C22.5,47.7,21.7,49.8,22.3,53.1L22.3,53.1z"/>
<path d="M33,84.4c-0.9,0.3-1.8,0.4-2.9,0.4c-2.5,0-4.6-0.8-5.2-2c-2.1-2.9-2.8-16.6-3.3-31.6c0-0.4,0.2-1.8,0.9-2.6
	c0.7-0.6,1.9-1.3,3.3-1.7c1-0.3,2-0.5,3-0.6c0.3,0,0.6,0,0.9-0.1c0.8,0,1.8,0,2.7,0.1c1.8,0.2,4.1,0.7,5,1.9c0.7,1,1,1.8,0.9,2.6
	c-0.5,15.3-1.1,29.3-2.9,31.9C35.1,83.4,34.2,84,33,84.4L33,84.4z"/>
<path class="st0" d="M22,51.2c0.5,13.6,1.1,28.5,3.3,31.5c0.5,1.1,2.5,1.8,4.9,1.8c2.4,0,4.4-0.8,4.8-1.9l0,0
	c1.8-2.6,2.4-17,2.9-31.7c0-0.9-0.4-1.7-0.9-2.4c-0.7-1-2.7-1.5-4.7-1.8c-0.9-0.1-1.8-0.1-2.7-0.1c-0.3,0-0.6,0-0.9,0
	c-2.3,0.2-4.9,1.2-6,2.3C22.2,49.5,22,50.8,22,51.2L22,51.2z"/>
<radialGradient id="SVGID_00000090263820258460029930000014118410731504536992_" cx="-248.6817" cy="497.0708" r="1" gradientTransform="matrix(-17.1123 0.1744 0.5934 58.2184 -4522.2588 -28831.5293)" gradientUnits="userSpaceOnUse">
	<stop  offset="0" style="stop-color:#FFFFFF"/>
	<stop  offset="0.1" style="stop-color:#F9F9F9"/>
	<stop  offset="0.23" style="stop-color:#EBEBEB"/>
	<stop  offset="0.36" style="stop-color:#D2D2D2"/>
	<stop  offset="0.5" style="stop-color:#B0B0B0"/>
	<stop  offset="0.65" style="stop-color:#848484"/>
	<stop  offset="0.81" style="stop-color:#4F4F4F"/>
	<stop  offset="0.96" style="stop-color:#111111"/>
	<stop  offset="1" style="stop-color:#000000"/>
</radialGradient>
<path style="fill:url(#SVGID_00000090263820258460029930000014118410731504536992_);" d="M22,51.2c0.5,13.6,1.1,28.5,3.3,31.5
	c0.5,1.1,2.5,1.8,4.9,1.8c2.4,0,4.4-0.8,4.8-1.9l0,0c1.8-2.6,2.4-17,2.9-31.7c0-0.9-0.4-1.7-0.9-2.4c-0.7-1-2.7-1.5-4.7-1.8
	c-0.9-0.1-1.8-0.1-2.7-0.1c-0.3,0-0.6,0-0.9,0c-2.3,0.2-4.9,1.2-6,2.3C22.2,49.5,22,50.8,22,51.2L22,51.2z"/>
<radialGradient id="SVGID_00000003105161878364627520000017966939284372158593_" cx="-211.869" cy="530.0318" r="1" gradientTransform="matrix(0.2011 15.4105 6.206 -8.099081e-02 -3162.9729 3343.407)" gradientUnits="userSpaceOnUse">
	<stop  offset="0" style="stop-color:#FFFFFF"/>
	<stop  offset="2.000000e-02" style="stop-color:#F8F8F8"/>
	<stop  offset="0.3" style="stop-color:#A1A1A1"/>
	<stop  offset="0.55" style="stop-color:#5C5C5C"/>
	<stop  offset="0.76" style="stop-color:#2A2A2A"/>
	<stop  offset="0.91" style="stop-color:#0B0B0B"/>
	<stop  offset="1" style="stop-color:#000000"/>
</radialGradient>
<path style="fill:url(#SVGID_00000003105161878364627520000017966939284372158593_);" d="M36.3,62.8c0,9-2.7,16.3-6.2,16.3
	c-3.5,0-6.3-7.2-6.4-16.2c0-9,2.7-16.3,6.2-16.3C33.4,46.6,36.3,53.8,36.3,62.8L36.3,62.8z"/>
<g>
	
		<radialGradient id="SVGID_00000165236676843985473120000016712469625302040207_" cx="-211.869" cy="530.0318" r="1" gradientTransform="matrix(0.2011 15.4105 6.206 -8.099081e-02 -3162.9729 3343.407)" gradientUnits="userSpaceOnUse">
		<stop  offset="0" style="stop-color:#FFFFFF"/>
		<stop  offset="2.000000e-02" style="stop-color:#F8F8F8"/>
		<stop  offset="0.3" style="stop-color:#A1A1A1"/>
		<stop  offset="0.55" style="stop-color:#5C5C5C"/>
		<stop  offset="0.76" style="stop-color:#2A2A2A"/>
		<stop  offset="0.91" style="stop-color:#0B0B0B"/>
		<stop  offset="1" style="stop-color:#000000"/>
	</radialGradient>
	<path style="fill:url(#SVGID_00000165236676843985473120000016712469625302040207_);" d="M36.3,62.8c0,9-2.7,16.3-6.2,16.3
		c-3.5,0-6.3-7.2-6.4-16.2c0-9,2.7-16.3,6.2-16.3C33.4,46.6,36.3,53.8,36.3,62.8L36.3,62.8z"/>
</g>
<path d="M36.3,76.5c-1.8-1.1-4-1.7-6.2-1.6c-1.2,0-2.5,0.2-3.6,0.6c-0.9,0.3-1.8,0.7-2.7,1.3c-0.9-2.3-1.1-4.6-1.3-7.1
	c1.3-1.4,2.6-2.1,4.1-2.6c1.1-0.4,2.3-0.5,3.4-0.6c2.7,0,5.3,0.9,7.3,2.6c0,2.9-0.2,5.2-0.4,7.2l-0.1,0.6L36.3,76.5L36.3,76.5z"/>
<radialGradient id="SVGID_00000121960498631828478380000009013801136282831263_" cx="-251.211" cy="513.8032" r="1" gradientTransform="matrix(-14.5221 0.148 0.1562 15.3267 -3700.2754 -7764.7573)" gradientUnits="userSpaceOnUse">
	<stop  offset="0" style="stop-color:#FFFFFF"/>
	<stop  offset="0.4" style="stop-color:#D8D8D8"/>
	<stop  offset="0.79" style="stop-color:#B9B9B9"/>
	<stop  offset="1" style="stop-color:#AEAEAE"/>
</radialGradient>
<path style="fill:url(#SVGID_00000121960498631828478380000009013801136282831263_);" d="M22.9,69.6c0.2,2.5,0.4,4.8,0.7,6.8
	c1.8-1.2,4.1-1.9,6.5-1.9c2.4,0,4.6,0.6,6.4,1.7c0.2-2,0.4-4.3,0.6-6.8c-1.9-1.6-4.3-2.5-7-2.5C27.3,66.9,24.8,67.9,22.9,69.6
	L22.9,69.6z"/>
<g class="st10">
	<g>
		<g>
			<path class="st0" d="M26.2,80.5C26.3,80.5,26.3,80.5,26.2,80.5c-0.7,0.5-1.2,1.1-1.2,1.6c0,0.1,0,0.3,0.1,0.4
				c-1.8-2.8-2.5-17-3.1-31.5c0-0.4,0.1-0.8,0.2-1.1c0.2-2,0.9-3.5,1-3.8c0.2-0.5,0.4-1,0.7-1.4c-0.2,0.7-0.6,1.8-0.7,3.1
				c-0.1,0.2-0.1,0.5-0.2,0.7l0,0c0,0.1,0,0.3,0,0.4c0.1,1.3,0.1,2.5,0.2,3.8C23.8,65.9,24.6,78.1,26.2,80.5L26.2,80.5L26.2,80.5z"
				/>
		</g>
		<g>
			<path d="M26.2,80.5C26.3,80.5,26.3,80.5,26.2,80.5c-0.7,0.5-1.2,1.1-1.2,1.6c0,0.1,0,0.3,0.1,0.4c-1.8-2.8-2.5-17-3.1-31.5
				c0-0.4,0.1-0.8,0.2-1.1c0.2-2,0.9-3.5,1-3.8c0.2-0.5,0.4-1,0.7-1.4c-0.2,0.7-0.6,1.8-0.7,3.1c-0.1,0.2-0.1,0.5-0.2,0.7l0,0
				c0,0.1,0,0.3,0,0.4c0.1,1.3,0.1,2.5,0.2,3.8C23.8,65.9,24.6,78.1,26.2,80.5L26.2,80.5L26.2,80.5z"/>
		</g>
	</g>
</g>
<g class="st10">
	<path d="M35,82.5c0.1-0.2,0.1-0.3,0.1-0.5c0-0.7-0.6-1.3-1.7-1.7c1.8-4.2,2.2-18.1,2.5-30.8c0-0.1,0-0.2,0-0.4c0-0.4,0-0.8-0.1-1.2
		c-0.2-1.4-0.6-2.6-1-3.7c-0.1-0.4-0.3-0.7-0.5-1c0.1,0,0.2,0.1,0.3,0.1c0.9,0.3,1.8,1.3,2.2,2.4c0.5,1.3,1.1,2.8,1.1,4.8
		c0,0.2,0,0.3,0,0.4C37.5,64.6,37.1,79.5,35,82.5L35,82.5z"/>
</g>
<g class="st11">
	<path class="st0" d="M25.2,82.1c0,1.3,2.3,2.4,5,2.3c2.8,0,5-1.1,5-2.4c0-1.3-2.3-2.4-5-2.3C27.4,79.7,25.2,80.8,25.2,82.1z"/>
</g>
<path d="M26.5,82.3c0,1,1.7,1.7,3.7,1.7c2,0,3.7-0.8,3.7-1.8c0-1-1.7-1.7-3.7-1.7S26.5,81.4,26.5,82.3z"/>
<path d="M23.5,76.4c-1.7-0.3-3-1.8-3-3.8c0-1.7,1-3.2,2.4-3.7c1.1-0.2,1.7,0,2.3,0.4c0.8,0.7,1.3,1.9,1.3,3.2c0,1.7-0.9,3.4-2.1,3.8
	L23.5,76.4z"/>
<radialGradient id="SVGID_00000044859871083180563140000006478448648717503933_" cx="-277.6537" cy="540.9454" r="1" gradientTransform="matrix(-5.6234 5.731880e-02 7.116987e-02 6.9823 -1580.3004 -3690.2739)" gradientUnits="userSpaceOnUse">
	<stop  offset="0" style="stop-color:#FFFFFF"/>
	<stop  offset="0.61" style="stop-color:#CACACA"/>
	<stop  offset="1" style="stop-color:#AEAEAE"/>
</radialGradient>
<path style="fill:url(#SVGID_00000044859871083180563140000006478448648717503933_);" d="M21,72.6c0,1.9,1.2,3.1,2.6,3.4
	c1.4,0.2,2.6-1.5,2.6-3.4c0-1.9-1.2-3.6-2.6-3.4C22.1,69.4,21,70.7,21,72.6z"/>
<radialGradient id="SVGID_00000055683318008737228720000001927922042982747018_" cx="-149.9999" cy="393.4677" r="1" gradientTransform="matrix(2.8717 -2.928414e-02 -3.636064e-02 -3.5656 467.5108 1471.1707)" gradientUnits="userSpaceOnUse">
	<stop  offset="0" style="stop-color:#FFFFFF"/>
	<stop  offset="0.61" style="stop-color:#CACACA"/>
	<stop  offset="1" style="stop-color:#AEAEAE"/>
</radialGradient>
<path style="fill:url(#SVGID_00000055683318008737228720000001927922042982747018_);" d="M21,72.6c0,1.7,1.1,3.1,2,3.1
	c1.1,0,2-1.4,2-3.2c0-1.7-0.9-3.1-2-3.1C21.9,69.5,21,71,21,72.6z"/>
<path d="M22.6,75l-0.7-0.4c-0.4-0.4-0.7-1.2-0.7-2c0-1.2,0.5-2.1,1.2-2.4c0.6-0.1,0.9,0.1,1.2,0.3c0.4,0.4,0.7,1.2,0.7,2
	c0,1.2-0.5,2.1-1.2,2.4L22.6,75z"/>
<path class="st14" d="M21.6,72.6c0,1.1,0.5,2,1.2,2c0.6,0,1.2-0.9,1.1-2c0-1.1-0.5-2-1.2-2C22.1,70.6,21.6,71.5,21.6,72.6L21.6,72.6
	z"/>
<path d="M36.7,76.1c-0.6,0.1-1.2,0-1.7-0.5c-0.8-0.7-1.4-2-1.4-3.3c0-1.7,0.9-3.3,2.2-3.7l0.9-0.1c1.7,0.2,3,1.8,3,3.8
	c0,1.7-1,3.2-2.5,3.7L36.7,76.1L36.7,76.1z"/>
<radialGradient id="SVGID_00000165937316851816122810000008407957260958989475_" cx="-191.3487" cy="441.238" r="1" gradientTransform="matrix(5.6234 -5.734434e-02 -7.120170e-02 -6.9823 1145.2815 3140.3347)" gradientUnits="userSpaceOnUse">
	<stop  offset="0" style="stop-color:#FFFFFF"/>
	<stop  offset="0.61" style="stop-color:#CACACA"/>
	<stop  offset="1" style="stop-color:#AEAEAE"/>
</radialGradient>
<path style="fill:url(#SVGID_00000165937316851816122810000008407957260958989475_);" d="M39.2,72.3c0,1.9-1.2,3.1-2.6,3.4
	c-1.4,0.3-2.6-1.5-2.6-3.4c0-1.9,1.2-3.6,2.6-3.4C38,69.1,39.2,70.4,39.2,72.3L39.2,72.3z"/>
<radialGradient id="SVGID_00000011009508380962099860000004889964081865513117_" cx="-319.0028" cy="588.7154" r="1" gradientTransform="matrix(-2.8717 2.927109e-02 3.634442e-02 3.5656 -902.5177 -2017.4802)" gradientUnits="userSpaceOnUse">
	<stop  offset="0" style="stop-color:#FFFFFF"/>
	<stop  offset="0.61" style="stop-color:#CACACA"/>
	<stop  offset="1" style="stop-color:#AEAEAE"/>
</radialGradient>
<path style="fill:url(#SVGID_00000011009508380962099860000004889964081865513117_);" d="M39.2,72.3c0,1.7-1,3.1-2,3.2
	c-1.1,0-2-1.4-2-3.1c0-1.7,0.9-3.1,2-3.2C38.2,69.1,39.2,70.6,39.2,72.3z"/>
<path d="M37.2,74.7l-0.7-0.4c-0.4-0.4-0.7-1.2-0.7-2c0-1.2,0.5-2.1,1.2-2.4c0.6-0.1,0.9,0.1,1.2,0.3c0.4,0.4,0.7,1.2,0.7,2
	c0,1.2-0.5,2.1-1.2,2.4L37.2,74.7z"/>
<path class="st14" d="M38.6,72.3c0,1.1-0.5,2-1.1,2c-0.6,0-1.2-0.9-1.2-2c0-1.1,0.5-2,1.1-2C38,70.3,38.5,71.2,38.6,72.3L38.6,72.3z
	"/>
<path class="st17" d="M33.9,87.4c0-3.9-1.7-6.2-3.7-6.2c-2,0-3.7,2.3-3.7,6.2c0,1.6,1.2,8.9,1.2,8.9l0-3.1l0.8,8.5
	c0,0-0.1-4.8,0.2-5.7c-0.3,2.1,0.4,7,0.9,11.7l0.1-3.7l0.8,8.3l2-13.6l-0.3,5.1l1.2-12.6L33,97.5C33,97.5,33.9,87.7,33.9,87.4
	L33.9,87.4z"/>
<path class="st18" d="M33.5,86.3c0-2.6-1.5-4.8-3.3-4.8c-1.8,0-3.3,2.2-3.3,4.8c0,1.1,1,6,1,6l0-2.1l0.7,5.7c0,0-0.1-3.3,0.1-3.9
	c-0.2,1.4,0.4,4.8,0.8,7.9l0.1-2.5l0.7,5.6l1.8-9.2l-0.3,3.5l1.1-8.5l-0.2,4.2C32.7,93.1,33.5,86.5,33.5,86.3L33.5,86.3z"/>
<path class="st19" d="M33.1,84.3c0-1.7-1.3-3.1-2.9-3.1c-1.6,0-2.9,1.4-2.9,3.1c0,0.7,0.9,3.9,0.9,3.9l0-1.3l0.6,3.7
	c0,0-0.1-2.1,0.1-2.5c-0.2,0.9,0.3,3.1,0.7,5.1l0.1-1.6l0.6,3.6l1.6-5.9l-0.3,2.2l1-5.5l-0.2,2.7C32.4,88.7,33.1,84.4,33.1,84.3
	L33.1,84.3z"/>
<radialGradient id="SVGID_00000102525521552250038720000017997070817839104153_" cx="-259.0965" cy="442.3312" r="1" gradientTransform="matrix(-0.3243 -14.2722 -4.8858 0.111 2104.2605 -3646.5498)" gradientUnits="userSpaceOnUse">
	<stop  offset="0" style="stop-color:#FFFFFF"/>
	<stop  offset="1" style="stop-color:#231F20"/>
</radialGradient>
<path style="fill:url(#SVGID_00000102525521552250038720000017997070817839104153_);" d="M33.9,87.4c0-3.9-1.7-6.2-3.7-6.2
	c-2,0-3.7,2.3-3.7,6.2c0,1.6,1.2,8.9,1.2,8.9l0-3.1l0.8,8.5c0,0-0.1-4.8,0.2-5.7c-0.3,2.1,0.4,7,0.9,11.7l0.1-3.7l0.8,8.3l2-13.6
	l-0.3,5.1l1.2-12.6L33,97.5C33,97.5,33.9,87.7,33.9,87.4L33.9,87.4z"/>
<g>
	
		<radialGradient id="SVGID_00000116952568850576916790000010582955191839747457_" cx="-259.0965" cy="442.3312" r="1" gradientTransform="matrix(-0.3243 -14.2722 -4.8858 0.111 2104.2605 -3646.5498)" gradientUnits="userSpaceOnUse">
		<stop  offset="0" style="stop-color:#FFFFFF"/>
		<stop  offset="1" style="stop-color:#231F20"/>
	</radialGradient>
	<path style="fill:url(#SVGID_00000116952568850576916790000010582955191839747457_);" d="M33.9,87.4c0-3.9-1.7-6.2-3.7-6.2
		c-2,0-3.7,2.3-3.7,6.2c0,1.6,1.2,8.9,1.2,8.9l0-3.1l0.8,8.5c0,0-0.1-4.8,0.2-5.7c-0.3,2.1,0.4,7,0.9,11.7l0.1-3.7l0.8,8.3l2-13.6
		l-0.3,5.1l1.2-12.6L33,97.5C33,97.5,33.9,87.7,33.9,87.4L33.9,87.4z"/>
</g>
<path d="M112.1,87.6l-0.8-0.3l-0.2-0.2l-0.3-0.9c0-1.2-0.2-1.9-0.6-2.4c-1.3-1.3-5.4-1.2-14.2-0.9c-5.1,0.2-11.9,0.4-20.7,0.4
	l-0.6,0l-0.4-40.1l8-0.1c0.7,0,1.3,0.4,1.6,1c2.1,4,17.7,9,31.5,13.4c3.6,1.1,7.1,2.3,10.4,3.4c1.1,0.4,1.9,1.5,1.9,2.7l0.1,17.3
	c0,0.9-0.5,1.6-1.3,1.9l-14,4.6L112.1,87.6L112.1,87.6z"/>
<path class="st0" d="M125.9,82.3l-13.6,4.6c-0.4,0.1-0.8-0.2-0.8-0.7c0.1-6.1-4.8-3.5-36.2-3.4l-0.4-38.9l7.4-0.1
	c0.4,0,0.9,0.2,1.1,0.7c2.8,5.2,25.4,11.4,42.2,17c0.9,0.3,1.5,1.2,1.5,2.1l0.1,17.3C127.1,81.7,126.6,82.3,125.9,82.3L125.9,82.3z"
	/>
<g class="st1">
	<path class="st0" d="M125.9,82.3l-13.6,4.6c-0.4,0.1-0.8-0.2-0.8-0.7c0.1-6.1-4.8-3.5-36.2-3.4l-0.4-38.9l7.4-0.1
		c0.4,0,0.9,0.2,1.1,0.7c2.8,5.2,25.4,11.4,42.2,17c0.9,0.3,1.5,1.2,1.5,2.1l0.1,17.3C127.1,81.7,126.6,82.3,125.9,82.3L125.9,82.3z
		"/>
</g>
<g class="st2">
	<g>
		<path class="st0" d="M74.7,43.9l0,1.2L81,45c0.4,0,0.9,0.2,1.1,0.7c2.8,5.2,25.4,11.4,42.2,17c0.9,0.3,1.5,1.2,1.5,2.1l0.1,17.3
			c0,0.1,0,0.1,0,0.2c0.6-0.1,1.1-0.7,1.1-1.4l-0.1-17.3c0-1-0.6-1.9-1.5-2.1c-16.8-5.6-39.4-11.8-42.2-17c-0.2-0.4-0.6-0.7-1.1-0.6
			L74.7,43.9L74.7,43.9z"/>
	</g>
	<g>
		<path class="st0" d="M74.7,43.9l0,1.2L81,45c0.4,0,0.9,0.2,1.1,0.7c2.8,5.2,25.4,11.4,42.2,17c0.9,0.3,1.5,1.2,1.5,2.1l0.1,17.3
			c0,0.1,0,0.1,0,0.2c0.6-0.1,1.1-0.7,1.1-1.4l-0.1-17.3c0-1-0.6-1.9-1.5-2.1c-16.8-5.6-39.4-11.8-42.2-17c-0.2-0.4-0.6-0.7-1.1-0.6
			L74.7,43.9L74.7,43.9z"/>
	</g>
</g>
<path class="st0" d="M74.9,43.9l0.4,38.9c31.4-0.1,36.3-2.7,36.2,3.4c0,0.5,0.4,0.8,0.8,0.7l13.6-4.6c0.4-0.1,0.6-0.1,0.9-0.4
	l0.2-0.3c0.1-0.5-0.3-0.6-0.6-0.5l-13.6,4.6c-0.4,0.1-0.7-0.2-0.8-0.7c-0.7-5.6-4.9-3.3-36.3-3.1l-0.2-38L74.9,43.9L74.9,43.9z"/>
<g class="st3">
	<path d="M107.1,55.5c0,0-1,20.9-2,26.7c-1.1,0-3.2,0.1-3.3,0.1c0.1-0.3,0.4-1.1,0.5-1.4c1.1-5.5,1.9-26.4,1.9-26.4
		C105.1,54.8,106.2,55.2,107.1,55.5L107.1,55.5z"/>
</g>
<path d="M97.3,59.8c-2.3,0-3.6-5.7-3.6-11c0-5,1-10.4,3.1-11c2.7-0.1,4,5.6,4,11c0,5-1,10.4-3.1,11L97.3,59.8z"/>
<radialGradient id="SVGID_00000105392753661735792670000004076418297606618525_" cx="-320.5727" cy="523.2719" r="1" gradientTransform="matrix(-2.8193 2.873721e-02 0.1103 10.8169 -866.8626 -5605.1431)" gradientUnits="userSpaceOnUse">
	<stop  offset="0" style="stop-color:#FFFFFF"/>
	<stop  offset="1" style="stop-color:#AEAEAE"/>
</radialGradient>
<path style="fill:url(#SVGID_00000105392753661735792670000004076418297606618525_);" d="M97.3,59.4c1.7,0,3.1-4.8,3.1-10.7
	c0-5.9-1.5-10.6-3.2-10.6c-1.7,0-3.1,4.8-3.1,10.7C94.1,54.7,95.5,59.4,97.3,59.4z"/>
<path d="M104.9,52.9c-0.5-0.4-1-0.9-1.5-1.3c-1.8-1.6-3.9-3.5-5.9-3.5c-0.4,0-0.8,0.1-1.2,0.2c-1.7,0.6-3.4,2.1-4.9,3.4l-1.2,1.1
	c-1.3-3.5-0.5-5.7,0.1-7.5c0.5-1.5,1.5-2.5,2.5-2.9l0.1,0c1.8-0.6,3.2-0.8,4.6-0.8c1.6,0,3.2,0.2,4.6,0.7c1.1,0.4,2,1.4,2.5,2.8
	c1.4,3.6,1.3,6.1,0.9,7.5l-0.1,0.7L104.9,52.9L104.9,52.9z"/>
<radialGradient id="SVGID_00000173142790213009114350000014059080269818099863_" cx="-251.1909" cy="510.3732" r="1" gradientTransform="matrix(-14.5396 0.1482 0.184 18.0532 -3650.7993 -9133.5361)" gradientUnits="userSpaceOnUse">
	<stop  offset="0" style="stop-color:#FFFFFF"/>
	<stop  offset="0.4" style="stop-color:#D8D8D8"/>
	<stop  offset="0.79" style="stop-color:#B9B9B9"/>
	<stop  offset="1" style="stop-color:#AEAEAE"/>
</radialGradient>
<path style="fill:url(#SVGID_00000173142790213009114350000014059080269818099863_);" d="M89.8,52.4c2.1-1.8,4.9-4.8,7.6-4.8
	c2.7,0,5.5,3.2,7.7,4.9c0.7-3.4-0.8-6.9-0.9-7.3c-0.4-1.2-1.2-2.2-2.2-2.6c-1.4-0.5-2.9-0.7-4.5-0.7c-1.7,0-3.2,0.3-4.6,0.8
	c-0.9,0.4-1.7,1.3-2.2,2.5C90,47,89.2,49.1,89.8,52.4z"/>
<path d="M100.5,83.7c-0.8,0.3-1.8,0.4-2.9,0.4c-2.5,0-4.7-0.8-5.2-2c-2.1-2.9-2.8-16.6-3.3-31.6c0-0.4,0.2-1.8,0.9-2.6
	c0.6-0.6,1.8-1.3,3.3-1.7c1-0.3,2-0.5,2.9-0.6c0.3,0,0.6,0,0.9-0.1c0.8,0,1.8,0,2.7,0.1c1.8,0.2,4.1,0.7,5,1.9
	c0.7,0.9,1,1.8,0.9,2.6c-0.5,15.3-1.1,29.3-2.9,31.9C102.6,82.7,101.7,83.3,100.5,83.7L100.5,83.7z"/>
<path class="st0" d="M89.5,50.5C90,64.1,90.6,79,92.8,81.9c0.5,1.1,2.5,1.8,4.9,1.8c2.4,0,4.4-0.8,4.8-1.9l0,0
	c1.8-2.6,2.4-17,2.9-31.7c0-0.9-0.4-1.7-0.9-2.4c-0.7-1-2.7-1.5-4.7-1.8c-0.9-0.1-1.8-0.1-2.7-0.1c-0.3,0-0.6,0-0.9,0
	c-2.3,0.2-4.9,1.2-6,2.3C89.7,48.8,89.5,50.1,89.5,50.5L89.5,50.5z"/>
<radialGradient id="SVGID_00000110454863411650048840000013631505267464772518_" cx="-248.6817" cy="497.0708" r="1" gradientTransform="matrix(-17.1123 0.1744 0.5934 58.2184 -4454.9482 -28832.2148)" gradientUnits="userSpaceOnUse">
	<stop  offset="0" style="stop-color:#FFFFFF"/>
	<stop  offset="0.1" style="stop-color:#F9F9F9"/>
	<stop  offset="0.23" style="stop-color:#EBEBEB"/>
	<stop  offset="0.36" style="stop-color:#D2D2D2"/>
	<stop  offset="0.5" style="stop-color:#B0B0B0"/>
	<stop  offset="0.65" style="stop-color:#848484"/>
	<stop  offset="0.81" style="stop-color:#4F4F4F"/>
	<stop  offset="0.96" style="stop-color:#111111"/>
	<stop  offset="1" style="stop-color:#000000"/>
</radialGradient>
<path style="fill:url(#SVGID_00000110454863411650048840000013631505267464772518_);" d="M89.5,50.5C90,64.1,90.6,79,92.8,81.9
	c0.5,1.1,2.5,1.8,4.9,1.8c2.4,0,4.4-0.8,4.8-1.9l0,0c1.8-2.6,2.4-17,2.9-31.7c0-0.9-0.4-1.7-0.9-2.4c-0.7-1-2.7-1.5-4.7-1.8
	c-0.9-0.1-1.8-0.1-2.7-0.1c-0.3,0-0.6,0-0.9,0c-2.3,0.2-4.9,1.2-6,2.3C89.7,48.8,89.5,50.1,89.5,50.5L89.5,50.5z"/>
<radialGradient id="SVGID_00000047756170537979729800000009512729257963750052_" cx="-211.869" cy="530.0318" r="1" gradientTransform="matrix(0.2011 15.4105 6.206 -8.099081e-02 -3094.8445 3342.3831)" gradientUnits="userSpaceOnUse">
	<stop  offset="0" style="stop-color:#FFFFFF"/>
	<stop  offset="2.000000e-02" style="stop-color:#F8F8F8"/>
	<stop  offset="0.3" style="stop-color:#A1A1A1"/>
	<stop  offset="0.55" style="stop-color:#5C5C5C"/>
	<stop  offset="0.76" style="stop-color:#2A2A2A"/>
	<stop  offset="0.91" style="stop-color:#0B0B0B"/>
	<stop  offset="1" style="stop-color:#000000"/>
</radialGradient>
<path style="fill:url(#SVGID_00000047756170537979729800000009512729257963750052_);" d="M103.8,62.1c0,9-2.7,16.3-6.2,16.3
	c-3.5,0-6.3-7.2-6.4-16.2c0-9,2.7-16.3,6.2-16.3C100.9,45.9,103.8,53.1,103.8,62.1L103.8,62.1z"/>
<g>
	
		<radialGradient id="SVGID_00000023276517645985174980000008731018266782915006_" cx="-211.869" cy="530.0318" r="1" gradientTransform="matrix(0.2011 15.4105 6.206 -8.099081e-02 -3094.8445 3342.3831)" gradientUnits="userSpaceOnUse">
		<stop  offset="0" style="stop-color:#FFFFFF"/>
		<stop  offset="2.000000e-02" style="stop-color:#F8F8F8"/>
		<stop  offset="0.3" style="stop-color:#A1A1A1"/>
		<stop  offset="0.55" style="stop-color:#5C5C5C"/>
		<stop  offset="0.76" style="stop-color:#2A2A2A"/>
		<stop  offset="0.91" style="stop-color:#0B0B0B"/>
		<stop  offset="1" style="stop-color:#000000"/>
	</radialGradient>
	<path style="fill:url(#SVGID_00000023276517645985174980000008731018266782915006_);" d="M103.8,62.1c0,9-2.7,16.3-6.2,16.3
		c-3.5,0-6.3-7.2-6.4-16.2c0-9,2.7-16.3,6.2-16.3C100.9,45.9,103.8,53.1,103.8,62.1L103.8,62.1z"/>
</g>
<path d="M103.8,75.8c-1.8-1.1-4-1.7-6.2-1.6c-1.3,0-2.5,0.2-3.6,0.6C93,75,92.2,75.5,91.3,76c-0.9-2.2-1.1-4.6-1.3-7.1
	c1.3-1.4,2.6-2.1,4.1-2.6c1.1-0.4,2.3-0.5,3.4-0.6c2.7,0,5.3,0.9,7.3,2.6c0,2.9-0.2,5.2-0.4,7.2l-0.1,0.6L103.8,75.8L103.8,75.8z"/>
<radialGradient id="SVGID_00000173872303207012624470000003441652987297344662_" cx="-251.211" cy="513.8032" r="1" gradientTransform="matrix(-14.5221 0.148 0.1562 15.3267 -3632.9651 -7765.4414)" gradientUnits="userSpaceOnUse">
	<stop  offset="0" style="stop-color:#FFFFFF"/>
	<stop  offset="0.4" style="stop-color:#D8D8D8"/>
	<stop  offset="0.79" style="stop-color:#B9B9B9"/>
	<stop  offset="1" style="stop-color:#AEAEAE"/>
</radialGradient>
<path style="fill:url(#SVGID_00000173872303207012624470000003441652987297344662_);" d="M90.4,68.9c0.2,2.5,0.4,4.8,0.7,6.8
	c1.8-1.2,4.1-1.9,6.5-1.9c2.4,0,4.6,0.6,6.4,1.7c0.2-2,0.4-4.3,0.6-6.8c-1.9-1.6-4.3-2.5-7-2.5C94.8,66.2,92.3,67.2,90.4,68.9
	L90.4,68.9z"/>
<g class="st10">
	<g>
		<g>
			<path class="st0" d="M93.7,79.8C93.8,79.8,93.8,79.8,93.7,79.8c-0.7,0.5-1.2,1.1-1.2,1.6c0,0.1,0,0.3,0.1,0.4
				c-1.8-2.8-2.5-17-3.1-31.5c0-0.4,0.1-0.8,0.2-1.1c0.2-2,0.9-3.5,1-3.8c0.2-0.5,0.4-1,0.7-1.4c-0.2,0.7-0.6,1.8-0.7,3.1
				c-0.1,0.2-0.1,0.5-0.2,0.7c0,0.1,0,0.3,0,0.4c0.1,1.3,0.1,2.5,0.2,3.8C91.3,65.2,92.1,77.5,93.7,79.8L93.7,79.8L93.7,79.8z"/>
		</g>
		<g>
			<path d="M93.7,79.8C93.8,79.8,93.8,79.8,93.7,79.8c-0.7,0.5-1.2,1.1-1.2,1.6c0,0.1,0,0.3,0.1,0.4c-1.8-2.8-2.5-17-3.1-31.5
				c0-0.4,0.1-0.8,0.2-1.1c0.2-2,0.9-3.5,1-3.8c0.2-0.5,0.4-1,0.7-1.4c-0.2,0.7-0.6,1.8-0.7,3.1c-0.1,0.2-0.1,0.5-0.2,0.7
				c0,0.1,0,0.3,0,0.4c0.1,1.3,0.1,2.5,0.2,3.8C91.3,65.2,92.1,77.5,93.7,79.8L93.7,79.8L93.7,79.8z"/>
		</g>
	</g>
</g>
<g class="st10">
	<path d="M102.5,81.8c0.1-0.2,0.1-0.3,0.1-0.5c0-0.7-0.6-1.3-1.7-1.7c1.8-4.2,2.2-18.1,2.5-30.8c0-0.1,0-0.2,0-0.4
		c0-0.4,0-0.8-0.1-1.2c-0.2-1.4-0.6-2.6-1-3.7c-0.1-0.4-0.3-0.7-0.5-1c0.1,0,0.2,0.1,0.3,0.1c0.9,0.3,1.8,1.3,2.2,2.4
		c0.5,1.3,1.1,2.8,1.1,4.8c0,0.2,0,0.3,0,0.4C105.1,63.9,104.6,78.8,102.5,81.8L102.5,81.8z"/>
</g>
<g class="st11">
	<path class="st0" d="M92.7,81.4c0,1.3,2.3,2.4,5,2.3c2.8,0,5-1.1,5-2.4c0-1.3-2.3-2.4-5-2.3C94.9,79,92.7,80.1,92.7,81.4z"/>
</g>
<path d="M94,81.6c0,1,1.7,1.7,3.7,1.7c2,0,3.7-0.8,3.7-1.8c0-1-1.7-1.7-3.7-1.7C95.6,79.9,94,80.7,94,81.6z"/>
<path d="M91,75.7c-1.7-0.3-2.9-1.8-3-3.8c0-1.7,1-3.2,2.4-3.7c1.1-0.2,1.7,0,2.3,0.4c0.8,0.7,1.3,1.9,1.3,3.2c0,1.7-0.9,3.3-2.1,3.7
	L91,75.7L91,75.7z"/>
<radialGradient id="SVGID_00000023960718639781832660000011466238235061801384_" cx="-277.6537" cy="540.9454" r="1" gradientTransform="matrix(-5.6234 5.731880e-02 7.116987e-02 6.9823 -1512.9901 -3690.9578)" gradientUnits="userSpaceOnUse">
	<stop  offset="0" style="stop-color:#FFFFFF"/>
	<stop  offset="0.61" style="stop-color:#CACACA"/>
	<stop  offset="1" style="stop-color:#AEAEAE"/>
</radialGradient>
<path style="fill:url(#SVGID_00000023960718639781832660000011466238235061801384_);" d="M88.5,71.9c0,1.9,1.2,3.1,2.6,3.4
	c1.4,0.2,2.6-1.5,2.6-3.4c0-1.9-1.2-3.6-2.6-3.4C89.6,68.7,88.5,70,88.5,71.9z"/>
<radialGradient id="SVGID_00000131369404883601469090000017996457516452074420_" cx="-150.064" cy="393.5419" r="1" gradientTransform="matrix(2.8739 -2.930588e-02 -3.638764e-02 -3.5684 535.3455 1471.8127)" gradientUnits="userSpaceOnUse">
	<stop  offset="0" style="stop-color:#FFFFFF"/>
	<stop  offset="0.61" style="stop-color:#CACACA"/>
	<stop  offset="1" style="stop-color:#AEAEAE"/>
</radialGradient>
<path style="fill:url(#SVGID_00000131369404883601469090000017996457516452074420_);" d="M88.5,71.9c0,1.7,1.1,3.1,2,3.1
	c1.1,0,2-1.4,2-3.2c0-1.7-0.9-3.1-2-3.1C89.4,68.8,88.5,70.3,88.5,71.9L88.5,71.9z"/>
<path d="M90.1,74.3L89.4,74c-0.4-0.4-0.7-1.2-0.7-2c0-1.2,0.5-2.1,1.2-2.4c0.6-0.1,0.9,0.1,1.2,0.3c0.4,0.4,0.7,1.2,0.7,2
	c0,1.1-0.5,2.1-1.2,2.3L90.1,74.3z"/>
<path class="st14" d="M89.1,71.9c0,1.1,0.5,2,1.2,2c0.6,0,1.2-0.9,1.1-2c0-1.1-0.5-2-1.2-2C89.6,70,89.1,70.8,89.1,71.9L89.1,71.9z"
	/>
<path d="M104.2,75.4c-0.6,0.1-1.2,0-1.7-0.5c-0.8-0.7-1.4-2-1.4-3.3c0-1.8,0.9-3.3,2.2-3.7l0.9-0.1c1.7,0.2,3,1.8,3,3.8
	c0,1.7-1,3.2-2.5,3.7L104.2,75.4L104.2,75.4z"/>
<radialGradient id="SVGID_00000182498703231485973420000000212718726070235284_" cx="-191.3487" cy="441.238" r="1" gradientTransform="matrix(5.6234 -5.734434e-02 -7.120170e-02 -6.9823 1212.5946 3139.6509)" gradientUnits="userSpaceOnUse">
	<stop  offset="0" style="stop-color:#FFFFFF"/>
	<stop  offset="0.61" style="stop-color:#CACACA"/>
	<stop  offset="1" style="stop-color:#AEAEAE"/>
</radialGradient>
<path style="fill:url(#SVGID_00000182498703231485973420000000212718726070235284_);" d="M106.7,71.6c0,1.9-1.2,3.1-2.6,3.4
	c-1.4,0.3-2.6-1.5-2.6-3.4c0-1.9,1.2-3.6,2.6-3.4C105.5,68.4,106.7,69.7,106.7,71.6z"/>
<radialGradient id="SVGID_00000072971810586336110540000013027933476004105913_" cx="-318.9388" cy="588.6412" r="1" gradientTransform="matrix(-2.8739 2.929331e-02 3.637205e-02 3.5684 -835.7318 -2019.4896)" gradientUnits="userSpaceOnUse">
	<stop  offset="0" style="stop-color:#FFFFFF"/>
	<stop  offset="0.61" style="stop-color:#CACACA"/>
	<stop  offset="1" style="stop-color:#AEAEAE"/>
</radialGradient>
<path style="fill:url(#SVGID_00000072971810586336110540000013027933476004105913_);" d="M106.7,71.6c0,1.7-1,3.1-2,3.2
	c-1.1,0-2-1.4-2-3.1c0-1.7,0.9-3.1,2-3.2C105.7,68.4,106.7,69.9,106.7,71.6L106.7,71.6z"/>
<path d="M104.8,74l-0.7-0.4c-0.4-0.4-0.7-1.2-0.7-2c0-1.2,0.5-2.1,1.2-2.4c0.6-0.1,0.9,0.1,1.2,0.3c0.4,0.4,0.7,1.2,0.7,2
	c0,1.2-0.5,2.1-1.2,2.4L104.8,74z"/>
<path class="st14" d="M106.1,71.6c0,1.1-0.5,2-1.1,2c-0.6,0-1.2-0.9-1.2-2c0-1.1,0.5-2,1.1-2C105.5,69.6,106.1,70.5,106.1,71.6z"/>
<path class="st17" d="M101.4,86.7c0-3.9-1.7-6.2-3.7-6.2c-2,0-3.7,2.3-3.7,6.2c0,1.6,1.2,8.9,1.2,8.9l0-3.1l0.8,8.5
	c0,0-0.1-4.8,0.2-5.7c-0.3,2.1,0.4,7,0.9,11.7l0.1-3.7l0.8,8.3l2-13.6l-0.3,5.1l1.2-12.6l-0.3,6.2C100.5,96.8,101.4,87,101.4,86.7
	L101.4,86.7z"/>
<path class="st18" d="M101,85.6c0-2.6-1.5-4.8-3.3-4.8c-1.8,0-3.3,2.2-3.3,4.8c0,1.1,1,6,1,6l0-2.1l0.7,5.8c0,0-0.1-3.3,0.1-3.9
	c-0.2,1.4,0.4,4.8,0.8,7.9l0.1-2.5l0.7,5.6l1.8-9.2l-0.3,3.5l1.1-8.5l-0.2,4.2C100.2,92.4,101,85.8,101,85.6L101,85.6z"/>
<path class="st19" d="M100.6,83.6c0-1.7-1.3-3.1-2.9-3.1c-1.6,0-2.9,1.4-2.9,3.1c0,0.7,0.9,3.9,0.9,3.9l0-1.3l0.6,3.7
	c0,0-0.1-2.1,0.1-2.5c-0.2,0.9,0.3,3.1,0.7,5.1l0.1-1.6l0.6,3.6l1.6-5.9l-0.3,2.2l1-5.5L99.9,88C99.9,88,100.6,83.7,100.6,83.6
	L100.6,83.6z"/>
<radialGradient id="SVGID_00000088124588546010118670000001643638110693137044_" cx="-259.0965" cy="442.3312" r="1" gradientTransform="matrix(-0.3243 -14.2722 -4.8858 0.111 2171.7473 -3647.0947)" gradientUnits="userSpaceOnUse">
	<stop  offset="0" style="stop-color:#FFFFFF"/>
	<stop  offset="1" style="stop-color:#231F20"/>
</radialGradient>
<path style="fill:url(#SVGID_00000088124588546010118670000001643638110693137044_);" d="M101.4,86.7c0-3.9-1.7-6.2-3.7-6.2
	c-2,0-3.7,2.3-3.7,6.2c0,1.6,1.2,8.9,1.2,8.9l0-3.1l0.8,8.5c0,0-0.1-4.8,0.2-5.7c-0.3,2.1,0.4,7,0.9,11.7l0.1-3.7l0.8,8.3l2-13.6
	l-0.3,5.1l1.2-12.6l-0.3,6.2C100.5,96.8,101.4,87,101.4,86.7L101.4,86.7z"/>
<g>
	
		<radialGradient id="SVGID_00000005970056835458360020000005038571218780746637_" cx="-259.0965" cy="442.3312" r="1" gradientTransform="matrix(-0.3243 -14.2722 -4.8858 0.111 2171.7473 -3647.0947)" gradientUnits="userSpaceOnUse">
		<stop  offset="0" style="stop-color:#FFFFFF"/>
		<stop  offset="1" style="stop-color:#231F20"/>
	</radialGradient>
	<path style="fill:url(#SVGID_00000005970056835458360020000005038571218780746637_);" d="M101.4,86.7c0-3.9-1.7-6.2-3.7-6.2
		c-2,0-3.7,2.3-3.7,6.2c0,1.6,1.2,8.9,1.2,8.9l0-3.1l0.8,8.5c0,0-0.1-4.8,0.2-5.7c-0.3,2.1,0.4,7,0.9,11.7l0.1-3.7l0.8,8.3l2-13.6
		l-0.3,5.1l1.2-12.6l-0.3,6.2C100.5,96.8,101.4,87,101.4,86.7L101.4,86.7z"/>
</g>
<g class="st3">
	<g>
		<path class="st34" d="M85.9,62.7l-0.1,4.4c0,0.6-0.2,1.3-0.6,1.9l-3.1,4.9c-0.4,0.6-0.7,1.2-0.9,1.9c0,0.1-0.1,0.2-0.1,0.3
			l-0.9,6.8c-0.7,0-1.4,0-2.2,0l0.9-7.1l0.2-1.1c0.2-0.7,0.6-1.5,1-2.1l3.1-4.9c0.4-0.6,0.6-1.2,0.6-1.9l0.1-4.4
			c0-0.2,0-0.3-0.1-0.5l1.2,0.6C85.6,61.8,85.9,62.2,85.9,62.7L85.9,62.7z"/>
	</g>
	<g>
		<path d="M85.9,62.7l-0.1,4.4c0,0.6-0.2,1.3-0.6,1.9l-3.1,4.9c-0.4,0.6-0.7,1.2-0.9,1.9c0,0.1-0.1,0.2-0.1,0.3l-0.9,6.8
			c-0.7,0-1.4,0-2.2,0l0.9-7.1l0.2-1.1c0.2-0.7,0.6-1.5,1-2.1l3.1-4.9c0.4-0.6,0.6-1.2,0.6-1.9l0.1-4.4c0-0.2,0-0.3-0.1-0.5l1.2,0.6
			C85.6,61.8,85.9,62.2,85.9,62.7L85.9,62.7z"/>
	</g>
</g>
<g class="st3">
	<g>
		<path class="st0" d="M81.5,56.8c0,0.7,0,1.5,0,2.2l-2-1c0-0.9,0-1.7,0-2.6c0-2.2-0.5-11.5-0.5-11.5l2.2,0
			C81.3,43.8,81.5,54.1,81.5,56.8z"/>
	</g>
	<g>
		<path d="M81.5,56.8c0,0.7,0,1.5,0,2.2l-2-1c0-0.9,0-1.7,0-2.6c0-2.2-0.5-11.5-0.5-11.5l2.2,0C81.3,43.8,81.5,54.1,81.5,56.8z"/>
	</g>
</g>
<path d="M72.8,87.1c-2.6,0.8-5.7,1.3-8.9,1.3c-8.5,0.1-15.2-2.8-15.2-6.5l-1.3-7.1c-0.2-0.7-0.5-1.4-0.9-2.2l-2.7-4.7
	c-0.4-0.6-0.6-1.3-0.6-2l0-4.6c0-0.8,0.5-1.5,1.4-1.8l2.8-1.1L47,55.7C46.9,26.9,53.1,3,61.6,0.3C62.2,0.1,62.7,0,63.3,0
	C72.6-0.1,80,24.2,80.1,55.4l0,2.6l3.8,1.7c0.7,0.4,1.1,1,1.1,1.7L85,65.7c0,0.7-0.2,1.5-0.7,2.1l-3.1,4.9c-0.4,0.7-0.7,1.3-1,2
	l-1.2,6.9C79.1,83.8,76.8,85.8,72.8,87.1L72.8,87.1z"/>
<path class="st0" d="M84.5,61.3l-0.1,4.4c0,0.6-0.2,1.3-0.6,1.9l-3.1,4.9c-0.4,0.7-0.8,1.4-1,2.1l-1.2,7c0,3.4-6.5,6.3-14.6,6.3
	c-8.1,0.1-14.7-2.6-14.7-6l-1.3-7.2c-0.2-0.8-0.5-1.6-1-2.3l-2.7-4.7c-0.3-0.6-0.5-1.2-0.5-1.8l0-4.6c0-0.6,0.4-1.1,1-1.3l2.8-1.1
	c0-1,0-2.1,0-3.1C47.4,25.3,54.4,0.6,63.3,0.5C72.1,0.4,79.5,25,79.6,55.4c0,0.9,0,1.7,0,2.6l4.1,2.1C84.2,60.4,84.6,60.8,84.5,61.3
	z"/>
<radialGradient id="SVGID_00000122685661638044330750000003084879978040852886_" cx="-216.259" cy="484.7069" r="1" gradientTransform="matrix(13.3023 -0.1357 -0.556 -54.5187 3209.9761 26445.1328)" gradientUnits="userSpaceOnUse">
	<stop  offset="0" style="stop-color:#FFFFFF"/>
	<stop  offset="0.47" style="stop-color:#FDFDFD"/>
	<stop  offset="0.64" style="stop-color:#F6F6F6"/>
	<stop  offset="0.76" style="stop-color:#EAEAEA"/>
	<stop  offset="0.85" style="stop-color:#D9D9D9"/>
	<stop  offset="0.94" style="stop-color:#C3C3C3"/>
	<stop  offset="1" style="stop-color:#AEAEAE"/>
</radialGradient>
<path style="fill:url(#SVGID_00000122685661638044330750000003084879978040852886_);" d="M84.5,61.3l-0.1,4.4c0,0.6-0.2,1.3-0.6,1.9
	l-3.1,4.9c-0.4,0.7-0.8,1.4-1,2.1l-1.2,7c0,3.4-6.5,6.3-14.6,6.3c-8.1,0.1-14.7-2.6-14.7-6l-1.3-7.2c-0.2-0.8-0.5-1.6-1-2.3
	l-2.7-4.7c-0.3-0.6-0.5-1.2-0.5-1.8l0-4.6c0-0.6,0.4-1.1,1-1.3l2.8-1.1c0-1,0-2.1,0-3.1C47.4,25.3,54.4,0.6,63.3,0.5
	C72.1,0.4,79.5,25,79.6,55.4c0,0.9,0,1.7,0,2.6l4.1,2.1C84.2,60.4,84.6,60.8,84.5,61.3z"/>
<g class="st36">
	<path class="st37" d="M67.2,44.2c0.1,20.9,1.7,31-4.2,31.1c-6.5,0.1-4.4-10.1-4.6-31c-0.1-20.9,1.8-37.9,4.2-38
		C65,6.3,67.1,23.2,67.2,44.2z"/>
</g>
<path class="st37" d="M62.6,11.3c0,0.7-0.2,1.3-0.6,1.3c-0.3,0-0.6-0.6-0.6-1.3c0-0.7,0.2-1.3,0.6-1.3C62.3,9.9,62.6,10.5,62.6,11.3
	L62.6,11.3z"/>
<path d="M73,56c-0.6,0.2-1.3,0.1-1.8-0.3c-2.2-1.6-4.7-2.4-7.4-2.4c-1.3,0-2.5,0.2-3.7,0.6c-1.3,0.4-2.6,1.1-3.7,1.9
	c-0.2,0.1-0.3,0.1-0.4,0.2c-0.9,0.3-1.4,0.2-1.9-0.1l-0.2-0.1l-0.4-0.9l0-2.1c-0.1-18.3,3.8-33.4,9.1-35.1c0.3-0.1,0.7-0.2,1-0.2
	c2.9,0,5.5,3.7,7.5,10.4c1.9,6.6,3,15.3,3,24.6l0,2.1C74.1,55.2,73.7,55.7,73,56L73,56z"/>
<radialGradient id="SVGID_00000065755897823745903880000014193046973911565956_" cx="-205.2284" cy="471.2076" r="1" gradientTransform="matrix(8.2897 -8.453425e-02 -0.1785 -17.5061 1848.9325 8267.4609)" gradientUnits="userSpaceOnUse">
	<stop  offset="0.11" style="stop-color:#040E2E"/>
	<stop  offset="0.4" style="stop-color:#030B23"/>
	<stop  offset="0.91" style="stop-color:#020307"/>
	<stop  offset="1" style="stop-color:#020202"/>
</radialGradient>
<path style="fill:url(#SVGID_00000065755897823745903880000014193046973911565956_);" d="M73.6,52.5c0,0.7,0,1.4,0,2.1
	c0,0.8-1.3,1.3-2.1,0.7c-2.2-1.6-4.8-2.5-7.7-2.5c-2.9,0-5.6,1-7.7,2.7C55.3,56,54,55.6,54,54.8c0-0.7,0-1.4,0-2.1
	c-0.1-19.1,4.2-34.7,9.6-34.7C69,17.9,73.5,33.3,73.6,52.5L73.6,52.5z"/>
<radialGradient id="SVGID_00000163753073971445929500000016244889354315790762_" cx="-206.5077" cy="467.1712" r="1" gradientTransform="matrix(8.6686 -8.839755e-02 -0.1484 -14.552 1921.0461 6819.7593)" gradientUnits="userSpaceOnUse">
	<stop  offset="0" style="stop-color:#FFFFFF"/>
	<stop  offset="3.000000e-02" style="stop-color:#F2F2F2"/>
	<stop  offset="0.24" style="stop-color:#AAAAAA"/>
	<stop  offset="0.44" style="stop-color:#6D6D6D"/>
	<stop  offset="0.62" style="stop-color:#3E3E3E"/>
	<stop  offset="0.78" style="stop-color:#1C1C1C"/>
	<stop  offset="0.91" style="stop-color:#070707"/>
	<stop  offset="1" style="stop-color:#000000"/>
</radialGradient>
<path style="opacity:0.47;fill:url(#SVGID_00000163753073971445929500000016244889354315790762_);enable-background:new    ;" d="
	M65.2,40.7c0,7.8-1.3,14.1-3,14.1c-1.7,0-3.1-6.3-3.1-14c0-7.8,1.3-14.1,3-14.1C63.8,26.7,65.2,33,65.2,40.7z"/>
<radialGradient id="SVGID_00000027587439677635860370000008902400749420142223_" cx="-198.0928" cy="451.5805" r="1" gradientTransform="matrix(6.665 -6.796536e-02 -8.983798e-02 -8.81 1422.5383 4005.4365)" gradientUnits="userSpaceOnUse">
	<stop  offset="0" style="stop-color:#FFFFFF"/>
	<stop  offset="3.000000e-02" style="stop-color:#F2F2F2"/>
	<stop  offset="0.24" style="stop-color:#AAAAAA"/>
	<stop  offset="0.44" style="stop-color:#6D6D6D"/>
	<stop  offset="0.62" style="stop-color:#3E3E3E"/>
	<stop  offset="0.78" style="stop-color:#1C1C1C"/>
	<stop  offset="0.91" style="stop-color:#070707"/>
	<stop  offset="1" style="stop-color:#000000"/>
</radialGradient>
<path style="opacity:0.74;fill:url(#SVGID_00000027587439677635860370000008902400749420142223_);enable-background:new    ;" d="
	M62.3,39c0,4.7-0.3,8.6-0.6,8.6c-0.4,0-0.7-3.8-0.7-8.6c0-4.7,0.3-8.6,0.6-8.6C61.9,30.4,62.3,34.3,62.3,39z"/>
<path d="M72.5,70.4c-0.4,0.1-1.2,0.2-1.8,0c-2-0.7-4.3-1-6.8-1c-2.3,0-4.5,0.4-6.4,1l0,0c-1.1,0.4-2.1,0.3-2.6,0l-0.4-1.5
	c0-7.1,3.1-13.3,7.4-14.7c0.6-0.2,1.2-0.3,1.8-0.3c5.2,0,9.4,6.6,9.4,14.8l0,1.3L72.5,70.4L72.5,70.4z"/>
<path class="st14" d="M72.7,68.8c0,0.3,0,0.6,0,0.9c0,0.4-1.2,0.5-1.9,0.3c-1.9-0.7-4.3-1-6.9-1c-2.6,0-5,0.5-6.9,1.1
	c-0.7,0.2-1.9,0.1-1.9-0.3c0-0.3,0-0.6,0-0.9c0-8,3.9-14.4,8.8-14.5C68.7,54.4,72.7,60.8,72.7,68.8L72.7,68.8z"/>
<g>
	<g>
		<path d="M68.2,60l-8.4,0.1c-0.3,0-0.5-0.2-0.5-0.5c0-0.3,0.2-0.5,0.5-0.5l8.4-0.1c0.3,0,0.5,0.2,0.5,0.5
			C68.6,59.8,68.4,60,68.2,60z"/>
	</g>
	<g>
		<path class="st37" d="M68.2,60l-8.4,0.1c-0.3,0-0.5-0.2-0.5-0.5c0-0.3,0.2-0.5,0.5-0.5l8.4-0.1c0.3,0,0.5,0.2,0.5,0.5
			C68.6,59.8,68.4,60,68.2,60z"/>
	</g>
</g>
<g>
	<g>
		<path d="M68.2,60l-8.4,0.1c-0.3,0-0.5-0.2-0.5-0.5c0-0.3,0.2-0.5,0.5-0.5l8.4-0.1c0.3,0,0.5,0.2,0.5,0.5
			C68.6,59.8,68.4,60,68.2,60z"/>
	</g>
	<g>
		<path class="st37" d="M68.2,60l-8.4,0.1c-0.3,0-0.5-0.2-0.5-0.5c0-0.3,0.2-0.5,0.5-0.5l8.4-0.1c0.3,0,0.5,0.2,0.5,0.5
			C68.6,59.8,68.4,60,68.2,60z"/>
	</g>
</g>
<g>
	<g>
		<path d="M68.2,60l-8.4,0.1c-0.3,0-0.5-0.2-0.5-0.5c0-0.3,0.2-0.5,0.5-0.5l8.4-0.1c0.3,0,0.5,0.2,0.5,0.5
			C68.6,59.8,68.4,60,68.2,60z"/>
	</g>
	<g>
		<path class="st37" d="M68.2,60l-8.4,0.1c-0.3,0-0.5-0.2-0.5-0.5c0-0.3,0.2-0.5,0.5-0.5l8.4-0.1c0.3,0,0.5,0.2,0.5,0.5
			C68.6,59.8,68.4,60,68.2,60z"/>
	</g>
</g>
<g>
	<g>
		<path d="M69.3,63.2l-10.6,0.1c-0.3,0-0.5-0.2-0.5-0.5c0-0.3,0.2-0.5,0.5-0.5l10.6-0.1c0.3,0,0.5,0.2,0.5,0.5
			C69.8,63,69.5,63.2,69.3,63.2z"/>
	</g>
	<g>
		<path class="st37" d="M69.3,63.2l-10.6,0.1c-0.3,0-0.5-0.2-0.5-0.5c0-0.3,0.2-0.5,0.5-0.5l10.6-0.1c0.3,0,0.5,0.2,0.5,0.5
			C69.8,63,69.5,63.2,69.3,63.2z"/>
	</g>
</g>
<g>
	<g>
		<path d="M69.3,63.2l-10.6,0.1c-0.3,0-0.5-0.2-0.5-0.5c0-0.3,0.2-0.5,0.5-0.5l10.6-0.1c0.3,0,0.5,0.2,0.5,0.5
			C69.8,63,69.5,63.2,69.3,63.2z"/>
	</g>
	<g>
		<path class="st37" d="M69.3,63.2l-10.6,0.1c-0.3,0-0.5-0.2-0.5-0.5c0-0.3,0.2-0.5,0.5-0.5l10.6-0.1c0.3,0,0.5,0.2,0.5,0.5
			C69.8,63,69.5,63.2,69.3,63.2z"/>
	</g>
</g>
<g>
	<g>
		<path d="M69.3,63.2l-10.6,0.1c-0.3,0-0.5-0.2-0.5-0.5c0-0.3,0.2-0.5,0.5-0.5l10.6-0.1c0.3,0,0.5,0.2,0.5,0.5
			C69.8,63,69.5,63.2,69.3,63.2z"/>
	</g>
	<g>
		<path class="st37" d="M69.3,63.2l-10.6,0.1c-0.3,0-0.5-0.2-0.5-0.5c0-0.3,0.2-0.5,0.5-0.5l10.6-0.1c0.3,0,0.5,0.2,0.5,0.5
			C69.8,63,69.5,63.2,69.3,63.2z"/>
	</g>
</g>
<g>
	<g>
		<path d="M70,66.7l-11.9,0.1c-0.3,0-0.5-0.2-0.5-0.5c0-0.3,0.2-0.5,0.5-0.5L70,65.8c0.3,0,0.5,0.2,0.5,0.5
			C70.5,66.5,70.3,66.7,70,66.7z"/>
	</g>
	<g>
		<path class="st37" d="M70,66.7l-11.9,0.1c-0.3,0-0.5-0.2-0.5-0.5c0-0.3,0.2-0.5,0.5-0.5L70,65.8c0.3,0,0.5,0.2,0.5,0.5
			C70.5,66.5,70.3,66.7,70,66.7z"/>
	</g>
</g>
<g>
	<g>
		<path d="M70,66.7l-11.9,0.1c-0.3,0-0.5-0.2-0.5-0.5c0-0.3,0.2-0.5,0.5-0.5L70,65.8c0.3,0,0.5,0.2,0.5,0.5
			C70.5,66.5,70.3,66.7,70,66.7z"/>
	</g>
	<g>
		<path class="st37" d="M70,66.7l-11.9,0.1c-0.3,0-0.5-0.2-0.5-0.5c0-0.3,0.2-0.5,0.5-0.5L70,65.8c0.3,0,0.5,0.2,0.5,0.5
			C70.5,66.5,70.3,66.7,70,66.7z"/>
	</g>
</g>
<g>
	<g>
		<path d="M70,66.7l-11.9,0.1c-0.3,0-0.5-0.2-0.5-0.5c0-0.3,0.2-0.5,0.5-0.5L70,65.8c0.3,0,0.5,0.2,0.5,0.5
			C70.5,66.5,70.3,66.7,70,66.7z"/>
	</g>
	<g>
		<path class="st37" d="M70,66.7l-11.9,0.1c-0.3,0-0.5-0.2-0.5-0.5c0-0.3,0.2-0.5,0.5-0.5L70,65.8c0.3,0,0.5,0.2,0.5,0.5
			C70.5,66.5,70.3,66.7,70,66.7z"/>
	</g>
</g>
<g>
	<g>
		<g>
			<path d="M68.2,60l-8.4,0.1c-0.3,0-0.5-0.2-0.5-0.5c0-0.3,0.2-0.5,0.5-0.5l8.4-0.1c0.3,0,0.5,0.2,0.5,0.5
				C68.6,59.8,68.4,60,68.2,60z"/>
		</g>
		<g>
			<path class="st37" d="M68.2,60l-8.4,0.1c-0.3,0-0.5-0.2-0.5-0.5c0-0.3,0.2-0.5,0.5-0.5l8.4-0.1c0.3,0,0.5,0.2,0.5,0.5
				C68.6,59.8,68.4,60,68.2,60z"/>
		</g>
	</g>
	<g>
		<g>
			<path d="M68.2,60l-8.4,0.1c-0.3,0-0.5-0.2-0.5-0.5c0-0.3,0.2-0.5,0.5-0.5l8.4-0.1c0.3,0,0.5,0.2,0.5,0.5
				C68.6,59.8,68.4,60,68.2,60z"/>
		</g>
		<g>
			<path class="st37" d="M68.2,60l-8.4,0.1c-0.3,0-0.5-0.2-0.5-0.5c0-0.3,0.2-0.5,0.5-0.5l8.4-0.1c0.3,0,0.5,0.2,0.5,0.5
				C68.6,59.8,68.4,60,68.2,60z"/>
		</g>
	</g>
	<g>
		<g>
			<path d="M68.2,60l-8.4,0.1c-0.3,0-0.5-0.2-0.5-0.5c0-0.3,0.2-0.5,0.5-0.5l8.4-0.1c0.3,0,0.5,0.2,0.5,0.5
				C68.6,59.8,68.4,60,68.2,60z"/>
		</g>
		<g>
			<path class="st37" d="M68.2,60l-8.4,0.1c-0.3,0-0.5-0.2-0.5-0.5c0-0.3,0.2-0.5,0.5-0.5l8.4-0.1c0.3,0,0.5,0.2,0.5,0.5
				C68.6,59.8,68.4,60,68.2,60z"/>
		</g>
	</g>
	<g>
		<g>
			<path d="M69.3,63.2l-10.6,0.1c-0.3,0-0.5-0.2-0.5-0.5c0-0.3,0.2-0.5,0.5-0.5l10.6-0.1c0.3,0,0.5,0.2,0.5,0.5
				C69.8,63,69.5,63.2,69.3,63.2z"/>
		</g>
		<g>
			<path class="st37" d="M69.3,63.2l-10.6,0.1c-0.3,0-0.5-0.2-0.5-0.5c0-0.3,0.2-0.5,0.5-0.5l10.6-0.1c0.3,0,0.5,0.2,0.5,0.5
				C69.8,63,69.5,63.2,69.3,63.2z"/>
		</g>
	</g>
	<g>
		<g>
			<path d="M69.3,63.2l-10.6,0.1c-0.3,0-0.5-0.2-0.5-0.5c0-0.3,0.2-0.5,0.5-0.5l10.6-0.1c0.3,0,0.5,0.2,0.5,0.5
				C69.8,63,69.5,63.2,69.3,63.2z"/>
		</g>
		<g>
			<path class="st37" d="M69.3,63.2l-10.6,0.1c-0.3,0-0.5-0.2-0.5-0.5c0-0.3,0.2-0.5,0.5-0.5l10.6-0.1c0.3,0,0.5,0.2,0.5,0.5
				C69.8,63,69.5,63.2,69.3,63.2z"/>
		</g>
	</g>
	<g>
		<g>
			<path d="M69.3,63.2l-10.6,0.1c-0.3,0-0.5-0.2-0.5-0.5c0-0.3,0.2-0.5,0.5-0.5l10.6-0.1c0.3,0,0.5,0.2,0.5,0.5
				C69.8,63,69.5,63.2,69.3,63.2z"/>
		</g>
		<g>
			<path class="st37" d="M69.3,63.2l-10.6,0.1c-0.3,0-0.5-0.2-0.5-0.5c0-0.3,0.2-0.5,0.5-0.5l10.6-0.1c0.3,0,0.5,0.2,0.5,0.5
				C69.8,63,69.5,63.2,69.3,63.2z"/>
		</g>
	</g>
	<g>
		<g>
			<path d="M70,66.7l-11.9,0.1c-0.3,0-0.5-0.2-0.5-0.5c0-0.3,0.2-0.5,0.5-0.5L70,65.8c0.3,0,0.5,0.2,0.5,0.5
				C70.5,66.5,70.3,66.7,70,66.7z"/>
		</g>
		<g>
			<path class="st37" d="M70,66.7l-11.9,0.1c-0.3,0-0.5-0.2-0.5-0.5c0-0.3,0.2-0.5,0.5-0.5L70,65.8c0.3,0,0.5,0.2,0.5,0.5
				C70.5,66.5,70.3,66.7,70,66.7z"/>
		</g>
	</g>
	<g>
		<g>
			<path d="M70,66.7l-11.9,0.1c-0.3,0-0.5-0.2-0.5-0.5c0-0.3,0.2-0.5,0.5-0.5L70,65.8c0.3,0,0.5,0.2,0.5,0.5
				C70.5,66.5,70.3,66.7,70,66.7z"/>
		</g>
		<g>
			<path class="st37" d="M70,66.7l-11.9,0.1c-0.3,0-0.5-0.2-0.5-0.5c0-0.3,0.2-0.5,0.5-0.5L70,65.8c0.3,0,0.5,0.2,0.5,0.5
				C70.5,66.5,70.3,66.7,70,66.7z"/>
		</g>
	</g>
	<g>
		<g>
			<path d="M70,66.7l-11.9,0.1c-0.3,0-0.5-0.2-0.5-0.5c0-0.3,0.2-0.5,0.5-0.5L70,65.8c0.3,0,0.5,0.2,0.5,0.5
				C70.5,66.5,70.3,66.7,70,66.7z"/>
		</g>
		<g>
			<path class="st37" d="M70,66.7l-11.9,0.1c-0.3,0-0.5-0.2-0.5-0.5c0-0.3,0.2-0.5,0.5-0.5L70,65.8c0.3,0,0.5,0.2,0.5,0.5
				C70.5,66.5,70.3,66.7,70,66.7z"/>
		</g>
	</g>
</g>
<path d="M72.9,87.2c-2.6,0.8-5.7,1.3-9,1.3c-8.5,0.1-15.2-2.7-15.2-6.4c0-2.2,2.2-4.1,6.1-5.4c2.6-0.8,5.7-1.3,9-1.3
	c4,0,7.7,0.6,10.6,1.7c3,1.2,4.6,2.9,4.6,4.7C79,84,76.8,85.9,72.9,87.2L72.9,87.2z"/>
<radialGradient id="SVGID_00000044896265621385756640000011973096779469310373_" cx="-220.4122" cy="466.005" r="1" gradientTransform="matrix(17.2237 -0.1756 -0.1415 -13.8756 3923.1472 6498.8574)" gradientUnits="userSpaceOnUse">
	<stop  offset="0" style="stop-color:#FFFFFF"/>
	<stop  offset="0.24" style="stop-color:#D8D8D8"/>
	<stop  offset="0.47" style="stop-color:#B9B9B9"/>
	<stop  offset="0.59" style="stop-color:#AEAEAE"/>
	<stop  offset="1" style="stop-color:#AEAEAE"/>
</radialGradient>
<path style="fill:url(#SVGID_00000044896265621385756640000011973096779469310373_);" d="M78.5,81.8c0,3.4-6.5,6.1-14.6,6.2
	c-8.1,0.1-14.7-2.6-14.7-5.9c0-3.4,6.5-6.1,14.6-6.2C71.9,75.8,78.5,78.5,78.5,81.8z"/>
<path d="M60.1,78.8c-1.6,0.2-3,0.6-4.3,1l0.9,1.1c1-0.3,2.2-0.6,3.4-0.7L60.1,78.8L60.1,78.8z"/>
<path d="M67.7,78.7l0,1.4c1.2,0.1,2.4,0.4,3.4,0.7l0.8-1.2C70.8,79.1,69.3,78.8,67.7,78.7L67.7,78.7z"/>
<path d="M66.2,78.5c-0.7,0-1.5-0.1-2.2-0.1c-0.8,0-1.6,0-2.3,0.1l0.2,1.4c0.7-0.1,1.4-0.1,2.2-0.1c0.7,0,1.4,0,2,0L66.2,78.5z"/>
<path d="M72.7,85.2c-0.7,1.1-4.5,1.9-8.8,1.9c-4.2,0-8.1-0.7-8.8-1.8c-0.8-1.3,3.1-2.5,8.8-2.6C69.6,82.7,73.5,83.9,72.7,85.2
	L72.7,85.2z"/>
<g class="st42">
	<path d="M64,86.6c4.7,0,8.3-0.8,8.8-1.9c0.6,1.7-3.3,2.8-8.8,2.9c-5.5,0.1-9.6-1-8.9-2.7C55.6,86,59.3,86.6,64,86.6z"/>
</g>
<path class="st17" d="M75.8,94.7c0-7-5.4-11-11.9-10.9c-6.5,0.1-11.8,4.2-11.8,11.2c0,2.9,3.6,15.9,3.6,15.9l0-5.5l2.4,15.2
	c0,0-0.3-8.6,0.6-10.2c-0.9,3.7,1.3,12.5,2.9,20.9l0.4-6.7l2.4,14.8l6.6-24.3l-1.1,9.1l3.9-22.5l-0.9,11.1
	C72.9,112.7,75.8,95.2,75.8,94.7z"/>
<path class="st18" d="M74.5,92.7c0-4.7-4.8-8.5-10.6-8.5c-5.8,0.1-10.5,3.9-10.5,8.7c0,2,3.2,10.7,3.2,10.7l0-3.7l2.1,10.3
	c0,0-0.3-5.8,0.5-6.9c-0.8,2.5,1.2,8.5,2.6,14.1l0.4-4.5l2.1,10l5.9-16.4l-1,6.2l3.5-15.2l-0.8,7.5C71.9,104.9,74.5,93.1,74.5,92.7
	L74.5,92.7z"/>
<path class="st19" d="M73.1,89.1c0-3-4.1-5.5-9.2-5.4c-5.1,0.1-9.2,2.6-9.2,5.6c0,1.3,2.8,6.9,2.8,6.9l0-2.4l1.8,6.6
	c0,0-0.2-3.8,0.4-4.4c-0.7,1.6,1,5.4,2.2,9.1l0.3-2.9l1.8,6.4L69.3,98l-0.9,4l3.1-9.8L70.8,97C70.8,97,73.1,89.4,73.1,89.1z"/>
<radialGradient id="SVGID_00000153676332567020334640000015208392046718592444_" cx="-248.3989" cy="476.1794" r="1" gradientTransform="matrix(-0.9239 -25.4774 -15.6496 0.5675 7286.7056 -6543.9126)" gradientUnits="userSpaceOnUse">
	<stop  offset="0" style="stop-color:#FFFFFF"/>
	<stop  offset="1" style="stop-color:#231F20"/>
</radialGradient>
<path style="fill:url(#SVGID_00000153676332567020334640000015208392046718592444_);" d="M75.8,94.7c0-7-5.4-11-11.9-10.9
	c-6.5,0.1-11.8,4.2-11.8,11.2c0,2.9,3.6,15.9,3.6,15.9l0-5.5l2.4,15.2c0,0-0.3-8.6,0.6-10.2c-0.9,3.7,1.3,12.5,2.9,20.9l0.4-6.7
	l2.4,14.8l6.6-24.3l-1.1,9.1l3.9-22.5l-0.9,11.1C72.9,112.7,75.8,95.2,75.8,94.7z"/>
<g>
	
		<radialGradient id="SVGID_00000138532221049358719830000010597925812386771625_" cx="-248.3989" cy="476.1794" r="1" gradientTransform="matrix(-0.9239 -25.4774 -15.6496 0.5675 7286.7056 -6543.9126)" gradientUnits="userSpaceOnUse">
		<stop  offset="0" style="stop-color:#FFFFFF"/>
		<stop  offset="1" style="stop-color:#231F20"/>
	</radialGradient>
	<path style="fill:url(#SVGID_00000138532221049358719830000010597925812386771625_);" d="M75.8,94.7c0-7-5.4-11-11.9-10.9
		c-6.5,0.1-11.8,4.2-11.8,11.2c0,2.9,3.6,15.9,3.6,15.9l0-5.5l2.4,15.2c0,0-0.3-8.6,0.6-10.2c-0.9,3.7,1.3,12.5,2.9,20.9l0.4-6.7
		l2.4,14.8l6.6-24.3l-1.1,9.1l3.9-22.5l-0.9,11.1C72.9,112.7,75.8,95.2,75.8,94.7z"/>
</g>
</svg>
