<?xml version="1.0" encoding="utf-8"?>
<!-- Generator: Adobe Illustrator 26.0.1, SVG Export Plug-In . SVG Version: 6.00 Build 0)  -->
<svg version="1.1" id="Слой_1" xmlns="http://www.w3.org/2000/svg" xmlns:xlink="http://www.w3.org/1999/xlink" x="0px" y="0px"
	 viewBox="0 0 162.8 154.7" style="enable-background:new 0 0 162.8 154.7;" xml:space="preserve">
<style type="text/css">
	.st0{fill:url(#SVGID_1_);}
	.st1{fill:url(#SVGID_00000138533487532942237370000004017417105275465612_);}
	.st2{fill:#84009E;}
	.st3{opacity:0.29;fill:url(#SVGID_00000088849888257413899620000001548190769948292533_);enable-background:new    ;}
	.st4{opacity:0.29;fill:url(#SVGID_00000069395200201795483370000002470831642313228455_);enable-background:new    ;}
	.st5{opacity:0.69;fill:url(#SVGID_00000110450443475277083510000011428859015129469106_);enable-background:new    ;}
	.st6{opacity:0.22;enable-background:new    ;}
	.st7{opacity:0.61;}
	.st8{fill:#FFFFFF;}
	.st9{fill:url(#SVGID_00000016771558454403141190000007585293277306150334_);}
	.st10{opacity:0.45;}
	.st11{fill:#020202;}
	.st12{opacity:0.43;}
	.st13{opacity:0.2;}
	.st14{fill:url(#SVGID_00000133507447364501904430000016677983150880039077_);}
	.st15{opacity:0.72;}
	.st16{opacity:0.6;}
	.st17{opacity:0.29;fill:url(#SVGID_00000183214200730283632950000014421828687989929604_);enable-background:new    ;}
	.st18{opacity:0.34;fill:url(#SVGID_00000170987691956450564090000014522621807035602602_);enable-background:new    ;}
	.st19{opacity:0.34;}
	.st20{fill:url(#SVGID_00000029726111297085176050000012308814426663146428_);}
	.st21{opacity:0.91;fill:url(#SVGID_00000088125804498295100100000013884261853733096374_);enable-background:new    ;}
	.st22{opacity:0.91;}
	.st23{fill:url(#SVGID_00000122696021381428672470000002872378037286547899_);}
	.st24{fill:url(#SVGID_00000030477222385713713700000016235258909355958445_);}
	.st25{fill:url(#SVGID_00000061443183869801931210000009465259312789983117_);}
	.st26{fill:url(#SVGID_00000137124498039217878750000008162791278865419145_);}
	.st27{fill:url(#SVGID_00000091725229584867546960000013620398908977511056_);}
	.st28{fill:url(#SVGID_00000150078128346805635170000015055137007167247544_);}
	.st29{fill:url(#SVGID_00000142894652346663196850000013619332638665607837_);}
	.st30{opacity:0.29;fill:url(#SVGID_00000039842841098503502100000004532117243102681229_);enable-background:new    ;}
	.st31{opacity:0.29;fill:url(#SVGID_00000036224673281878916660000009503453233404890004_);enable-background:new    ;}
	.st32{opacity:0.69;fill:url(#SVGID_00000080925774022953747330000015619117687458207637_);enable-background:new    ;}
	.st33{fill:url(#SVGID_00000126308289660295214940000003390351268960792200_);}
	.st34{fill:url(#SVGID_00000166654523590988564860000005641687328263990679_);}
	.st35{fill:url(#SVGID_00000088827743681514362190000018021429335523022005_);}
	.st36{fill:url(#SVGID_00000073706216852804158820000015462846567930701984_);}
	.st37{fill:#870000;}
	.st38{opacity:0.68;fill:url(#SVGID_00000174585730289581822480000011630114968172324280_);enable-background:new    ;}
	.st39{opacity:0.49;fill:url(#SVGID_00000057133860422473912010000015958137627326631098_);enable-background:new    ;}
	.st40{opacity:0.2;enable-background:new    ;}
	.st41{opacity:0.46;fill:url(#SVGID_00000150817762759956198210000003608152703106679469_);enable-background:new    ;}
	.st42{opacity:0.76;fill:url(#SVGID_00000053539784289479838590000011118146752518270598_);enable-background:new    ;}
	.st43{fill:url(#SVGID_00000160185973272895311130000018209204099718168221_);}
	.st44{opacity:0.29;fill:url(#SVGID_00000029735965684734263320000016048682017930745789_);enable-background:new    ;}
	.st45{opacity:0.34;fill:url(#SVGID_00000123424010537922270420000006549750325083579554_);enable-background:new    ;}
	.st46{fill:url(#SVGID_00000170270093593829359660000016347637377966718343_);}
	.st47{opacity:0.91;fill:url(#SVGID_00000087384385322448320700000005689424774357779866_);enable-background:new    ;}
	.st48{fill:url(#SVGID_00000155832335866042723040000012813437042839879612_);}
	.st49{fill:url(#SVGID_00000105387437332170042490000000128435582711232662_);}
	.st50{fill:url(#SVGID_00000003787968637951155110000008463441345017488032_);}
	.st51{fill:url(#SVGID_00000183935117589975713000000012228627307523887531_);}
	.st52{fill:url(#SVGID_00000167367394829056652370000006177931674109895813_);}
</style>
<path d="M30.8,88.5c-2-0.8-3.6-3.2-4.9-6.8c-1.2-3.5-1.9-7.9-1.9-12.4c0-5.1,0.8-9.9,2.2-13.5c1.5-3.9,3.7-6,6-6
	c0.5,0,1.1,0.1,1.6,0.3c2,0.8,3.6,3.2,4.9,6.8c1.2,3.5,1.9,7.9,1.9,12.4c0,5.1-0.8,9.9-2.2,13.5c-1.5,3.9-3.7,6-6,6
	C31.9,88.8,31.4,88.7,30.8,88.5L30.8,88.5z"/>
<radialGradient id="SVGID_1_" cx="-201.2214" cy="487.5764" r="1" gradientTransform="matrix(22.7377 -9.113426e-02 -9.116352e-02 -22.745 4651.0244 11120.623)" gradientUnits="userSpaceOnUse">
	<stop  offset="0" style="stop-color:#F5F8FB"/>
	<stop  offset="2.000000e-02" style="stop-color:#C7DBEB"/>
	<stop  offset="4.000000e-02" style="stop-color:#9CBFDB"/>
	<stop  offset="6.000000e-02" style="stop-color:#77A6CD"/>
	<stop  offset="8.000000e-02" style="stop-color:#5691C2"/>
	<stop  offset="0.1" style="stop-color:#3B7FB8"/>
	<stop  offset="0.13" style="stop-color:#2571B0"/>
	<stop  offset="0.16" style="stop-color:#1466AA"/>
	<stop  offset="0.2" style="stop-color:#085EA6"/>
	<stop  offset="0.25" style="stop-color:#015AA3"/>
	<stop  offset="0.4" style="stop-color:#0059A3"/>
	<stop  offset="0.69" style="stop-color:#002A4D"/>
	<stop  offset="0.9" style="stop-color:#000B15"/>
	<stop  offset="1" style="stop-color:#000000"/>
</radialGradient>
<path class="st0" d="M32.4,88.1c4.1,0,7.4-8.4,7.4-18.8c0-10.3-3.4-18.7-7.5-18.7c-4.1,0-7.4,8.4-7.4,18.8
	C24.9,79.7,28.3,88.1,32.4,88.1z"/>
<radialGradient id="SVGID_00000134967273582131896480000011408499355266103432_" cx="-199.4232" cy="489.394" r="1" gradientTransform="matrix(18.7524 -7.843592e-02 -0.1092 -26.1007 3824.6016 12814.1914)" gradientUnits="userSpaceOnUse">
	<stop  offset="0" style="stop-color:#FDFAF3"/>
	<stop  offset="8.000000e-02" style="stop-color:#F4E0AA"/>
	<stop  offset="0.14" style="stop-color:#ECCA6D"/>
	<stop  offset="0.2" style="stop-color:#E6B93E"/>
	<stop  offset="0.25" style="stop-color:#E2AD1C"/>
	<stop  offset="0.29" style="stop-color:#DFA507"/>
	<stop  offset="0.32" style="stop-color:#DFA300"/>
	<stop  offset="0.4" style="stop-color:#DF7400"/>
	<stop  offset="0.5" style="stop-color:#E03C00"/>
	<stop  offset="0.55" style="stop-color:#E12700"/>
	<stop  offset="0.65" style="stop-color:#A61C00"/>
	<stop  offset="0.82" style="stop-color:#4D0D00"/>
	<stop  offset="0.94" style="stop-color:#150300"/>
	<stop  offset="1" style="stop-color:#000000"/>
</radialGradient>
<path style="fill:url(#SVGID_00000134967273582131896480000011408499355266103432_);" d="M51.1,56.5c0.1,14.4-8.3,26.1-18.7,26.2
	c-10.4,0-18.8-11.6-18.9-26c-0.1-14.4,8.3-26.1,18.7-26.2C42.6,30.4,51,42.1,51.1,56.5z"/>
<path d="M29.8,95.8c-3.7-1.6-7.2-5.2-9.8-10.2c-2.7-5.2-4.3-11.5-4.5-17.8l0,0c0-0.1,0-0.3,0-0.9c0-0.1,0-0.3,0-0.3
	c-0.1-1.1,0.3-2.2,1.2-3.2c2.3-2.5,8.1-4.1,15.3-4.1c4.9,0,9.3,0.7,12.3,1.9c3.8,1.6,4.5,3.7,4.4,5.2c0,0,0,0.2,0,0.3c0,0,0,0,0,0.1
	l0,0l-0.1,0.9c-1.3,18.4-6.2,25.1-10.1,27.6C35.8,96.9,32.8,97.1,29.8,95.8z"/>
<path class="st2" d="M47.8,66.4c0.3-3.9-6.8-6.3-15.9-6.3c-9,0-16,2.5-15.7,6.4c0,0.1,0,1,0.1,1.2l0,0.1
	c0.7,27.6,28.3,46.1,31.5-0.1l0,0C47.7,67.5,47.8,66.6,47.8,66.4L47.8,66.4z"/>
<radialGradient id="SVGID_00000051382678741911730010000007691566008644403633_" cx="-206.4032" cy="496.2258" r="1" gradientTransform="matrix(58.511 -0.2345 -0.2346 -58.5297 12211.4521 29061.3633)" gradientUnits="userSpaceOnUse">
	<stop  offset="0" style="stop-color:#FFFFFF"/>
	<stop  offset="0.14" style="stop-color:#E1E1E1"/>
	<stop  offset="0.45" style="stop-color:#949494"/>
	<stop  offset="0.9" style="stop-color:#1B1B1B"/>
	<stop  offset="1" style="stop-color:#000000"/>
</radialGradient>
<path style="opacity:0.29;fill:url(#SVGID_00000051382678741911730010000007691566008644403633_);enable-background:new    ;" d="
	M47.8,66.4c0.3-3.9-6.8-6.3-15.9-6.3c-9,0-16,2.5-15.7,6.4c0,0.1,0,1,0.1,1.2l0,0.1c0.7,27.6,28.3,46.1,31.5-0.1l0,0
	C47.7,67.5,47.8,66.6,47.8,66.4L47.8,66.4z"/>
<path d="M15.8,71.2c-0.2-1.6-0.3-3-0.4-4.2c0,0,0-0.2,0-0.8l0-0.3c-0.1-1,0.3-1.8,1-2.7c2.2-2.4,8.1-3.9,15.6-3.9
	c5.3,0,9.8,0.7,12.8,2c3.4,1.4,3.9,3.2,3.8,4.5l0,0.3l0,0l0,0.8l-0.5,6.6l-1.3-2.1c-0.4-0.7-1.3-1.3-2.6-1.9
	c-2.8-1.2-7.2-1.8-12.2-1.8c-7.4,0-13.4,1.6-14.7,3.8l-1.2,2L15.8,71.2L15.8,71.2z"/>
<path class="st2" d="M16.2,66.9L16.2,66.9c0.1,1.2,0.2,2.6,0.4,4.2c1.6-2.6,7.8-4.2,15.4-4.2c7.7,0,13.9,1.5,15.5,4.1l0.3-4.2l0,0
	c0-0.1,0-1,0.1-1.1c0.3-3.5-6.8-5.6-15.9-5.6c-9,0-16.1,2.2-15.8,5.7C16.1,66,16.1,66.8,16.2,66.9L16.2,66.9z"/>
<radialGradient id="SVGID_00000085929499243356112170000014159923076032268735_" cx="-206.567" cy="495.3057" r="1" gradientTransform="matrix(61.5737 -0.2468 -0.201 -50.1386 12850.9326 24837.5605)" gradientUnits="userSpaceOnUse">
	<stop  offset="0" style="stop-color:#FFFFFF"/>
	<stop  offset="0.14" style="stop-color:#E1E1E1"/>
	<stop  offset="0.45" style="stop-color:#949494"/>
	<stop  offset="0.9" style="stop-color:#1B1B1B"/>
	<stop  offset="1" style="stop-color:#000000"/>
</radialGradient>
<path style="opacity:0.29;fill:url(#SVGID_00000085929499243356112170000014159923076032268735_);enable-background:new    ;" d="
	M16.2,66.9L16.2,66.9c0.1,1.2,0.2,2.6,0.4,4.2c1.6-2.6,7.8-4.2,15.4-4.2c7.7,0,13.9,1.5,15.5,4.1l0.3-4.2l0,0c0-0.1,0-1,0.1-1.1
	c0.3-3.5-6.8-5.6-15.9-5.6c-9,0-16.1,2.2-15.8,5.7C16.1,66,16.1,66.8,16.2,66.9L16.2,66.9z"/>
<radialGradient id="SVGID_00000032617275857136535020000015309156827629169076_" cx="-138.9244" cy="485.4482" r="1" gradientTransform="matrix(2.723 -1.091370e-02 -7.924174e-02 -19.7707 463.0716 9656.5283)" gradientUnits="userSpaceOnUse">
	<stop  offset="0" style="stop-color:#FFFFFF"/>
	<stop  offset="0.13" style="stop-color:#E1E1E1"/>
	<stop  offset="0.42" style="stop-color:#949494"/>
	<stop  offset="0.84" style="stop-color:#1B1B1B"/>
	<stop  offset="0.93" style="stop-color:#000000"/>
</radialGradient>
<path style="opacity:0.69;fill:url(#SVGID_00000032617275857136535020000015309156827629169076_);enable-background:new    ;" d="
	M29.3,66.5c-0.1,4-0.2,8.4-0.2,12.4c0,7.1-0.4,11.4-1,13.9c-1-0.5-2-1.1-3-1.8c-0.3-3,0.4-5.8,0.4-11.9c0-3.5-0.7-8.8-0.5-12.2
	c0.1-2.4,0.3-4.7,0.5-6.8l0,0c1.2-0.1,2.4-0.2,3.7-0.3l0,0C29.3,61.8,29.3,64.1,29.3,66.5L29.3,66.5z"/>
<path class="st6" d="M39.7,92.2c-9.3,8.9-23-6-23.6-25.4l0-0.1c0-0.1,0-1-0.1-1.2c-0.1-1.2,0.5-2.3,1.6-3.2c0,0.1,0,0.1,0,0.1l0,0.1
	C18.2,82.9,30.5,98.7,39.7,92.2L39.7,92.2z"/>
<path class="st6" d="M48.2,66.6L48.2,66.6c-2.5,37.1-20.8,32.5-28.3,15C28.4,93.2,44,91.8,42,60.6c2.4,1.1,6.3,3.1,6.2,4.8
	C48.2,65.5,48.2,66.5,48.2,66.6L48.2,66.6z"/>
<g class="st7">
	<g>
		<path class="st8" d="M21.1,61.5c0.1,0,9.5-3.7,19.7-0.5C29.9,58.8,21.2,61.5,21.1,61.5z"/>
	</g>
</g>
<g class="st7">
	<g>
		<path class="st8" d="M21.2,69.1c0.1,0,8.9-2.7,19.9-0.6C30.4,67.2,21.3,69,21.2,69.1z"/>
	</g>
</g>
<path d="M2.2,110.3c-1.3-0.5-2.1-1.8-2.1-3.2L0,90.3c0-2.4,1.6-4.5,3.9-5.1l7.4-1.9c31-8.1,48.5-26.1,52.5-54.2
	c0.9-6.5,2-13.8,3.3-22.3c0.3-2.1,1.7-3.8,3.7-4.6l5.3-2.1c0.5-0.2,1.1-0.2,1.6,0c0.8,0.3,1.3,1.1,1.3,2l0.5,127.4l-0.7,0.1
	c-6.9,0.9-11,0.8-13.4-0.2c-2.1-0.9-2.7-2.3-3.2-3.8c-0.6-1.6-1.3-3.1-4.1-4.3c-2.5-1-6.2-1.7-11.3-1.9l-0.8,0l0.2-15l-9.4-0.1
	c-1.6,0-2.9,1-3.4,2.5l-0.3,0.8c-0.6,1.7-2.1,2.8-3.9,2.8l-25.7,0.1C3,110.6,2.6,110.5,2.2,110.3L2.2,110.3z"/>
<path class="st2" d="M3.5,109.8l25.7-0.1c1.4,0,2.7-0.9,3.1-2.3l0.3-0.8c0.6-1.8,2.3-3,4.2-3l10.2,0.1l-0.2,15
	c27.6,1.1,4.8,13.6,31.9,10.2L78.2,2.2c0-0.9-0.9-1.6-1.8-1.2L71.2,3c-1.7,0.7-2.9,2.2-3.2,4C57.1,75,66.4,69.7,4.1,86
	c-2,0.5-3.3,2.3-3.3,4.3l0.1,16.8C0.9,108.6,2.1,109.8,3.5,109.8z"/>
<radialGradient id="SVGID_00000058579338946139179640000007490069803508260490_" cx="-208.9021" cy="500.6357" r="1" gradientTransform="matrix(242.502 -0.972 -1.1857 -295.8296 51215.168 147876.2031)" gradientUnits="userSpaceOnUse">
	<stop  offset="0" style="stop-color:#FFFFFF"/>
	<stop  offset="9.000000e-02" style="stop-color:#F7F7F7"/>
	<stop  offset="0.22" style="stop-color:#E4E4E4"/>
	<stop  offset="0.37" style="stop-color:#C4C4C4"/>
	<stop  offset="0.54" style="stop-color:#979797"/>
	<stop  offset="0.73" style="stop-color:#5E5E5E"/>
	<stop  offset="0.93" style="stop-color:#1A1A1A"/>
	<stop  offset="1" style="stop-color:#000000"/>
</radialGradient>
<path style="fill:url(#SVGID_00000058579338946139179640000007490069803508260490_);" d="M3.5,109.8l25.7-0.1c1.4,0,2.7-0.9,3.1-2.3
	l0.3-0.8c0.6-1.8,2.3-3,4.2-3l10.2,0.1l-0.2,15c27.6,1.1,4.8,13.6,31.9,10.2L78.2,2.2c0-0.9-0.9-1.6-1.8-1.2L71.2,3
	c-1.7,0.7-2.9,2.2-3.2,4C57.1,75,66.4,69.7,4.1,86c-2,0.5-3.3,2.3-3.3,4.3l0.1,16.8C0.9,108.6,2.1,109.8,3.5,109.8z"/>
<g class="st10">
	<path class="st11" d="M78.2,2.2l0.5,126.7c-27.7,3.4-4.8-8.9-31.9-10.1l-0.1-2.4c28.6,1.5,6.7,13.1,30.7,10.2L77,0.8
		C77.7,0.9,78.2,1.4,78.2,2.2z"/>
</g>
<g class="st12">
	<path class="st11" d="M35.5,101.3l10.2,0.1l0,2.2l-8.9-0.1c-1.9,0-3.6,1.2-4.2,3l-0.3,0.8c-0.4,1.4-1.7,2.3-3.1,2.3l-25.7,0.1
		c-1.3,0-2.3-0.9-2.6-2.1c0.5,0,1-0.2,1.3-0.2l25.7-0.1c1.4,0,2.7-0.9,3.2-2.3l0.3-0.8C31.9,102.5,33.6,101.3,35.5,101.3L35.5,101.3
		z"/>
</g>
<g class="st13">
	<path class="st8" d="M75.4,3.4c-2.8,0.8-5.8,2.8-6.1,5.7C63,77.6,67.7,71.8,5.4,88.1c-2,0.5-3.3,2.3-3.3,4.3l0,12.8
		c0.1,1.3-1,2.5-1.3,0L0.8,90.2c0-2,1.4-3.8,3.3-4.3C66.5,69.5,57.1,74.8,68,6.8c0.3-1.8,1.5-3.3,3.2-4l5.6-2
		C75.9,2.3,75.4,3.4,75.4,3.4z"/>
</g>
<path d="M26,106.9c-1.2-0.5-2-1.7-2-3c0-1.8,1.5-3.3,3.3-3.3c0.5,0,0.9,0.1,1.3,0.3c1.2,0.5,2,1.7,2,3c0,1.8-1.5,3.3-3.3,3.3
	C26.9,107.2,26.4,107.1,26,106.9z"/>
<path class="st2" d="M29.8,103.9c0,1.4-1.1,2.5-2.5,2.5c-1.4,0-2.5-1.1-2.5-2.5c0-1.4,1.1-2.5,2.5-2.5
	C28.7,101.4,29.8,102.5,29.8,103.9z"/>
<radialGradient id="SVGID_00000047032426732376782990000013746269286590988453_" cx="-198.0155" cy="481.7376" r="1" gradientTransform="matrix(16.4974 -6.611446e-02 -6.452227e-02 -16.1001 3324.7046 7838.7959)" gradientUnits="userSpaceOnUse">
	<stop  offset="0" style="stop-color:#FFFFFF"/>
	<stop  offset="9.000000e-02" style="stop-color:#F7F7F7"/>
	<stop  offset="0.22" style="stop-color:#E4E4E4"/>
	<stop  offset="0.37" style="stop-color:#C4C4C4"/>
	<stop  offset="0.54" style="stop-color:#979797"/>
	<stop  offset="0.73" style="stop-color:#5E5E5E"/>
	<stop  offset="0.93" style="stop-color:#1A1A1A"/>
	<stop  offset="1" style="stop-color:#000000"/>
</radialGradient>
<path style="fill:url(#SVGID_00000047032426732376782990000013746269286590988453_);" d="M29.8,103.9c0,1.4-1.1,2.5-2.5,2.5
	c-1.4,0-2.5-1.1-2.5-2.5c0-1.4,1.1-2.5,2.5-2.5C28.7,101.4,29.8,102.5,29.8,103.9z"/>
<g class="st15">
	<g>
		<path class="st8" d="M29.6,102.9c0,0.1,0.1,0.1,0.1,0.2c-0.6-1.2-2-1.7-3.2-1.2c-1.2,0.5-1.8,1.9-1.4,3.1c0-0.1-0.1-0.1-0.1-0.2
			c-0.5-1.3,0.1-2.8,1.4-3.3C27.6,101,29.1,101.6,29.6,102.9L29.6,102.9z"/>
	</g>
</g>
<g class="st16">
	<path class="st8" d="M49.4,72.9c0.1,0.2-7.1,3.8-17.2,6.9c-10.1,3.1-19.2,4.6-19.2,4.4c-0.1-0.2,9-2,19-5.1
		C42.1,76,49.4,72.7,49.4,72.9L49.4,72.9z"/>
</g>
<g class="st16">
	<path class="st8" d="M68.5,7.9c0.2,0-0.4,9.6-2.1,22s-3.9,22.9-4.1,22.9s1.6-10.6,3.3-23C67.3,17.3,68.3,7.8,68.5,7.9L68.5,7.9z"/>
</g>
<path class="st6" d="M61.4,114.5c0,2.8,0,5.5-0.1,8c-1.7-1.9-5.3-3.5-14.5-3.9l0.2-15l-1.8,0c1.3-12.2,4.7-20.9,8.8-21
	C59.3,82.7,61.4,97,61.4,114.5L61.4,114.5z"/>
<path d="M43,127.6c-0.7-0.3-1.4-0.8-1.9-1.3c-0.4-0.4-0.7-0.9-1-1.5c-0.7-1.4-1-3.3-1-5.8C39,99.9,42.6,80.6,49.5,80.6
	c1.3,0,2.4,0.2,3.3,0.6c6.1,2.6,6.2,13.3,6.3,36.8l0,3c0,3.6,0.1,5.2-0.7,6.3c-0.3,0.4-0.6,0.6-1.1,0.8c-0.9,0.3-2.1,0.2-3.8,0.2
	c-0.9,0-1.9-0.1-3.1-0.1c-0.6,0-1.2,0-1.8,0C46.7,128.2,44.7,128.3,43,127.6L43,127.6z"/>
<path class="st2" d="M57.8,126.8c-0.2,0.3-0.4,0.4-0.8,0.5h0c-1.1,0.4-3.1,0.1-6.6,0c-3.1,0-6.6,0.6-8.7-1.6
	c-0.3-0.4-0.6-0.8-0.9-1.3c-0.6-1.2-0.9-3-0.9-5.4c-0.1-20.7,3.9-37.6,9.5-37.6c8.7,0,8.7,10.2,8.9,37.5
	C58.3,123.6,58.5,125.8,57.8,126.8L57.8,126.8z"/>
<radialGradient id="SVGID_00000047026682388083989350000001207025282709388172_" cx="-198.0917" cy="491.9247" r="1" gradientTransform="matrix(16.6057 -6.655660e-02 -0.1316 -32.8385 3405.7407 16234.3037)" gradientUnits="userSpaceOnUse">
	<stop  offset="0" style="stop-color:#FFFFFF"/>
	<stop  offset="0.14" style="stop-color:#E1E1E1"/>
	<stop  offset="0.45" style="stop-color:#949494"/>
	<stop  offset="0.9" style="stop-color:#1B1B1B"/>
	<stop  offset="1" style="stop-color:#000000"/>
</radialGradient>
<path style="opacity:0.29;fill:url(#SVGID_00000047026682388083989350000001207025282709388172_);enable-background:new    ;" d="
	M57.8,126.8c-0.2,0.3-0.4,0.4-0.8,0.5h0c-1.1,0.4-3.1,0.1-6.6,0c-3.1,0-6.6,0.6-8.7-1.6c-0.3-0.4-0.6-0.8-0.9-1.3
	c-0.6-1.2-0.9-3-0.9-5.4c-0.1-20.7,3.9-37.6,9.5-37.6c8.7,0,8.7,10.2,8.9,37.5C58.3,123.6,58.5,125.8,57.8,126.8L57.8,126.8z"/>
<path class="st2" d="M54.1,125.9c-0.5,2.3,1.9,1.5-3.7,1.4c-4.8-0.1-10.4,1.5-10.5-8.4c-0.1-17.6,2.8-32.4,7.1-36.5
	c-3.6,5.5-5.9,19.1-5.9,35c0,9.9,5.7,8.3,10.5,8.4C55.1,125.9,53,126.2,54.1,125.9L54.1,125.9z"/>
<path class="st6" d="M54.1,125.9c-0.5,2.3,1.9,1.5-3.7,1.4c-4.8-0.1-10.4,1.5-10.5-8.4c-0.1-17.6,2.8-32.4,7.1-36.5
	c-3.6,5.5-5.9,19.1-5.9,35c0,9.9,5.7,8.3,10.5,8.4C55.1,125.9,53,126.2,54.1,125.9L54.1,125.9z"/>
<path class="st6" d="M50.4,127.4c-1.4,0-3,0.1-4.4,0c-2.5-0.1-2.4-3.9,0.1-3.9c0.2,0,0.4,0,0.6,0c8.7,0.1,8,1.7,7.9-8.5
	c-0.1-17.5-0.1-28-2.4-33.2c6,2.2,6,13,6.1,37.1C58.4,129.1,59.1,127.5,50.4,127.4L50.4,127.4z"/>
<path class="st6" d="M57.8,126.8c0.2-0.4,0.6-1.3,0.6-1.8c0-1.4-2.8-2.3-2.6-3.8c0.3-2.8-4-3.6-6.7-3.9c-1.8-0.2-5.7,0.3-3.6,3.1
	c0.7,1-2,0.7-2.8,0.8c-1.5,0.3-2.2,0.7-2.5,1.8c0.2,0.5,1.3,2.3,1.6,2.7c0-1,0.4-1.6,1.2-2c0.4-0.3,1-0.4,1.6-0.6
	c0.7-0.2,3.3-0.2,3.1-1.1c0-0.1,0-0.1-0.1-0.2c-1.4-1.8-1-2.8,0-3.3c1.2-0.5,3.3-0.2,4.9,0.7c1.3,0.7,2.2,1.8,2.1,3.1
	c-0.1,1.5,2.6,2,2.6,3.4c0,0.5-0.1,1.2-0.1,1.7h0.1"/>
<radialGradient id="SVGID_00000159435375168754525820000005704114417786495135_" cx="-196.7478" cy="487.6246" r="1" gradientTransform="matrix(15.3041 0.2005 0.2959 -22.5838 2915.2197 11150.7861)" gradientUnits="userSpaceOnUse">
	<stop  offset="0" style="stop-color:#FFFFFF"/>
	<stop  offset="0.14" style="stop-color:#E1E1E1"/>
	<stop  offset="0.45" style="stop-color:#949494"/>
	<stop  offset="0.9" style="stop-color:#1B1B1B"/>
	<stop  offset="1" style="stop-color:#000000"/>
</radialGradient>
<path style="opacity:0.34;fill:url(#SVGID_00000159435375168754525820000005704114417786495135_);enable-background:new    ;" d="
	M45.1,109.6c0,12,1,19.4,1.5,19.4c0.5,0,1.4-5.3,1.4-17.3c0-12,2.3-26.2,0.8-26.2C47.2,85.6,45.1,97.6,45.1,109.6z"/>
<g class="st19">
	
		<radialGradient id="SVGID_00000157989991662152810070000016039248203939290001_" cx="-196.7478" cy="487.6246" r="1" gradientTransform="matrix(15.3041 0.2005 0.2959 -22.5838 2915.2197 11150.7861)" gradientUnits="userSpaceOnUse">
		<stop  offset="0" style="stop-color:#FFFFFF"/>
		<stop  offset="0.14" style="stop-color:#E1E1E1"/>
		<stop  offset="0.45" style="stop-color:#949494"/>
		<stop  offset="0.9" style="stop-color:#1B1B1B"/>
		<stop  offset="1" style="stop-color:#000000"/>
	</radialGradient>
	<path style="fill:url(#SVGID_00000157989991662152810070000016039248203939290001_);" d="M45.1,109.6c0,12,1,19.4,1.5,19.4
		c0.5,0,1.4-5.3,1.4-17.3c0-12,2.3-26.2,0.8-26.2C47.2,85.6,45.1,97.6,45.1,109.6z"/>
</g>
<radialGradient id="SVGID_00000075147995123261061940000001478735008522650534_" cx="-154.2759" cy="479.8782" r="1" gradientTransform="matrix(3.9707 0.3427 1.193 -13.825 737.0424 6837.3369)" gradientUnits="userSpaceOnUse">
	<stop  offset="0" style="stop-color:#FFFFFF"/>
	<stop  offset="0.14" style="stop-color:#E1E1E1"/>
	<stop  offset="0.45" style="stop-color:#949494"/>
	<stop  offset="0.9" style="stop-color:#1B1B1B"/>
	<stop  offset="1" style="stop-color:#000000"/>
</radialGradient>
<path style="opacity:0.91;fill:url(#SVGID_00000075147995123261061940000001478735008522650534_);enable-background:new    ;" d="
	M46.6,102.7c-0.3,7.4-0.3,11.9-0.2,11.9c0.1,0,0.5-3.2,0.9-10.6c0.3-7.4,1.4-16,1-16C47.9,88,46.9,95.3,46.6,102.7z"/>
<g class="st22">
	
		<radialGradient id="SVGID_00000135683809298533020390000011112735842183619509_" cx="-154.2759" cy="479.8782" r="1" gradientTransform="matrix(3.9707 0.3427 1.193 -13.825 737.0424 6837.3369)" gradientUnits="userSpaceOnUse">
		<stop  offset="0" style="stop-color:#FFFFFF"/>
		<stop  offset="0.14" style="stop-color:#E1E1E1"/>
		<stop  offset="0.45" style="stop-color:#949494"/>
		<stop  offset="0.9" style="stop-color:#1B1B1B"/>
		<stop  offset="1" style="stop-color:#000000"/>
	</radialGradient>
	<path style="fill:url(#SVGID_00000135683809298533020390000011112735842183619509_);" d="M46.6,102.7c-0.3,7.4-0.3,11.9-0.2,11.9
		c0.1,0,0.5-3.2,0.9-10.6c0.3-7.4,1.4-16,1-16C47.9,88,46.9,95.3,46.6,102.7z"/>
</g>
<path d="M48.2,136.3c-2.3-1-4.6-3.4-6-6.3c-1.3-2.6-1.5-4.4-0.9-5.6c0.6-1.3,2.1-1.8,3.2-2c0.2,0,0.5-0.1,0.8-0.1
	c0.3,0,1-0.1,1.4-0.2c-1.2-1.7-0.9-2.8-0.4-3.4c1.1-1.4,3.8-1.2,5.8-0.3c2.2,0.9,3.5,2.6,3.3,4.3c0,0.3,0.4,0.6,1,1.1
	c0.7,0.5,1.6,1.2,1.6,2.2c0,3.6-1.7,9.4-6.1,10.7C50.7,136.9,49.4,136.8,48.2,136.3L48.2,136.3z"/>
<radialGradient id="SVGID_00000105397948660001081500000009709355751534042546_" cx="-207.181" cy="489.9301" r="1" gradientTransform="matrix(41.4209 -10.6912 -7.6142 -29.4997 12358.2744 12357.4941)" gradientUnits="userSpaceOnUse">
	<stop  offset="0" style="stop-color:#FFFFFF"/>
	<stop  offset="0.31" style="stop-color:#A6A6A6"/>
	<stop  offset="0.65" style="stop-color:#4D4D4D"/>
	<stop  offset="0.89" style="stop-color:#151515"/>
	<stop  offset="1" style="stop-color:#000000"/>
</radialGradient>
<path style="fill:url(#SVGID_00000105397948660001081500000009709355751534042546_);" d="M57.1,125.9c0,3.8-1.8,8.9-5.5,10
	c-3.4,1-7-2.5-8.8-6.2c-2.1-4.4-1.2-5.9,1.7-6.5c0.8-0.2,3.7-0.3,3-1.2c-4.2-5.5,7.4-3.9,7,0.6C54.4,124,57.2,124.5,57.1,125.9
	L57.1,125.9z"/>
<radialGradient id="SVGID_00000075857726471915571150000006748658165310405785_" cx="-207.181" cy="489.9301" r="1" gradientTransform="matrix(41.4209 -10.6912 -7.6142 -29.4997 12358.2744 12357.4941)" gradientUnits="userSpaceOnUse">
	<stop  offset="0" style="stop-color:#FFFFFF"/>
	<stop  offset="0.31" style="stop-color:#A6A6A6"/>
	<stop  offset="0.65" style="stop-color:#4D4D4D"/>
	<stop  offset="0.89" style="stop-color:#151515"/>
	<stop  offset="1" style="stop-color:#000000"/>
</radialGradient>
<path style="fill:url(#SVGID_00000075857726471915571150000006748658165310405785_);" d="M57.1,125.9c0,3.8-1.8,8.9-5.5,10
	c-3.4,1-7-2.5-8.8-6.2c-2.1-4.4-1.2-5.9,1.7-6.5c0.8-0.2,3.7-0.3,3-1.2c-4.2-5.5,7.4-3.9,7,0.6C54.4,124,57.2,124.5,57.1,125.9
	L57.1,125.9z"/>
<radialGradient id="SVGID_00000084519037696775220940000001233842186860208560_" cx="-205.3377" cy="491.8419" r="1" gradientTransform="matrix(45.3982 0.5552 0.3943 -32.2402 9160.7041 16108.6582)" gradientUnits="userSpaceOnUse">
	<stop  offset="0" style="stop-color:#FFFFFF"/>
	<stop  offset="9.000000e-02" style="stop-color:#DDDDDD"/>
	<stop  offset="0.28" style="stop-color:#9A9A9A"/>
	<stop  offset="0.47" style="stop-color:#636363"/>
	<stop  offset="0.63" style="stop-color:#383838"/>
	<stop  offset="0.78" style="stop-color:#191919"/>
	<stop  offset="0.91" style="stop-color:#060606"/>
	<stop  offset="1" style="stop-color:#000000"/>
</radialGradient>
<path style="fill:url(#SVGID_00000084519037696775220940000001233842186860208560_);" d="M54.8,133.3c-0.2,1.6-2.2,2.7-4.6,2.5
	c-2.4-0.3-4.2-1.8-4-3.4c0.2-1.6,2.2-2.7,4.6-2.5C53.1,130.2,54.9,131.7,54.8,133.3L54.8,133.3z"/>
<radialGradient id="SVGID_00000006689831606096706000000002897648743740865157_" cx="-205.3377" cy="491.8419" r="1" gradientTransform="matrix(45.3982 0.5552 0.3943 -32.2402 9160.7041 16108.6582)" gradientUnits="userSpaceOnUse">
	<stop  offset="0" style="stop-color:#FFFFFF"/>
	<stop  offset="9.000000e-02" style="stop-color:#DDDDDD"/>
	<stop  offset="0.28" style="stop-color:#9A9A9A"/>
	<stop  offset="0.47" style="stop-color:#636363"/>
	<stop  offset="0.63" style="stop-color:#383838"/>
	<stop  offset="0.78" style="stop-color:#191919"/>
	<stop  offset="0.91" style="stop-color:#060606"/>
	<stop  offset="1" style="stop-color:#000000"/>
</radialGradient>
<path style="fill:url(#SVGID_00000006689831606096706000000002897648743740865157_);" d="M54.8,133.3c-0.2,1.6-2.2,2.7-4.6,2.5
	c-2.4-0.3-4.2-1.8-4-3.4c0.2-1.6,2.2-2.7,4.6-2.5C53.1,130.2,54.9,131.7,54.8,133.3L54.8,133.3z"/>
<path d="M53.7,133.4c-0.1,1.2-1.6,2.1-3.5,2c-1.8-0.1-3.3-1.2-3.2-2.4c0.1-1.2,1.6-2.1,3.5-2C52.4,131,53.8,132.1,53.7,133.4z"/>
<path d="M49.8,122.6c-0.3,0-0.5-0.2-0.5-0.5l0-2.9c0-0.3,0.2-0.5,0.5-0.5c0.3,0,0.5,0.2,0.5,0.5l0,2.9
	C50.2,122.4,50,122.6,49.8,122.6L49.8,122.6z"/>
<path d="M52.5,123L52.5,123c-0.3,0-0.5-0.2-0.5-0.5l0-2.6c0-0.3,0.2-0.5,0.5-0.5l0.1,0c0.3,0,0.5,0.2,0.5,0.5l0,2.6
	C52.9,122.7,52.7,123,52.5,123L52.5,123z"/>
<path d="M129.1,88.1c-2-0.8-3.6-3.2-4.9-6.8c-1.2-3.5-1.9-7.9-1.9-12.4c0-5.1,0.8-9.9,2.2-13.5c1.5-3.9,3.7-6,6-6
	c0.5,0,1.1,0.1,1.6,0.3c2,0.8,3.6,3.2,4.9,6.8c1.2,3.5,1.9,7.9,1.9,12.4c0,5.1-0.8,9.9-2.2,13.5c-1.5,3.9-3.7,6-6,6
	C130.1,88.4,129.6,88.3,129.1,88.1L129.1,88.1z"/>
<radialGradient id="SVGID_00000122686181937857379620000009795361884666773122_" cx="-201.2214" cy="487.5764" r="1" gradientTransform="matrix(22.7377 -9.113505e-02 -9.116431e-02 -22.745 4748.9287 11119.3535)" gradientUnits="userSpaceOnUse">
	<stop  offset="0" style="stop-color:#F5F8FB"/>
	<stop  offset="2.000000e-02" style="stop-color:#C7DBEB"/>
	<stop  offset="4.000000e-02" style="stop-color:#9CBFDB"/>
	<stop  offset="6.000000e-02" style="stop-color:#77A6CD"/>
	<stop  offset="8.000000e-02" style="stop-color:#5691C2"/>
	<stop  offset="0.1" style="stop-color:#3B7FB8"/>
	<stop  offset="0.13" style="stop-color:#2571B0"/>
	<stop  offset="0.16" style="stop-color:#1466AA"/>
	<stop  offset="0.2" style="stop-color:#085EA6"/>
	<stop  offset="0.25" style="stop-color:#015AA3"/>
	<stop  offset="0.4" style="stop-color:#0059A3"/>
	<stop  offset="0.69" style="stop-color:#002A4D"/>
	<stop  offset="0.9" style="stop-color:#000B15"/>
	<stop  offset="1" style="stop-color:#000000"/>
</radialGradient>
<path style="fill:url(#SVGID_00000122686181937857379620000009795361884666773122_);" d="M130.7,87.6c4.1,0,7.4-8.4,7.4-18.8
	c0-10.3-3.4-18.7-7.5-18.7c-4.1,0-7.4,8.4-7.4,18.8C123.2,79.3,126.5,87.7,130.7,87.6z"/>
<radialGradient id="SVGID_00000026875009518831818050000011126327784111057596_" cx="-199.4232" cy="489.394" r="0.9997" gradientTransform="matrix(18.7524 -7.843559e-02 -0.1092 -26.1007 3923.2224 12811.7275)" gradientUnits="userSpaceOnUse">
	<stop  offset="0" style="stop-color:#FDFAF3"/>
	<stop  offset="8.000000e-02" style="stop-color:#F4E0AA"/>
	<stop  offset="0.14" style="stop-color:#ECCA6D"/>
	<stop  offset="0.2" style="stop-color:#E6B93E"/>
	<stop  offset="0.25" style="stop-color:#E2AD1C"/>
	<stop  offset="0.29" style="stop-color:#DFA507"/>
	<stop  offset="0.32" style="stop-color:#DFA300"/>
	<stop  offset="0.4" style="stop-color:#DF7400"/>
	<stop  offset="0.5" style="stop-color:#E03C00"/>
	<stop  offset="0.55" style="stop-color:#E12700"/>
	<stop  offset="0.65" style="stop-color:#A61C00"/>
	<stop  offset="0.82" style="stop-color:#4D0D00"/>
	<stop  offset="0.94" style="stop-color:#150300"/>
	<stop  offset="1" style="stop-color:#000000"/>
</radialGradient>
<path style="fill:url(#SVGID_00000026875009518831818050000011126327784111057596_);" d="M130.6,80.6c10.4,0,18.7-11.8,18.7-26.2
	c-0.1-14.4-8.5-26.1-18.9-26c-10.4,0-18.7,11.8-18.7,26.2C111.8,68.9,120.3,80.6,130.6,80.6z"/>
<path d="M128,95.4c-3.7-1.6-7.2-5.2-9.8-10.2c-2.7-5.2-4.3-11.5-4.5-17.8l0,0c0-0.1,0-0.3,0-0.9c0-0.1,0-0.3,0-0.3
	c-0.1-1.1,0.3-2.2,1.2-3.2c2.3-2.5,8.1-4.1,15.3-4.1c4.9,0,9.3,0.7,12.3,1.9c3.8,1.6,4.5,3.7,4.4,5.2c0,0,0,0.2,0,0.3c0,0,0,0,0,0.1
	l0,0l-0.1,0.9c-1.3,18.4-6.2,25.1-10.1,27.6C134,96.5,131,96.7,128,95.4L128,95.4z"/>
<path class="st2" d="M146,66c0.3-3.9-6.8-6.3-15.9-6.3c-9,0-16,2.5-15.7,6.4c0,0.1,0,1,0.1,1.2l0,0.1c0.7,27.6,28.3,46.1,31.5-0.1
	l0,0C146,67.1,146,66.2,146,66L146,66z"/>
<radialGradient id="SVGID_00000120546835024646782530000011198755405700485254_" cx="-206.4032" cy="496.2258" r="1" gradientTransform="matrix(58.511 -0.2345 -0.2346 -58.5297 12309.6025 29060.9609)" gradientUnits="userSpaceOnUse">
	<stop  offset="0" style="stop-color:#FFFFFF"/>
	<stop  offset="0.14" style="stop-color:#E1E1E1"/>
	<stop  offset="0.45" style="stop-color:#949494"/>
	<stop  offset="0.9" style="stop-color:#1B1B1B"/>
	<stop  offset="1" style="stop-color:#000000"/>
</radialGradient>
<path style="opacity:0.29;fill:url(#SVGID_00000120546835024646782530000011198755405700485254_);enable-background:new    ;" d="
	M146,66c0.3-3.9-6.8-6.3-15.9-6.3c-9,0-16,2.5-15.7,6.4c0,0.1,0,1,0.1,1.2l0,0.1c0.7,27.6,28.3,46.1,31.5-0.1l0,0
	C146,67.1,146,66.2,146,66L146,66z"/>
<path d="M114,70.8c-0.2-1.6-0.3-3-0.4-4.2c0,0,0-0.2,0-0.8l0-0.3c-0.1-1,0.3-1.9,1-2.7c2.2-2.4,8.1-3.9,15.6-3.9
	c5.3,0,9.8,0.7,12.8,2c3.4,1.4,3.9,3.2,3.8,4.5l0,0.3l0,0l0,0.8l-0.5,6.6L145,71c-0.4-0.7-1.3-1.3-2.6-1.9
	c-2.8-1.2-7.2-1.8-12.2-1.8c-7.4,0-13.4,1.6-14.7,3.8l-1.2,2L114,70.8L114,70.8z"/>
<path class="st2" d="M114.4,66.5L114.4,66.5c0.1,1.2,0.2,2.6,0.4,4.2c1.6-2.6,7.8-4.2,15.4-4.2c7.7,0,13.9,1.5,15.5,4.1l0.3-4.2l0,0
	c0-0.1,0-1,0.1-1.1c0.3-3.5-6.8-5.6-15.9-5.6c-9,0-16.1,2.2-15.8,5.7C114.4,65.6,114.4,66.4,114.4,66.5z"/>
<radialGradient id="SVGID_00000178918301037991884980000012884783159486580116_" cx="-206.567" cy="495.3057" r="1" gradientTransform="matrix(61.5737 -0.2468 -0.201 -50.1386 12949.2461 24837.127)" gradientUnits="userSpaceOnUse">
	<stop  offset="0" style="stop-color:#FFFFFF"/>
	<stop  offset="0.14" style="stop-color:#E1E1E1"/>
	<stop  offset="0.45" style="stop-color:#949494"/>
	<stop  offset="0.9" style="stop-color:#1B1B1B"/>
	<stop  offset="1" style="stop-color:#000000"/>
</radialGradient>
<path style="opacity:0.29;fill:url(#SVGID_00000178918301037991884980000012884783159486580116_);enable-background:new    ;" d="
	M114.4,66.5L114.4,66.5c0.1,1.2,0.2,2.6,0.4,4.2c1.6-2.6,7.8-4.2,15.4-4.2c7.7,0,13.9,1.5,15.5,4.1l0.3-4.2l0,0c0-0.1,0-1,0.1-1.1
	c0.3-3.5-6.8-5.6-15.9-5.6c-9,0-16.1,2.2-15.8,5.7C114.4,65.6,114.4,66.4,114.4,66.5z"/>
<radialGradient id="SVGID_00000032622638362636238760000015345270805878068887_" cx="-138.9244" cy="485.4482" r="1" gradientTransform="matrix(2.723 -1.091360e-02 -7.924104e-02 -19.7707 565.0748 9655.7988)" gradientUnits="userSpaceOnUse">
	<stop  offset="0" style="stop-color:#FFFFFF"/>
	<stop  offset="0.13" style="stop-color:#E1E1E1"/>
	<stop  offset="0.42" style="stop-color:#949494"/>
	<stop  offset="0.84" style="stop-color:#1B1B1B"/>
	<stop  offset="0.93" style="stop-color:#000000"/>
</radialGradient>
<path style="opacity:0.69;fill:url(#SVGID_00000032622638362636238760000015345270805878068887_);enable-background:new    ;" d="
	M131.3,65.8c-0.1,4-0.2,8.4-0.2,12.4c0,7.1-0.4,11.4-1,13.9c-1-0.5-2-1.1-3-1.8c-0.3-3,0.4-5.8,0.4-11.9c0-3.5-0.7-8.8-0.5-12.2
	c0.1-2.4,0.3-4.7,0.5-6.8l0,0c1.2-0.1,2.4-0.2,3.7-0.3l0,0C131.4,61,131.3,63.3,131.3,65.8L131.3,65.8z"/>
<path class="st6" d="M137.9,91.8c-9.3,8.9-23-6-23.6-25.4l0-0.1c0-0.1,0-1-0.1-1.2c-0.1-1.2,0.5-2.3,1.6-3.2c0,0.1,0,0.1,0,0.1
	l0,0.1C116.5,82.5,128.8,98.3,137.9,91.8z"/>
<path class="st6" d="M146.4,66.2L146.4,66.2c-2.5,37.1-20.8,32.5-28.3,15c8.5,11.6,24.1,10.1,22.1-21.1c2.4,1.1,6.3,3.1,6.2,4.8
	C146.5,65.1,146.5,66.1,146.4,66.2L146.4,66.2z"/>
<g class="st7">
	<g>
		<path class="st8" d="M119.3,61.1c0.1,0,9.5-3.7,19.7-0.5C128.2,58.4,119.4,61.1,119.3,61.1z"/>
	</g>
</g>
<g class="st7">
	<g>
		<path class="st8" d="M119.5,68.7c0.1,0,8.9-2.7,19.9-0.6C128.7,66.8,119.5,68.6,119.5,68.7z"/>
	</g>
</g>
<path d="M83,2.1c0-0.7,0.3-1.4,0.9-1.8c0.6-0.4,1.3-0.5,2-0.2c0,0,5.3,2,5.3,2c2.1,0.9,3.4,2.5,3.7,4.5c1.4,8.5,2.5,15.8,3.5,22.3
	c4.4,29.2,5.7,38,21.1,44.6c7.1,3,16.9,5.5,31.8,9.2l7.5,1.9c0.3,0.1,0.5,0.2,0.8,0.3c1.9,0.8,3.2,2.7,3.2,4.8l0.1,16.8
	c0,1.9-1.5,3.5-3.4,3.5l-25.7,0.1c-0.6,0-1.1-0.1-1.6-0.3c-1.1-0.5-1.9-1.4-2.3-2.5l-0.3-0.8c-0.3-1-1.1-1.7-2-2.1
	c-0.5-0.2-1-0.3-1.5-0.3l-9.4,0.2l0.3,15l-0.8,0c-13.1,0.7-14.3,3.7-15.3,6.3c-1.4,3.6-3.2,5.7-16.6,4.1l-0.7-0.1L83,2.1z"/>
<path class="st2" d="M159.4,109.2l-25.7,0.1c-1.4,0-2.7-0.9-3.2-2.3l-0.3-0.8c-0.6-1.8-2.3-3-4.2-3l-10.2,0.2l0.3,15
	c-27.6,1.4-4.7,13.6-31.8,10.5L83.8,2.1c0-0.9,0.9-1.6,1.8-1.3l5.3,2c1.7,0.6,2.9,2.1,3.2,3.9c11.4,67.9,2,62.7,64.4,78.6
	c2,0.5,3.4,2.3,3.4,4.3l0.1,16.8C162,108,160.8,109.2,159.4,109.2L159.4,109.2z"/>
<radialGradient id="SVGID_00000103241174094536377550000016522039202435784064_" cx="-208.2894" cy="501.1974" r="1" gradientTransform="matrix(200.2138 136.8076 166.9104 -244.2682 -41660.6875 151083.4062)" gradientUnits="userSpaceOnUse">
	<stop  offset="0" style="stop-color:#FFFFFF"/>
	<stop  offset="0.59" style="stop-color:#666666"/>
	<stop  offset="1" style="stop-color:#000000"/>
</radialGradient>
<path style="fill:url(#SVGID_00000103241174094536377550000016522039202435784064_);" d="M159.4,109.2l-25.7,0.1
	c-1.4,0-2.7-0.9-3.2-2.3l-0.3-0.8c-0.6-1.8-2.3-3-4.2-3l-10.2,0.2l0.3,15c-27.6,1.4-4.7,13.6-31.8,10.5L83.8,2.1
	c0-0.9,0.9-1.6,1.8-1.3l5.3,2c1.7,0.6,2.9,2.1,3.2,3.9c11.4,67.9,2,62.7,64.4,78.6c2,0.5,3.4,2.3,3.4,4.3l0.1,16.8
	C162,108,160.8,109.2,159.4,109.2L159.4,109.2z"/>
<g>
	
		<radialGradient id="SVGID_00000149376426988219730690000017298120894801549213_" cx="-208.2894" cy="501.1974" r="1" gradientTransform="matrix(200.2138 136.8076 166.9104 -244.2682 -41660.6875 151083.4062)" gradientUnits="userSpaceOnUse">
		<stop  offset="0" style="stop-color:#FFFFFF"/>
		<stop  offset="0.59" style="stop-color:#666666"/>
		<stop  offset="1" style="stop-color:#000000"/>
	</radialGradient>
	<path style="fill:url(#SVGID_00000149376426988219730690000017298120894801549213_);" d="M159.4,109.2l-25.7,0.1
		c-1.4,0-2.7-0.9-3.2-2.3l-0.3-0.8c-0.6-1.8-2.3-3-4.2-3l-10.2,0.2l0.3,15c-27.6,1.4-4.7,13.6-31.8,10.5L83.8,2.1
		c0-0.9,0.9-1.6,1.8-1.3l5.3,2c1.7,0.6,2.9,2.1,3.2,3.9c11.4,67.9,2,62.7,64.4,78.6c2,0.5,3.4,2.3,3.4,4.3l0.1,16.8
		C162,108,160.8,109.2,159.4,109.2L159.4,109.2z"/>
</g>
<g class="st10">
	<path class="st11" d="M83.8,2.1l0.5,126.7c27.7,3.2,4.7-9,31.8-10.3l0.1-2.4c-28.6,1.8-6.6,13.1-30.6,10.4L85.1,0.8
		C84.4,0.8,83.8,1.4,83.8,2.1z"/>
</g>
<g class="st12">
	<path class="st11" d="M127.3,101l-10.2,0.2l0,2.2l8.9-0.2c1.9,0,3.6,1.2,4.2,3l0.3,0.8c0.5,1.4,1.7,2.3,3.2,2.3l25.7-0.1
		c1.2,0,2.3-0.8,2.6-2c0.3-1,0.2-18.4-0.1-18.4c-0.7-3.1-1-1.6-1.1,0.8l-0.3,16.7c0,0.3-0.3,0.6-0.6,0.6L135,107
		c-1.4,0-2.7-0.9-3.2-2.3l-0.3-0.8C130.9,102.1,129.2,100.9,127.3,101L127.3,101z"/>
</g>
<g class="st13">
	<path class="st8" d="M86.7,3.3c2.8,0.7,5.7,2.8,6.1,5.6c10,61.8-0.8,63.8,64.4,78.6c4.5,1,5.1-1.3,1.2-2.3
		C96.2,69.2,105.5,74.6,94.1,6.7c-0.3-1.8-1.5-3.3-3.2-3.9l-5.6-1.9C86.2,2.2,86.7,3.3,86.7,3.3L86.7,3.3z"/>
</g>
<path d="M134.5,106.5c-1.2-0.5-2-1.7-2-3c0-1.8,1.5-3.3,3.3-3.3c0.5,0,0.9,0.1,1.3,0.3c1.2,0.5,2,1.7,2,3c0,1.8-1.5,3.3-3.3,3.3
	C135.3,106.8,134.9,106.7,134.5,106.5z"/>
<path class="st2" d="M138.3,103.4c0,1.4-1.1,2.5-2.5,2.5c-1.4,0-2.5-1.1-2.5-2.5c0-1.4,1.1-2.5,2.5-2.5
	C137.1,100.9,138.3,102,138.3,103.4L138.3,103.4z"/>
<radialGradient id="SVGID_00000150094682194345273180000002158711027069660059_" cx="-189.5918" cy="490.845" r="1" gradientTransform="matrix(14.1381 8.4997 8.296 -13.7994 -1261.9017 8479.7695)" gradientUnits="userSpaceOnUse">
	<stop  offset="0" style="stop-color:#FFFFFF"/>
	<stop  offset="9.000000e-02" style="stop-color:#F7F7F7"/>
	<stop  offset="0.22" style="stop-color:#E4E4E4"/>
	<stop  offset="0.37" style="stop-color:#C4C4C4"/>
	<stop  offset="0.54" style="stop-color:#979797"/>
	<stop  offset="0.73" style="stop-color:#5E5E5E"/>
	<stop  offset="0.93" style="stop-color:#1A1A1A"/>
	<stop  offset="1" style="stop-color:#000000"/>
</radialGradient>
<path style="fill:url(#SVGID_00000150094682194345273180000002158711027069660059_);" d="M138.3,103.4c0,1.4-1.1,2.5-2.5,2.5
	c-1.4,0-2.5-1.1-2.5-2.5c0-1.4,1.1-2.5,2.5-2.5C137.1,100.9,138.3,102,138.3,103.4L138.3,103.4z"/>
<g>
	
		<radialGradient id="SVGID_00000181068796689119877960000009400681772349946778_" cx="-189.5918" cy="490.845" r="1" gradientTransform="matrix(14.1381 8.4997 8.296 -13.7994 -1261.9017 8479.7695)" gradientUnits="userSpaceOnUse">
		<stop  offset="0" style="stop-color:#FFFFFF"/>
		<stop  offset="9.000000e-02" style="stop-color:#F7F7F7"/>
		<stop  offset="0.22" style="stop-color:#E4E4E4"/>
		<stop  offset="0.37" style="stop-color:#C4C4C4"/>
		<stop  offset="0.54" style="stop-color:#979797"/>
		<stop  offset="0.73" style="stop-color:#5E5E5E"/>
		<stop  offset="0.93" style="stop-color:#1A1A1A"/>
		<stop  offset="1" style="stop-color:#000000"/>
	</radialGradient>
	<path style="fill:url(#SVGID_00000181068796689119877960000009400681772349946778_);" d="M138.3,103.4c0,1.4-1.1,2.5-2.5,2.5
		c-1.4,0-2.5-1.1-2.5-2.5c0-1.4,1.1-2.5,2.5-2.5C137.1,100.9,138.3,102,138.3,103.4L138.3,103.4z"/>
</g>
<g class="st15">
	<g>
		<path class="st8" d="M138.1,102.5c0,0.1,0.1,0.1,0.1,0.2c-0.6-1.2-2-1.7-3.2-1.2c-1.2,0.5-1.8,1.9-1.4,3.1c0-0.1-0.1-0.1-0.1-0.2
			c-0.5-1.3,0.1-2.8,1.4-3.3C136.1,100.6,137.5,101.2,138.1,102.5z"/>
	</g>
</g>
<path class="st6" d="M107.6,109.4c0,3.5-0.2,6.9-0.5,10.2c-13.1,3.4,0.4,12-22.8,9.3l-0.2-62.2c1.1-0.4,2.3-0.7,3.5-0.7
	C98.5,65.9,107.5,85.4,107.6,109.4L107.6,109.4z"/>
<path d="M74.4,111.3c-6.4-2.7-9.8-9.9-9.5-19.7c0.5-15.4,6.4-31.1,16.5-31.1c1.5,0,2.9,0.3,4.2,0.8c6.4,2.7,10.3,12,12.5,30.2
	c-0.6,8.2-4.3,14.9-10.1,18.5C83.6,112.6,78.6,113.1,74.4,111.3L74.4,111.3z"/>
<path class="st37" d="M97.3,91.6c-1.9,24.9-32.6,28.3-31.6,0c0.6-15.7,6.5-30.3,15.7-30.3C89.8,61.3,94.7,70.7,97.3,91.6z"/>
<radialGradient id="SVGID_00000016795403455211195150000015467652783319230905_" cx="-195.9368" cy="490.6725" r="1" gradientTransform="matrix(14.0051 -5.613380e-02 -0.1167 -29.1175 2885.533 14355.7188)" gradientUnits="userSpaceOnUse">
	<stop  offset="0" style="stop-color:#FFFFFF"/>
	<stop  offset="1" style="stop-color:#000000"/>
</radialGradient>
<path style="opacity:0.68;fill:url(#SVGID_00000016795403455211195150000015467652783319230905_);enable-background:new    ;" d="
	M97.3,91.6c-1.9,24.9-32.6,28.3-31.6,0c0.6-15.7,6.5-30.3,15.7-30.3C89.8,61.3,94.7,70.7,97.3,91.6z"/>
<path class="st11" d="M72.1,153.7c-1.1-0.5-1.9-2.2-1.9-2.3c-6-20.1-6.5-42.6-6.3-47.1c0.1-4.3,0.3-10.1,1-12.9l0.4-1.7l1,1.4
	c1.7,2.5,3.6,4.2,5.4,4.9c2.6,1.1,4.8,0,6.6-3.4c1.3-2.7,2.4-5.1,4.1-4.3c0.9,0.4,1.6,1.5,2.7,4.4c0.8,1.7,1.8,2.8,3,3.3
	c3,1.3,6.8-1.9,8.2-4.7l0-0.2l0.3-0.2l0.4,0.5l0.9-0.1c0.8,4,1.2,10,1.2,17.2c-1.1,26-4.9,40.2-5.3,41.7c0,0,0,0,0,0
	c0,0-1.1,3.5-2.7,3.5h-0.2l-0.3-0.1c-0.8-0.3-0.8-1.2-0.8-2.5c0-1.3-0.1-3-1-3.4c-0.1,0-0.2-0.1-0.4-0.1c-2.6-0.2-5.6-0.1-8.4,0.1
	c-1.7,0.1-3.3,0.2-4.8,0.2c-0.5,0-0.9,0.1-1.1,0.4c-0.6,0.6-0.5,2.1-0.5,3.1c0,1,0.1,1.7-0.3,2.1l-0.2,0.2l-0.5,0.1
	C72.5,153.9,72.3,153.8,72.1,153.7L72.1,153.7z"/>
<path class="st2" d="M93.2,150.1c0,0-1,2.9-1.9,2.9c-1.2,0.2,0.5-5.8-2.6-6.1c-4.2-0.4-9.1,0.2-13.3,0.2c-3.9,0-1.6,5.9-2.7,5.9
	c-0.7,0-1.5-1.3-1.7-1.9c-6.3-21-6.4-44-6.3-46.8c0.1-5.8,0.4-10.5,1-12.8c4,5.6,9.5,8.6,13.3,1.5c2.4-5.1,3.2-5.6,5.4,0
	c3.9,8,10.8,2.6,12.8-1.5c0,0,0,0,0,0c0.9,4.3,1.2,10.3,1.2,17C97.4,133.3,93.9,147.6,93.2,150.1L93.2,150.1z"/>
<radialGradient id="SVGID_00000167384065863691049440000015401139962863933339_" cx="-201.7394" cy="495.5761" r="1" gradientTransform="matrix(24.2177 -9.706530e-02 -0.2098 -52.3444 5074.1187 26033.5586)" gradientUnits="userSpaceOnUse">
	<stop  offset="0" style="stop-color:#FFFFFF"/>
	<stop  offset="0.12" style="stop-color:#E8E8E8"/>
	<stop  offset="0.36" style="stop-color:#AEAEAE"/>
	<stop  offset="0.71" style="stop-color:#525252"/>
	<stop  offset="1" style="stop-color:#000000"/>
</radialGradient>
<path style="opacity:0.49;fill:url(#SVGID_00000167384065863691049440000015401139962863933339_);enable-background:new    ;" d="
	M93.2,150.1c0,0-1,2.9-1.9,2.9c-1.2,0.2,0.5-5.8-2.6-6.1c-4.2-0.4-9.1,0.2-13.3,0.2c-3.9,0-1.6,5.9-2.7,5.9c-0.7,0-1.5-1.3-1.7-1.9
	c-6.3-21-6.4-44-6.3-46.8c0.1-5.8,0.4-10.5,1-12.8c4,5.6,9.5,8.6,13.3,1.5c2.4-5.1,3.2-5.6,5.4,0c3.9,8,10.8,2.6,12.8-1.5
	c0,0,0,0,0,0c0.9,4.3,1.2,10.3,1.2,17C97.4,133.3,93.9,147.6,93.2,150.1L93.2,150.1z"/>
<path class="st40" d="M74.7,146.9c-0.5,1.7-1.3,6.2-2,6.2c-0.7,0-1.5-1.3-1.7-1.9c-1.4-3.4-3.1-8.7-4-17.7c0,0-0.1-0.7-0.1-0.8
	c-0.8-6.4-1.9-12.7-1.9-20c0-2.8-0.5-5.5-0.4-8.3c0.1-5.8,0.4-10.5,1-12.8c0.8,1.1,1.6,2.1,2.5,3c-0.3,2.5-0.4,5.9-0.5,9.8
	c-0.1,2.7,0.3,5.4,0.4,8.3c0,7.4,1.1,13.6,1.9,20c0,0,0.1,0.7,0.1,0.8C70.7,140.6,73.6,143.5,74.7,146.9L74.7,146.9z"/>
<path class="st40" d="M98.5,112.6c-0.7,11.6-2.1,21.2-3.8,30c0,0-0.8,4.9-1.5,7.4c0,0-0.3,0.7-0.3,0.7c-0.4,0.9-0.7,2.2-1.6,2.2
	c-1.2,0.2,0.5-5.8-2.6-6.1c-4.2-0.4-5-0.3-5.7-0.7c10.7-2,8.1-15,9.7-40.1c0.1-1.3,0-2.7-0.1-4c0-1.9,0-3.8-0.1-5.5
	c2.1-1.1,3.9-3.1,4.7-4.9c0,0,0,0,0,0c0.9,4.3,1.2,10.3,1.2,17C98.5,109.9,98.6,111.3,98.5,112.6L98.5,112.6z"/>
<radialGradient id="SVGID_00000165193303718844756360000004478245170553378703_" cx="-191.0636" cy="492.5512" r="1" gradientTransform="matrix(10.3423 -4.145286e-02 -0.1406 -35.0815 2140.8208 17372.7422)" gradientUnits="userSpaceOnUse">
	<stop  offset="0.16" style="stop-color:#FFFFFF"/>
	<stop  offset="0.26" style="stop-color:#E8E8E8"/>
	<stop  offset="0.46" style="stop-color:#AEAEAE"/>
	<stop  offset="0.76" style="stop-color:#525252"/>
	<stop  offset="1" style="stop-color:#000000"/>
</radialGradient>
<path style="opacity:0.46;fill:url(#SVGID_00000165193303718844756360000004478245170553378703_);enable-background:new    ;" d="
	M69.7,103.2c0.1,22.1,4.5,40,9.9,39.9c5.4,0,9.7-17.9,9.6-40C89.1,81,91,61.6,79.3,63.1C74.1,63.8,69.6,81.1,69.7,103.2z"/>
<radialGradient id="SVGID_00000156581719594048825050000003342177529181988527_" cx="-97.369" cy="491.4443" r="1" gradientTransform="matrix(1.7156 -6.876471e-03 -0.1255 -31.3036 313.877 15463.2871)" gradientUnits="userSpaceOnUse">
	<stop  offset="0.69" style="stop-color:#FFFFFF"/>
	<stop  offset="0.73" style="stop-color:#E8E8E8"/>
	<stop  offset="0.8" style="stop-color:#AEAEAE"/>
	<stop  offset="0.91" style="stop-color:#525252"/>
	<stop  offset="1" style="stop-color:#000000"/>
</radialGradient>
<path style="opacity:0.76;fill:url(#SVGID_00000156581719594048825050000003342177529181988527_);enable-background:new    ;" d="
	M80.7,96.3c0.1,14.7,0.8,26.5,1.1,26.5c0.4,0,0.2-11.9,0.2-26.5c-0.1-14.7,0.4-27.5-0.4-26.5C81.3,70.2,80.7,81.7,80.7,96.3z"/>
<path d="M76.5,153.7c-2.2-0.9-3.5-2.4-3.5-4.1c0-2.8,3.8-5.1,8.8-5.1c1.9,0,3.8,0.3,5.3,1c2.2,0.9,3.5,2.4,3.5,4.1
	c0,1.4-1,2.8-2.7,3.7c-1.6,0.9-3.8,1.4-6,1.4C79.9,154.7,78.1,154.3,76.5,153.7L76.5,153.7z"/>
<radialGradient id="SVGID_00000003785431949103644900000007734691518278542526_" cx="-203.6527" cy="485.2249" r="1" gradientTransform="matrix(31.8839 -0.1278 -7.816177e-02 -19.5032 6612.2739 9581.5723)" gradientUnits="userSpaceOnUse">
	<stop  offset="0" style="stop-color:#FFFFFF"/>
	<stop  offset="0.31" style="stop-color:#A6A6A6"/>
	<stop  offset="0.65" style="stop-color:#4D4D4D"/>
	<stop  offset="0.89" style="stop-color:#151515"/>
	<stop  offset="1" style="stop-color:#000000"/>
</radialGradient>
<path style="fill:url(#SVGID_00000003785431949103644900000007734691518278542526_);" d="M89.8,149.5c0,2.4-3.6,4.4-8,4.4
	c-4.4,0-8-1.9-8-4.3c0-2.4,3.6-4.4,8-4.4C86.2,145.2,89.8,147.1,89.8,149.5L89.8,149.5z"/>
<path d="M87.7,150c0,1.8-2.6,3.2-5.9,3.2c-3.2,0-5.9-1.4-5.9-3.1c0-1.8,2.6-3.2,5.9-3.2C85,146.8,87.7,148.3,87.7,150L87.7,150z"/>
<path class="st8" d="M80.8,142.3c0.1,0.4-1,0.8-2.3,1.1c-1.3,0.4-2.5,0.5-2.7,0.2c-0.2-0.3,0.7-1.1,2.1-1.5
	C79.3,141.8,80.7,142,80.8,142.3L80.8,142.3z"/>
<path class="st8" d="M74.6,144.6c0.4,0.2-0.2,1-1,1.8c-0.8,0.8-1.7,1.4-2.1,1.3c-0.4-0.1-0.2-1.1,0.7-2
	C73,144.8,74.2,144.4,74.6,144.6L74.6,144.6z"/>
<path class="st8" d="M88.1,143.8c-0.2,0.3-1.4,0.1-2.7-0.2c-1.3-0.4-2.4-0.8-2.3-1.1c0.1-0.4,1.5-0.5,2.9-0.1
	C87.5,142.7,88.4,143.4,88.1,143.8L88.1,143.8z"/>
<path class="st8" d="M92.2,147.9c-0.4,0.1-1.2-0.5-2-1.3c-0.8-0.8-1.2-1.6-0.9-1.8c0.4-0.2,1.5,0.3,2.4,1.2
	C92.5,146.9,92.6,147.8,92.2,147.9L92.2,147.9z"/>
<path class="st11" d="M80.8,142.6c0.1,0.4-1,0.8-2.3,1.1c-1.3,0.4-2.5,0.5-2.7,0.2c-0.2-0.3,0.7-1.1,2.1-1.5
	C79.3,142.1,80.7,142.2,80.8,142.6L80.8,142.6z"/>
<path class="st11" d="M74.6,144.9c0.4,0.2-0.2,1-1,1.8c-0.8,0.8-1.7,1.4-2.1,1.3c-0.4-0.1-0.2-1.1,0.7-2
	C73,145.1,74.2,144.6,74.6,144.9z"/>
<path class="st11" d="M88.1,144c-0.2,0.3-1.4,0.1-2.7-0.2c-1.3-0.4-2.4-0.8-2.3-1.1c0.1-0.4,1.5-0.5,2.9-0.1
	C87.5,143,88.4,143.7,88.1,144L88.1,144z"/>
<path class="st11" d="M92.2,148.2c-0.4,0.1-1.2-0.5-2-1.3c-0.8-0.8-1.2-1.6-0.9-1.8c0.4-0.2,1.5,0.3,2.4,1.2
	C92.5,147.1,92.7,148,92.2,148.2L92.2,148.2z"/>
<path class="st8" d="M86.9,96.3c0,0,2.2,2,5.7,0.2C89.5,98.7,87,96.3,86.9,96.3z"/>
<path class="st8" d="M69.7,95.8c3.5,2.4,5.3,1.2,5.6,1.1c2.7-1.1,4.1-4.7,4.2-4.8c1.7-3.5,2.4-3,2.3-3c0,0-1.2,0.7-2.1,3.2
	c-0.1,0.2-1,3.8-5,5.1C74.6,97.4,72.1,98,69.7,95.8z"/>
<path class="st6" d="M115.7,104.1l0.3,15c-5.3,0.3-8.7,0.9-11,1.8c-0.5-3.3-0.8-7-0.8-10.8c-0.1-16,4.5-28.9,10.3-28.9
	c5,0,9.2,9.8,10.2,22.8L115.7,104.1L115.7,104.1z"/>
<path d="M105.5,127.8c-0.4-0.2-0.7-0.4-1-0.7c-0.8-1-0.8-2.7-0.7-6.3l0-3c0-27.2,0-37.4,9.4-37.5c0.5,0,1,0.1,1.5,0.3
	c6.2,2.6,9.1,21.5,9.1,38c0,2.4-0.3,4.3-1,5.8c-0.3,0.6-0.6,1.1-1,1.5c-1.9,2.1-4.7,2-7.4,2c-0.6,0-1.2,0-1.8,0
	c-1.2,0-2.2,0.1-3.1,0.1c-1.8,0.1-2.9,0.2-3.8-0.1L105.5,127.8L105.5,127.8z"/>
<path class="st2" d="M105.2,126.6c0.2,0.3,0.4,0.4,0.8,0.5l0,0c1.1,0.3,3.1,0,6.6,0c3.1-0.1,6.6,0.6,8.7-1.7
	c0.3-0.4,0.6-0.8,0.9-1.3c0.6-1.2,0.9-3,0.9-5.4c-0.1-20.7-4.2-37.5-9.8-37.5c-8.7,0-8.6,10.3-8.6,37.6
	C104.6,123.5,104.5,125.6,105.2,126.6L105.2,126.6z"/>
<radialGradient id="SVGID_00000116914385037133860570000012476596711333658808_" cx="-221.3018" cy="511.522" r="1" gradientTransform="matrix(-16.6057 6.665854e-02 0.1318 32.8385 -3625.9663 -16688.9434)" gradientUnits="userSpaceOnUse">
	<stop  offset="0" style="stop-color:#FFFFFF"/>
	<stop  offset="0.14" style="stop-color:#E1E1E1"/>
	<stop  offset="0.45" style="stop-color:#949494"/>
	<stop  offset="0.9" style="stop-color:#1B1B1B"/>
	<stop  offset="1" style="stop-color:#000000"/>
</radialGradient>
<path style="opacity:0.29;fill:url(#SVGID_00000116914385037133860570000012476596711333658808_);enable-background:new    ;" d="
	M105.2,126.6c0.2,0.3,0.4,0.4,0.8,0.5l0,0c1.1,0.3,3.1,0,6.6,0c3.1-0.1,6.6,0.6,8.7-1.7c0.3-0.4,0.6-0.8,0.9-1.3
	c0.6-1.2,0.9-3,0.9-5.4c-0.1-20.7-4.2-37.5-9.8-37.5c-8.7,0-8.6,10.3-8.6,37.6C104.6,123.5,104.5,125.6,105.2,126.6L105.2,126.6z"/>
<path class="st6" d="M108.9,125.7c0.5,2.3-1.9,1.5,3.7,1.4c4.8-0.1,10.4,1.5,10.4-8.5c-0.1-17.6-3.4-36.1-9.3-37.4
	c4.7,5.5,5.6,17.1,6.5,32.3c0.6,9.9-5.7,11.6-9,12.1C107.9,126.1,110,126,108.9,125.7L108.9,125.7z"/>
<path class="st6" d="M112.6,127.1c1.4,0,3,0.1,4.4,0c2.5-0.2,2.4-3.9-0.1-3.9c-0.2,0-0.4,0-0.6,0c-8.7,0.2-9.8,2.4-9.9-7.8
	c0-17.5-0.5-26.9,1.7-32.2c-3.2,3.5-3.5,11.4-3.5,35.5C104.7,128.9,103.9,127.3,112.6,127.1L112.6,127.1z"/>
<radialGradient id="SVGID_00000101792336431196803490000001418501348281657990_" cx="-221.9442" cy="516.1413" r="1" gradientTransform="matrix(-15.275 0.3253 0.48 22.5403 -3524.8569 -11463.042)" gradientUnits="userSpaceOnUse">
	<stop  offset="0" style="stop-color:#FFFFFF"/>
	<stop  offset="0.14" style="stop-color:#E1E1E1"/>
	<stop  offset="0.45" style="stop-color:#949494"/>
	<stop  offset="0.9" style="stop-color:#1B1B1B"/>
	<stop  offset="1" style="stop-color:#000000"/>
</radialGradient>
<path style="opacity:0.34;fill:url(#SVGID_00000101792336431196803490000001418501348281657990_);enable-background:new    ;" d="
	M116.2,110.3c0,12,0.8,18.4,0.3,18.4c-0.5,0-3.7-5.3-3.8-17.3c0-12-0.2-26.2,1.3-26.2C115.5,85.3,116.1,98.3,116.2,110.3
	L116.2,110.3z"/>
<g class="st19">
	
		<radialGradient id="SVGID_00000054224908050450618740000004406058582870015399_" cx="-221.9442" cy="516.1413" r="1" gradientTransform="matrix(-15.275 0.3253 0.48 22.5403 -3524.8569 -11463.042)" gradientUnits="userSpaceOnUse">
		<stop  offset="0" style="stop-color:#FFFFFF"/>
		<stop  offset="0.14" style="stop-color:#E1E1E1"/>
		<stop  offset="0.45" style="stop-color:#949494"/>
		<stop  offset="0.9" style="stop-color:#1B1B1B"/>
		<stop  offset="1" style="stop-color:#000000"/>
	</radialGradient>
	<path style="fill:url(#SVGID_00000054224908050450618740000004406058582870015399_);" d="M116.2,110.3c0,12,0.8,18.4,0.3,18.4
		c-0.5,0-3.7-5.3-3.8-17.3c0-12-0.2-26.2,1.3-26.2C115.5,85.3,116.1,98.3,116.2,110.3L116.2,110.3z"/>
</g>
<radialGradient id="SVGID_00000034064500761776811130000010932886442656163458_" cx="-250.728" cy="526.1519" r="1" gradientTransform="matrix(-3.9546 0.3732 1.2992 13.7672 -2211.603 -6994.3975)" gradientUnits="userSpaceOnUse">
	<stop  offset="0" style="stop-color:#FFFFFF"/>
	<stop  offset="0.14" style="stop-color:#E1E1E1"/>
	<stop  offset="0.45" style="stop-color:#949494"/>
	<stop  offset="0.9" style="stop-color:#1B1B1B"/>
	<stop  offset="1" style="stop-color:#000000"/>
</radialGradient>
<path style="opacity:0.91;fill:url(#SVGID_00000034064500761776811130000010932886442656163458_);enable-background:new    ;" d="
	M115.3,102.8c0.4,7.4-0.5,11.5-0.6,11.5c-0.1,0-0.1-3.4-0.5-10.8c-0.4-7.4-0.5-15.8-0.1-15.8C114.5,87.7,114.9,95.5,115.3,102.8
	L115.3,102.8z"/>
<g class="st22">
	
		<radialGradient id="SVGID_00000050662762555236334220000018330431264942884001_" cx="-250.728" cy="526.1519" r="1" gradientTransform="matrix(-3.9546 0.3732 1.2992 13.7672 -2211.603 -6994.3975)" gradientUnits="userSpaceOnUse">
		<stop  offset="0" style="stop-color:#FFFFFF"/>
		<stop  offset="0.14" style="stop-color:#E1E1E1"/>
		<stop  offset="0.45" style="stop-color:#949494"/>
		<stop  offset="0.9" style="stop-color:#1B1B1B"/>
		<stop  offset="1" style="stop-color:#000000"/>
	</radialGradient>
	<path style="fill:url(#SVGID_00000050662762555236334220000018330431264942884001_);" d="M115.3,102.8c0.4,7.4-0.5,11.5-0.6,11.5
		c-0.1,0-0.1-3.4-0.5-10.8c-0.4-7.4-0.5-15.8-0.1-15.8C114.5,87.7,114.9,95.5,115.3,102.8L115.3,102.8z"/>
</g>
<path class="st6" d="M105.9,127.3h0.1c-0.1-0.5-0.1-1.2-0.1-1.7c0-1.4,2.7-1.9,2.6-3.4c-0.1-1.3,0.8-2.4,2.1-3.2
	c1.6-0.9,3.7-1.2,4.9-0.8c1,0.4,1.4,1.5,0,3.3c-0.1,0.1-0.1,0.1-0.1,0.2c-0.3,0.8,2.3,0.9,3.1,1c0.7,0.1,1.2,0.3,1.7,0.6
	c0.8,0.4,1.2,1.1,1.2,2c0.3-0.4,1.3-2.2,1.6-2.7c-0.3-1.1-1-1.4-2.5-1.8c-0.8-0.2-3.5,0.2-2.8-0.8c2.1-2.8-1.8-3.3-3.6-3.1
	c-2.8,0.3-7,1.2-6.7,3.9c0.2,1.5-2.6,2.4-2.6,3.8c0,0.5,0.3,1.4,0.6,1.8"/>
<path d="M110.5,136.1c-3.5-1.5-5.4-6.4-5.5-10.4c0-1.1,0.9-1.7,1.6-2.3c0.6-0.5,1-0.8,1-1.1c-0.1-1.3,0.5-2.5,1.8-3.5
	c1.9-1.4,4.7-1.9,6.3-1.2c0.8,0.4,1.2,1,1.3,1.4c0.2,0.8,0,1.7-0.7,2.7c0.4,0.1,1,0.2,1.4,0.2c0.3,0,0.6,0.1,0.8,0.1
	c0.5,0.1,1,0.3,1.4,0.4c1,0.4,1.6,1,1.9,1.8c0.5,1.2,0.2,2.9-1,5.4c-2,4.2-5.9,7.8-9.7,6.7C111,136.3,110.8,136.2,110.5,136.1
	L110.5,136.1z"/>
<radialGradient id="SVGID_00000181075444470604076390000016241740795688390555_" cx="-215.914" cy="510.4038" r="1" gradientTransform="matrix(-41.5 -10.3517 -7.3748 29.5655 -5079.189 -17206.0879)" gradientUnits="userSpaceOnUse">
	<stop  offset="0" style="stop-color:#FFFFFF"/>
	<stop  offset="0.31" style="stop-color:#A6A6A6"/>
	<stop  offset="0.65" style="stop-color:#4D4D4D"/>
	<stop  offset="0.89" style="stop-color:#151515"/>
	<stop  offset="1" style="stop-color:#000000"/>
</radialGradient>
<path style="fill:url(#SVGID_00000181075444470604076390000016241740795688390555_);" d="M105.9,125.7c0.1,3.8,1.9,8.9,5.6,9.9
	c3.4,1,7-2.6,8.7-6.3c2.1-4.4,1.1-5.9-1.7-6.5c-0.8-0.2-3.7-0.2-3-1.2c4.1-5.5-7.5-3.8-7,0.7C108.6,123.7,105.8,124.3,105.9,125.7
	L105.9,125.7z"/>
<radialGradient id="SVGID_00000061459533007102106240000015483103341198108051_" cx="-215.914" cy="510.4038" r="1" gradientTransform="matrix(-41.5 -10.3517 -7.3748 29.5655 -5079.189 -17206.0879)" gradientUnits="userSpaceOnUse">
	<stop  offset="0" style="stop-color:#FFFFFF"/>
	<stop  offset="0.31" style="stop-color:#A6A6A6"/>
	<stop  offset="0.65" style="stop-color:#4D4D4D"/>
	<stop  offset="0.89" style="stop-color:#151515"/>
	<stop  offset="1" style="stop-color:#000000"/>
</radialGradient>
<path style="fill:url(#SVGID_00000061459533007102106240000015483103341198108051_);" d="M105.9,125.7c0.1,3.8,1.9,8.9,5.6,9.9
	c3.4,1,7-2.6,8.7-6.3c2.1-4.4,1.1-5.9-1.7-6.5c-0.8-0.2-3.7-0.2-3-1.2c4.1-5.5-7.5-3.8-7,0.7C108.6,123.7,105.8,124.3,105.9,125.7
	L105.9,125.7z"/>
<radialGradient id="SVGID_00000024704619934659891740000011377343535062514609_" cx="-213.8245" cy="511.8" r="1" gradientTransform="matrix(-45.3926 0.9271 0.6584 32.2356 -9911.9199 -16162.6807)" gradientUnits="userSpaceOnUse">
	<stop  offset="0" style="stop-color:#FFFFFF"/>
	<stop  offset="9.000000e-02" style="stop-color:#DDDDDD"/>
	<stop  offset="0.28" style="stop-color:#9A9A9A"/>
	<stop  offset="0.47" style="stop-color:#636363"/>
	<stop  offset="0.63" style="stop-color:#383838"/>
	<stop  offset="0.78" style="stop-color:#191919"/>
	<stop  offset="0.91" style="stop-color:#060606"/>
	<stop  offset="1" style="stop-color:#000000"/>
</radialGradient>
<path style="fill:url(#SVGID_00000024704619934659891740000011377343535062514609_);" d="M108.7,133.3c0.2,1.6,2.3,2.7,4.7,2.4
	c2.4-0.3,4.2-1.8,4-3.4c-0.2-1.6-2.3-2.7-4.7-2.4C110.3,130.1,108.5,131.7,108.7,133.3z"/>
<radialGradient id="SVGID_00000050664805658128506560000010709307755255615390_" cx="-213.8245" cy="511.8" r="1" gradientTransform="matrix(-45.3926 0.9271 0.6584 32.2356 -9911.9199 -16162.6807)" gradientUnits="userSpaceOnUse">
	<stop  offset="0" style="stop-color:#FFFFFF"/>
	<stop  offset="9.000000e-02" style="stop-color:#DDDDDD"/>
	<stop  offset="0.28" style="stop-color:#9A9A9A"/>
	<stop  offset="0.47" style="stop-color:#636363"/>
	<stop  offset="0.63" style="stop-color:#383838"/>
	<stop  offset="0.78" style="stop-color:#191919"/>
	<stop  offset="0.91" style="stop-color:#060606"/>
	<stop  offset="1" style="stop-color:#000000"/>
</radialGradient>
<path style="fill:url(#SVGID_00000050664805658128506560000010709307755255615390_);" d="M108.7,133.3c0.2,1.6,2.3,2.7,4.7,2.4
	c2.4-0.3,4.2-1.8,4-3.4c-0.2-1.6-2.3-2.7-4.7-2.4C110.3,130.1,108.5,131.7,108.7,133.3z"/>
<path d="M109.7,133.3c0.1,1.2,1.6,2.1,3.5,2c1.8-0.1,3.3-1.2,3.2-2.4c-0.1-1.2-1.6-2.1-3.5-2C111,130.9,109.6,132,109.7,133.3
	L109.7,133.3z"/>
<path d="M113.2,122.4c0.3,0,0.5-0.2,0.5-0.5l0-2.9c0-0.3-0.2-0.5-0.5-0.5c-0.3,0-0.5,0.2-0.5,0.5l0,2.9
	C112.8,122.2,113,122.4,113.2,122.4z"/>
<path d="M110.5,122.7L110.5,122.7c0.3,0,0.5-0.2,0.5-0.5l0-2.6c0-0.3-0.2-0.5-0.5-0.5l-0.1,0c-0.3,0-0.5,0.2-0.5,0.5l0,2.6
	C110,122.5,110.3,122.7,110.5,122.7L110.5,122.7z"/>
</svg>
