<?xml version="1.0" encoding="utf-8"?>
<!-- Generator: Adobe Illustrator 26.0.1, SVG Export Plug-In . SVG Version: 6.00 Build 0)  -->
<svg version="1.1" id="Слой_1" xmlns="http://www.w3.org/2000/svg" xmlns:xlink="http://www.w3.org/1999/xlink" x="0px" y="0px"
	 viewBox="0 0 126.9 142.3" style="enable-background:new 0 0 126.9 142.3;" xml:space="preserve">
<style type="text/css">
	.st0{fill:#FC932D;}
	.st1{opacity:0.2;fill:url(#SVGID_1_);enable-background:new    ;}
	.st2{fill:#BAC1CD;}
	.st3{opacity:0.3;enable-background:new    ;}
	.st4{opacity:0.2;fill:#FFFFFF;enable-background:new    ;}
	.st5{fill:url(#SVGID_00000053527230315622250380000001454415317493989278_);}
	.st6{opacity:0.5;}
	.st7{fill:#FFFFFF;}
	.st8{fill:url(#SVGID_00000182494870140251149250000001066432571051075987_);}
	.st9{opacity:0.15;enable-background:new    ;}
	.st10{fill:#3C404D;}
	.st11{opacity:0.8;fill:url(#SVGID_00000174587010030061449590000008795364538247794325_);enable-background:new    ;}
	.st12{fill:#F8872D;}
	.st13{opacity:0.7;fill:url(#SVGID_00000124153080651698268310000012173001891672974209_);enable-background:new    ;}
	.st14{fill:#B3B3B3;}
	.st15{fill:url(#SVGID_00000177474095226453717770000004684626179220722339_);}
	.st16{opacity:0.8;fill:url(#SVGID_00000047755880934390034220000000977305535548055219_);enable-background:new    ;}
	.st17{opacity:0.7;enable-background:new    ;}
	.st18{fill:url(#SVGID_00000145051473381913074730000001165604759387392943_);}
	.st19{opacity:0.7;fill:#FFFFFF;enable-background:new    ;}
	.st20{opacity:0.9;enable-background:new    ;}
	.st21{fill:none;stroke:#000000;stroke-width:0.79;stroke-miterlimit:10;}
	.st22{opacity:0.8;fill:url(#SVGID_00000093144713979234348010000010512220252570384562_);enable-background:new    ;}
	.st23{opacity:0.7;fill:url(#SVGID_00000033355562243030901100000015644946399704342668_);enable-background:new    ;}
	.st24{fill:url(#SVGID_00000141447688192261253220000004256592617757720965_);}
	.st25{opacity:0.8;fill:url(#SVGID_00000140711637752557172290000005097363521224497338_);enable-background:new    ;}
	.st26{fill:url(#SVGID_00000113318644951735575350000011717898011333582500_);}
	.st27{opacity:0.5;fill:url(#SVGID_00000102532963665628418150000002981539134328627644_);enable-background:new    ;}
	.st28{fill:#19224C;}
	.st29{fill:url(#SVGID_00000140007242951992630930000017379783360310757557_);}
	.st30{fill:#FB9854;}
	.st31{opacity:0.7;fill:url(#SVGID_00000103974677140963401140000013620323546215185809_);enable-background:new    ;}
	.st32{opacity:0.8;fill:url(#SVGID_00000150094365722692816960000018281108058105612443_);enable-background:new    ;}
	.st33{fill:url(#SVGID_00000096021196227968163090000010128385724441957248_);}
	.st34{fill:url(#SVGID_00000104672099164840428100000017409807636677250445_);}
	.st35{opacity:0.51;}
	.st36{fill:url(#SVGID_00000149340355095843027760000001676199101479189151_);}
	.st37{fill:url(#SVGID_00000021103548834473169490000013734276699637427360_);}
	.st38{fill:url(#SVGID_00000000215342371921158370000008250576684500271542_);}
	.st39{fill:url(#SVGID_00000089554028640300115730000010082462858043226292_);}
	.st40{fill:url(#SVGID_00000076604454500553343870000009710473974076967307_);}
	.st41{fill:url(#SVGID_00000160171784527002685720000016427371882196937624_);}
</style>
<path class="st0" d="M73.9,78.8c-0.5,0.1-1,0.2-1.6,0.2l-18.1-0.1c-1.2,0-2.4-0.7-3.1-1.8c-1.2-2-1.4-2.3-1.5-2.4L2.9,62
	c-1.6-0.4-2.7-1.9-2.7-3.5l0-21.3c0-1.6,1.1-3.1,2.6-3.5c0.3-0.1,0.6-0.1,1-0.1l119.3,0.6c2,0,3.6,1.7,3.6,3.7l0,21.3
	c0,1.6-1.1,3.1-2.6,3.5l-46,12.3c0,0-0.3,0.4-0.8,1.3C76.5,77.5,75.3,78.4,73.9,78.8L73.9,78.8z"/>
<radialGradient id="SVGID_1_" cx="-230.1304" cy="484.3817" r="1" gradientTransform="matrix(66.129 0.3579 0.3599 -66.4925 15107.5977 32340.3457)" gradientUnits="userSpaceOnUse">
	<stop  offset="0" style="stop-color:#000000"/>
	<stop  offset="0.15" style="stop-color:#030303"/>
	<stop  offset="0.28" style="stop-color:#0E0E0E"/>
	<stop  offset="0.4" style="stop-color:#202020"/>
	<stop  offset="0.51" style="stop-color:#393939"/>
	<stop  offset="0.63" style="stop-color:#595959"/>
	<stop  offset="0.74" style="stop-color:#818181"/>
	<stop  offset="0.85" style="stop-color:#B1B1B1"/>
	<stop  offset="0.96" style="stop-color:#E6E6E6"/>
	<stop  offset="1" style="stop-color:#FFFFFF"/>
</radialGradient>
<path class="st1" d="M73.9,78.8c-0.5,0.1-1,0.2-1.6,0.2l-18.1-0.1c-1.2,0-2.4-0.7-3.1-1.8c-1.2-2-1.4-2.3-1.5-2.4L2.9,62
	c-1.6-0.4-2.7-1.9-2.7-3.5l0-21.3c0-1.6,1.1-3.1,2.6-3.5c0.3-0.1,0.6-0.1,1-0.1l119.3,0.6c2,0,3.6,1.7,3.6,3.7l0,21.3
	c0,1.6-1.1,3.1-2.6,3.5l-46,12.3c0,0-0.3,0.4-0.8,1.3C76.5,77.5,75.3,78.4,73.9,78.8L73.9,78.8z"/>
<path d="M2.9,33.9c0.3-0.1,0.6-0.1,0.9-0.1l119.3,0.6c1.9,0,3.4,1.6,3.4,3.5l0,21.3c0,1.5-1,2.9-2.5,3.3c0,0,0,0-0.1,0L78,74.8
	c-0.1,0-0.5,0.6-0.9,1.4c-0.7,1.2-1.9,2.1-3.2,2.4c-0.5,0.1-1,0.2-1.5,0.2l-18.1-0.1c-1.2,0-2.3-0.6-2.9-1.7
	c-0.7-1.1-1.5-2.4-1.5-2.4L3,61.8c-1.5-0.4-2.6-1.8-2.6-3.3l0-21.3C0.4,35.6,1.5,34.3,2.9,33.9 M2.8,33.5C1.2,34,0,35.5,0,37.2
	l0,21.3c0,1.8,1.2,3.3,2.9,3.7L49.6,75c0.1,0.2,0.4,0.7,1.4,2.3c0.7,1.1,1.9,1.8,3.2,1.9l18.1,0.1c0.5,0,1.1-0.1,1.6-0.2
	c1.4-0.4,2.7-1.3,3.4-2.6c0.5-0.8,0.7-1.2,0.8-1.3L124,62.9c1.7-0.5,2.9-2,2.9-3.7l0-21.3c0-2.1-1.7-3.8-3.8-3.9L3.9,33.4
	C3.5,33.4,3.2,33.4,2.8,33.5z"/>
<path class="st2" d="M100.6,59.3l-74.4-0.4c-4.2,0-7.8,3-8.7,7l32.2,8.8c0.1,0,0.9,1.3,1.5,2.4c0.6,1,1.7,1.7,2.9,1.7l18.1,0.1
	c1.9,0,3.7-1,4.7-2.6c0.5-0.8,0.9-1.4,0.9-1.4l31.2-8.4C108.5,62.4,104.9,59.3,100.6,59.3z"/>
<path class="st3" d="M126.5,56.5l0,2.7c0,1.6-1.1,2.9-2.6,3.3L78,74.8c-0.1,0-0.5,0.6-0.9,1.4c-1,1.6-2.8,2.6-4.7,2.6l-18.1-0.1
	c-1.2,0-2.3-0.6-2.9-1.7c-0.7-1.1-1.5-2.4-1.5-2.4L3,61.8c-0.2,0-0.3-0.1-0.5-0.2c0,0-0.1,0-0.1-0.1c0,0-0.1,0-0.1,0
	c0,0-0.1,0-0.1,0c0,0,0,0,0,0c0,0-0.1,0-0.1,0c0,0-0.1,0-0.1-0.1c0,0,0,0-0.1,0c-0.1,0-0.1-0.1-0.2-0.1c0,0-0.1,0-0.1-0.1
	c0,0,0,0-0.1-0.1c0,0,0,0-0.1-0.1c0,0,0,0,0,0c0,0-0.1-0.1-0.1-0.1c0,0-0.1-0.1-0.1-0.1c0,0-0.1-0.1-0.1-0.1c0,0,0,0,0,0
	c0,0-0.1-0.1-0.1-0.2c0,0-0.1-0.1-0.1-0.1c0,0,0,0,0,0c0-0.1-0.1-0.1-0.1-0.2c0,0,0,0,0-0.1c0-0.1-0.1-0.1-0.1-0.2c0,0,0-0.1,0-0.1
	c0-0.1,0-0.1-0.1-0.2c0,0,0-0.1,0-0.1c0-0.1,0-0.1-0.1-0.2c0,0,0-0.1,0-0.1c0,0,0,0,0,0c0,0,0-0.1,0-0.1c0,0,0-0.1,0-0.1
	c0-0.1,0-0.2,0-0.2c0,0,0,0,0-0.1c0,0,0-0.1,0-0.1c0,0,0-0.1,0-0.1l0-2.7c0,1.3,0.8,2.5,1.9,3.1C2.5,59,2.7,59.1,3,59.1l46.8,12.8
	c0.1,0,0.9,1.3,1.5,2.4c0.6,1,1.7,1.7,2.9,1.7l18.1,0.1c1.9,0,3.7-1,4.7-2.6c0.5-0.8,0.9-1.4,0.9-1.4l45.9-12.3
	C125.4,59.4,126.5,58,126.5,56.5L126.5,56.5z"/>
<path class="st4" d="M49.2,63.1c0,1.2-1,2.1-2.1,2.1c-1.2,0-2.1-1-2.1-2.1c0-1.2,1-2.1,2.1-2.1C48.3,61,49.2,62,49.2,63.1z"/>
<linearGradient id="SVGID_00000161633001450565076670000006529729062463547828_" gradientUnits="userSpaceOnUse" x1="45.7334" y1="75.9494" x2="48.3011" y2="72.8845" gradientTransform="matrix(1 0 0 -1 0 137.455)">
	<stop  offset="0" style="stop-color:#B3B3B3"/>
	<stop  offset="1" style="stop-color:#000000"/>
</linearGradient>
<path style="fill:url(#SVGID_00000161633001450565076670000006529729062463547828_);" d="M49.1,63.1c0,1.1-0.9,2-2,2
	c-1.1,0-2-0.9-2-2c0-1.1,0.9-2,2-2C48.2,61.1,49.1,62,49.1,63.1z"/>
<path class="st2" d="M48.8,63.1c0,0.9-0.8,1.7-1.7,1.7c-0.9,0-1.7-0.8-1.7-1.7c0-0.9,0.8-1.7,1.7-1.7C48,61.4,48.8,62.2,48.8,63.1z"
	/>
<g class="st6">
	<path class="st7" d="M46.7,61.7c0.1,0,0.3-0.1,0.4-0.1c0.8,0,1.5,0.7,1.5,1.5c0,0.7-0.4,1.2-1.1,1.4c-0.1,0-0.3,0.1-0.4,0.1
		c-0.8,0-1.5-0.7-1.5-1.5C45.6,62.4,46.1,61.9,46.7,61.7 M46.6,61.5c-0.7,0.2-1.2,0.8-1.2,1.6c0,0.9,0.7,1.7,1.7,1.7
		c0.2,0,0.3,0,0.5-0.1c0.7-0.2,1.2-0.8,1.2-1.6c0-0.9-0.7-1.7-1.7-1.7C46.9,61.4,46.8,61.5,46.6,61.5z"/>
</g>
<path class="st4" d="M82.3,63.3c0,1.2-1,2.1-2.1,2.1c-1.2,0-2.1-1-2.1-2.1c0-1.2,1-2.1,2.1-2.1C81.4,61.2,82.3,62.1,82.3,63.3z"/>
<linearGradient id="SVGID_00000166667833371588062340000014170074898644930983_" gradientUnits="userSpaceOnUse" x1="78.8376" y1="75.7719" x2="81.4025" y2="72.7074" gradientTransform="matrix(1 0 0 -1 0 137.455)">
	<stop  offset="0" style="stop-color:#B3B3B3"/>
	<stop  offset="1" style="stop-color:#000000"/>
</linearGradient>
<path style="fill:url(#SVGID_00000166667833371588062340000014170074898644930983_);" d="M82.2,63.3c0,1.1-0.9,2-2,2
	c-1.1,0-2-0.9-2-2c0-1.1,0.9-2,2-2C81.3,61.3,82.2,62.2,82.2,63.3z"/>
<path class="st2" d="M81.9,63.3c0,0.9-0.8,1.7-1.7,1.7c-0.9,0-1.7-0.8-1.7-1.7c0-0.9,0.8-1.7,1.7-1.7C81.1,61.6,81.9,62.4,81.9,63.3
	z"/>
<g class="st6">
	<path class="st7" d="M79.8,61.9c0.1,0,0.3-0.1,0.4-0.1c0.8,0,1.5,0.7,1.5,1.5c0,0.7-0.4,1.2-1.1,1.4c-0.1,0-0.3,0.1-0.4,0.1
		c-0.4,0-0.8-0.2-1-0.4c-0.3-0.3-0.4-0.7-0.4-1.1C78.7,62.6,79.2,62,79.8,61.9 M79.7,61.7c-0.7,0.2-1.2,0.8-1.2,1.6
		c0,0.9,0.7,1.7,1.7,1.7c0.2,0,0.3,0,0.5-0.1c0.7-0.2,1.2-0.8,1.2-1.6c0-0.9-0.7-1.7-1.7-1.7C80,61.6,79.9,61.6,79.7,61.7z"/>
</g>
<path class="st9" d="M27.9,68.7l0.1-35.1l8.9,0c0,0-2.7,22-3.3,26.3C32.9,64.2,32.1,69.9,27.9,68.7L27.9,68.7z"/>
<path class="st9" d="M15.5,68.6l0.1-35.1l-8.9,0c0,0,2.6,22,3.2,26.3S11.4,69.7,15.5,68.6L15.5,68.6z"/>
<path class="st10" d="M21.1,31.1c-2.8,0-5-2.9-5-6.5c0-3.6,2.3-6.5,5-6.5c2.8,0,5,2.9,5,6.5C26.1,28.2,23.9,31.1,21.1,31.1z"/>
<path d="M21.2,18.2c2.7,0,4.9,2.9,4.9,6.4c0,3.5-2.2,6.4-4.9,6.4c-2.7,0-4.9-2.9-4.9-6.4C16.3,21,18.4,18.2,21.2,18.2z M21.2,18
	c-1.4,0-2.7,0.7-3.6,1.9c-1,1.2-1.5,2.9-1.5,4.7c0,1.8,0.5,3.4,1.5,4.7c1,1.3,2.3,2,3.6,2c1.4,0,2.7-0.7,3.6-1.9
	c1-1.2,1.5-2.9,1.5-4.7c0-1.8-0.5-3.4-1.5-4.7C23.8,18.7,22.5,18,21.2,18L21.2,18z"/>
<path class="st0" d="M26,25.1c-3.4-0.5-6.6-0.5-9.8-0.1l0-1.4c3.3-0.8,6.5-0.8,9.8,0.1L26,25.1z"/>
<radialGradient id="SVGID_00000175314599761048447190000002019830946911864753_" cx="-173.4395" cy="402.1572" r="1" gradientTransform="matrix(3.9979 2.163932e-02 2.175823e-02 -4.0199 705.7751 1641.9396)" gradientUnits="userSpaceOnUse">
	<stop  offset="0" style="stop-color:#FFFFFF"/>
	<stop  offset="9.000000e-02" style="stop-color:#F3F3F3"/>
	<stop  offset="0.24" style="stop-color:#D4D4D4"/>
	<stop  offset="0.45" style="stop-color:#A2A2A2"/>
	<stop  offset="0.7" style="stop-color:#5C5C5C"/>
	<stop  offset="0.98" style="stop-color:#050505"/>
	<stop  offset="1" style="stop-color:#000000"/>
</radialGradient>
<path style="opacity:0.8;fill:url(#SVGID_00000175314599761048447190000002019830946911864753_);enable-background:new    ;" d="
	M21.1,31.1c-2.8,0-5-2.9-5-6.5c0-3.6,2.3-6.5,5-6.5c2.8,0,5,2.9,5,6.5C26.1,28.2,23.9,31.1,21.1,31.1z"/>
<path d="M27.4,67.9c-1.8,0.5-4,0.7-6.3,0.7c-4.7,0-9.8-1.3-9.9-3.5L8.6,30.4l0-0.9c-0.1-1.8,1.6-3.4,4.9-4.3
	c2.1-0.6,4.8-0.9,7.7-0.9c5.5,0,10,1.2,11.8,3.1c0.6,0.7,0.9,1.4,0.8,2.2l0.4,0l-0.4,0.9l-2.6,34.6C31,66.3,29.7,67.2,27.4,67.9
	L27.4,67.9z"/>
<path class="st12" d="M33.3,29.6c0.2-2.9-5.2-4.8-12.2-4.9c-7,0-12.4,1.8-12.2,4.7c0,0.1,0,0.8,0,0.9h0L11.6,65c0,0,0,0,0,0
	c0.1,1.7,4.4,3.2,9.5,3.2c5.1,0,9.4-1.3,9.6-3.1c0,0,0,0,0,0l2.6-34.6h0C33.3,30.4,33.3,29.7,33.3,29.6L33.3,29.6z"/>
<linearGradient id="SVGID_00000067217088161444289300000006173922588260565419_" gradientUnits="userSpaceOnUse" x1="4.9574" y1="90.3581" x2="40.2325" y2="91.73" gradientTransform="matrix(1 0 0 -1 0 137.455)">
	<stop  offset="0" style="stop-color:#FFFFFF"/>
	<stop  offset="5.000000e-02" style="stop-color:#B4B4B4"/>
	<stop  offset="0.1" style="stop-color:#747474"/>
	<stop  offset="0.14" style="stop-color:#424242"/>
	<stop  offset="0.18" style="stop-color:#1E1E1E"/>
	<stop  offset="0.21" style="stop-color:#080808"/>
	<stop  offset="0.23" style="stop-color:#000000"/>
	<stop  offset="0.3" style="stop-color:#595959"/>
	<stop  offset="0.36" style="stop-color:#A0A0A0"/>
	<stop  offset="0.41" style="stop-color:#D3D3D3"/>
	<stop  offset="0.44" style="stop-color:#F3F3F3"/>
	<stop  offset="0.46" style="stop-color:#FFFFFF"/>
	<stop  offset="0.49" style="stop-color:#F3F3F3"/>
	<stop  offset="0.54" style="stop-color:#D4D4D4"/>
	<stop  offset="0.6" style="stop-color:#A2A2A2"/>
	<stop  offset="0.68" style="stop-color:#5C5C5C"/>
	<stop  offset="0.76" style="stop-color:#050505"/>
	<stop  offset="0.77" style="stop-color:#000000"/>
</linearGradient>
<path style="opacity:0.7;fill:url(#SVGID_00000067217088161444289300000006173922588260565419_);enable-background:new    ;" d="
	M33.3,29.6c0.2-2.9-5.2-4.8-12.2-4.9c-7,0-12.4,1.8-12.2,4.7c0,0.1,0,0.8,0,0.9h0L11.6,65c0,0,0,0,0,0c0.1,1.7,4.4,3.2,9.5,3.2
	c5.1,0,9.4-1.3,9.6-3.1c0,0,0,0,0,0l2.6-34.6h0C33.3,30.4,33.3,29.7,33.3,29.6L33.3,29.6z"/>
<path d="M33.1,34.5c-1.2-2.1-5.8-3.5-11.8-3.5c-2.9,0-5.5,0.3-7.6,0.9c-2.2,0.6-3.7,1.5-4.2,2.5L9,30.9l0-0.9
	c-0.1-1.7,1.5-3.1,4.6-3.9c2.1-0.6,4.8-0.9,7.7-0.9c5.4,0,9.9,1.2,11.5,3c0.5,0.6,0.8,1.2,0.7,1.9l0.1,0L33.5,31l-0.3,3.8L33.1,34.5
	L33.1,34.5z"/>
<path d="M33,34.1c-1.2-2.1-5.8-3.5-11.8-3.5c-2.9,0-5.5,0.3-7.6,0.9c-2.2,0.6-3.7,1.5-4.2,2.5l-0.4-3.5l0-0.9
	c-0.1-1.7,1.5-3.1,4.6-3.9c2.1-0.6,4.8-0.9,7.7-0.9c5.4,0,9.9,1.2,11.5,3c0.5,0.6,0.8,1.2,0.7,1.9h0.1l-0.1,0.9l-0.3,3.8L33,34.1
	L33,34.1z"/>
<path d="M9.1,30.8L9.1,30.8l0.2,3.5c1.2-2.2,6-3.5,11.9-3.4c5.9,0,10.7,1.4,11.9,3.6l0.3-3.5h0c0-0.1,0-0.8,0-0.9
	c0.2-2.9-5.2-4.8-12.2-4.9c-7,0-12.4,1.8-12.2,4.7C9,30,9.1,30.7,9.1,30.8z"/>
<path d="M9,30.4L9,30.4l0.2,3.5c1.2-2.2,6-3.5,11.9-3.4c5.9,0,10.7,1.4,11.9,3.6l0.3-3.5l0,0c0-0.1,0-0.8,0-0.9
	c0.2-2.9-5.2-4.8-12.2-4.9c-7,0-12.4,1.8-12.2,4.7C8.9,29.6,8.9,30.3,9,30.4L9,30.4z"/>
<path class="st7" d="M8.9,30.2L8.9,30.2l0.2,3.5c1.2-2.2,6-3.5,11.9-3.4c5.9,0,10.7,1.4,11.9,3.6l0.3-3.5h0c0-0.1,0-0.8,0-0.9
	c0.2-2.9-5.2-4.8-12.2-4.9c-7,0-12.4,1.8-12.2,4.7C8.9,29.4,8.9,30.1,8.9,30.2L8.9,30.2z"/>
<path class="st14" d="M9,30.4L9,30.4l0.2,3.5c1.2-2.2,6-3.5,11.9-3.4c5.9,0,10.7,1.4,11.9,3.6l0.3-3.5l0,0c0-0.1,0-0.8,0-0.9
	c0.2-2.9-5.2-4.8-12.2-4.9c-7,0-12.4,1.8-12.2,4.7C8.9,29.6,8.9,30.3,9,30.4L9,30.4z"/>
<linearGradient id="SVGID_00000088091539892033896560000018278537877523685308_" gradientUnits="userSpaceOnUse" x1="8.8541" y1="108.0715" x2="33.2853" y2="108.0244" gradientTransform="matrix(1 0 0 -1 0 137.455)">
	<stop  offset="0" style="stop-color:#000000"/>
	<stop  offset="8.000000e-02" style="stop-color:#3F3F3F"/>
	<stop  offset="0.17" style="stop-color:#787878"/>
	<stop  offset="0.25" style="stop-color:#A8A8A8"/>
	<stop  offset="0.33" style="stop-color:#CECECE"/>
	<stop  offset="0.4" style="stop-color:#E9E9E9"/>
	<stop  offset="0.46" style="stop-color:#F9F9F9"/>
	<stop  offset="0.51" style="stop-color:#FFFFFF"/>
	<stop  offset="0.56" style="stop-color:#F8F8F8"/>
	<stop  offset="0.62" style="stop-color:#E6E6E6"/>
	<stop  offset="0.69" style="stop-color:#C9C9C9"/>
	<stop  offset="0.77" style="stop-color:#A0A0A0"/>
	<stop  offset="0.85" style="stop-color:#6C6C6C"/>
	<stop  offset="0.94" style="stop-color:#2D2D2D"/>
	<stop  offset="1" style="stop-color:#000000"/>
</linearGradient>
<path style="fill:url(#SVGID_00000088091539892033896560000018278537877523685308_);" d="M9,30.4L9,30.4l0.2,3.5
	c1.2-2.2,6-3.5,11.9-3.4c5.9,0,10.7,1.4,11.9,3.6l0.3-3.5l0,0c0-0.1,0-0.8,0-0.9c0.2-2.9-5.2-4.8-12.2-4.9c-7,0-12.4,1.8-12.2,4.7
	C8.9,29.6,8.9,30.3,9,30.4L9,30.4z"/>
<radialGradient id="SVGID_00000062902429334144129800000000933680874878237062_" cx="-137.4105" cy="473.2412" r="1" gradientTransform="matrix(2.5045 1.443506e-02 0.1234 -21.4053 300.0163 10175.5576)" gradientUnits="userSpaceOnUse">
	<stop  offset="0" style="stop-color:#FFFFFF"/>
	<stop  offset="4.000000e-02" style="stop-color:#E6E6E6"/>
	<stop  offset="0.15" style="stop-color:#B1B1B1"/>
	<stop  offset="0.26" style="stop-color:#818181"/>
	<stop  offset="0.37" style="stop-color:#595959"/>
	<stop  offset="0.49" style="stop-color:#393939"/>
	<stop  offset="0.6" style="stop-color:#202020"/>
	<stop  offset="0.72" style="stop-color:#0E0E0E"/>
	<stop  offset="0.85" style="stop-color:#030303"/>
	<stop  offset="1" style="stop-color:#000000"/>
</radialGradient>
<path style="opacity:0.8;fill:url(#SVGID_00000062902429334144129800000000933680874878237062_);enable-background:new    ;" d="
	M23.6,46.8c0,11.8-1.2,21.4-2.6,21.4c-1.4,0-2.5-9.6-2.5-21.4c0-11.8,1.2-21.4,2.6-21.4C22.5,25.5,23.7,35,23.6,46.8z"/>
<path class="st17" d="M28.9,65.8c0,1.6,0.6,2-8.3,2c-8.9,0-8.3-0.5-8.3-2c0-1.6,3.7-2.9,8.3-2.8C25.2,63,28.9,64.3,28.9,65.8z"/>
<path class="st10" d="M24.4,75.9c-1.1,0.3-2.4,0.5-3.7,0.5c-3.7,0-6.8-1.4-7-3.1l-0.7-5.8c-0.1-2,0.9-3,3-3.6
	c1.3-0.4,2.9-0.5,4.8-0.5c3.5,0,6.1,0.7,7.2,1.9c0.4,0.5,0.6,1,0.5,1.6l-0.8,6.5C27.5,74.5,26.3,75.4,24.4,75.9L24.4,75.9z"/>
<linearGradient id="SVGID_00000078745468831894674570000015709686555115429528_" gradientUnits="userSpaceOnUse" x1="12.8768" y1="67.5498" x2="28.3722" y2="67.5199" gradientTransform="matrix(1 0 0 -1 0 137.455)">
	<stop  offset="0" style="stop-color:#000000"/>
	<stop  offset="0.51" style="stop-color:#FFFFFF"/>
	<stop  offset="0.58" style="stop-color:#FBFBFB"/>
	<stop  offset="0.64" style="stop-color:#EFEFEF"/>
	<stop  offset="0.7" style="stop-color:#DCDCDC"/>
	<stop  offset="0.76" style="stop-color:#C1C1C1"/>
	<stop  offset="0.82" style="stop-color:#9F9F9F"/>
	<stop  offset="0.88" style="stop-color:#747474"/>
	<stop  offset="0.94" style="stop-color:#424242"/>
	<stop  offset="0.99" style="stop-color:#090909"/>
	<stop  offset="1" style="stop-color:#000000"/>
</linearGradient>
<path style="fill:url(#SVGID_00000078745468831894674570000015709686555115429528_);" d="M24.4,75.9c-1.1,0.3-2.4,0.5-3.7,0.5
	c-3.7,0-6.8-1.4-7-3.1l-0.7-5.8c-0.1-2,0.9-3,3-3.6c1.3-0.4,2.9-0.5,4.8-0.5c3.5,0,6.1,0.7,7.2,1.9c0.4,0.5,0.6,1,0.5,1.6l-0.8,6.5
	C27.5,74.5,26.3,75.4,24.4,75.9L24.4,75.9z"/>
<path d="M16,64.2c1.3-0.4,2.9-0.5,4.7-0.5c4.4,0,7.8,1.2,7.5,3.2l0,0.7l0,0l-0.7,5.7l0,0c0,0,0,0,0,0c-0.1,1-1.4,1.9-3.2,2.4
	c-1.1,0.3-2.3,0.5-3.7,0.5c-3.6,0-6.6-1.3-6.8-2.9c0-0.1,0-0.1,0-0.2l-0.7-5.6l0-0.7C13,65.6,14.1,64.7,16,64.2 M15.9,63.8
	c-2.9,0.8-3.2,2.3-3.1,3.1l0,0.7l0.7,5.7c0,0,0,0.1,0,0.2c0.2,1.8,3.3,3.2,7.2,3.2c1.3,0,2.6-0.2,3.8-0.5c1.8-0.5,3.1-1.4,3.4-2.4
	l0,0l0.1-0.3l0.7-5.7l0-0.8c0.1-0.6-0.1-1.2-0.6-1.7c-1.1-1.2-3.8-2-7.4-2C18.8,63.2,17.2,63.4,15.9,63.8L15.9,63.8z"/>
<path class="st19" d="M24.3,75.8c-1.1,0.3-2.4,0.5-3.7,0.5c-3.7,0-6.7-1.3-6.9-3c0,0,0-0.1-0.2-1.1c-0.1-1.1,1-2.1,3.1-2.7
	c1.2-0.3,2.5-0.5,4-0.5c3,0,5.6,0.8,6.6,2c0.4,0.4,0.5,0.8,0.4,1.3l-0.2,1C27.4,74.4,26.3,75.3,24.3,75.8L24.3,75.8z"/>
<path d="M16.7,69.6c1.1-0.3,2.5-0.5,3.9-0.5c4,0,7.2,1.4,7,3.1c0,0.4-0.2,1-0.2,1s0,0,0,0c0,0,0,0.1,0,0.1c-0.1,1-1.4,1.9-3.2,2.4
	c-1.1,0.3-2.3,0.5-3.7,0.5c-3.6,0-6.6-1.3-6.8-2.9c0,0,0-0.1,0-0.1l0,0c0,0-0.1-0.6-0.2-1C13.6,71.1,14.8,70.1,16.7,69.6 M16.7,69.4
	c-2.2,0.6-3.4,1.7-3.2,2.8c0.1,0.4,0.2,1,0.2,1l0,0.1c0,0,0,0,0,0c0.2,1.7,3.2,3.1,7,3.1c1.3,0,2.6-0.2,3.7-0.5
	c2-0.5,3.2-1.5,3.3-2.5c0,0,0,0,0-0.1l0,0c0,0,0.1-0.7,0.2-1c0.1-0.5-0.1-1-0.5-1.4c-1-1.2-3.7-2-6.7-2
	C19.2,68.9,17.8,69.1,16.7,69.4z"/>
<path class="st20" d="M27.5,73.4c-0.2,1.6-3.3,2.8-6.8,2.8c-3.6,0-6.6-1.3-6.8-2.9c-0.2-1.7,2.8-3.2,6.8-3.2
	C24.6,70.2,27.7,71.6,27.5,73.4L27.5,73.4z"/>
<path class="st21" d="M27.5,73.4c-0.2,1.6-3.3,2.8-6.8,2.8c-3.6,0-6.6-1.3-6.8-2.9c-0.2-1.7,2.8-3.2,6.8-3.2
	C24.6,70.2,27.7,71.6,27.5,73.4L27.5,73.4z"/>
<path d="M25.3,73.7c-0.1,1-2.2,1.8-4.6,1.8c-2.4,0-4.5-0.8-4.6-1.8c-0.1-1.1,1.9-2.1,4.6-2.1C23.4,71.5,25.4,72.6,25.3,73.7
	L25.3,73.7z"/>
<path d="M11.1,40.4c-0.1-1.6-0.3-3-0.4-3c2.1-1.3,4.1-1.9,6.3-1.9c0.2-0.1,0.3,1.5,0.2,3.2C15.1,38.6,13.1,39.2,11.1,40.4L11.1,40.4
	z"/>
<path d="M11.1,40.9c2-1.2,3.9-1.7,6.1-1.7c-0.1,1.6-0.2,3.3-0.4,3.3c-2.2,0-3.5,0.6-5.6,1.9C11.3,44.3,11.2,42.6,11.1,40.9z"/>
<path class="st9" d="M99.9,69.1l0.1-35.1l-8.9,0c0,0,2.6,22,3.2,26.3C94.9,64.6,95.7,70.2,99.9,69.1L99.9,69.1z"/>
<path class="st10" d="M106.7,31.5c-2.8,0-5-2.9-5-6.5c0-3.6,2.3-6.5,5-6.5c2.8,0,5,2.9,5,6.5C111.7,28.7,109.4,31.6,106.7,31.5z"/>
<path d="M106.7,18.7c2.7,0,4.9,2.9,4.9,6.4c0,3.5-2.2,6.4-4.9,6.4c-2.7,0-4.9-2.9-4.9-6.4C101.8,21.5,104,18.6,106.7,18.7z
	 M106.7,18.4c-1.4,0-2.7,0.7-3.6,1.9c-1,1.2-1.5,2.9-1.5,4.7c0,1.8,0.5,3.4,1.5,4.7c1,1.3,2.3,2,3.6,2c1.4,0,2.7-0.7,3.6-1.9
	c1-1.2,1.5-2.9,1.5-4.7c0-1.8-0.5-3.4-1.5-4.7C109.4,19.1,108.1,18.4,106.7,18.4z"/>
<path class="st0" d="M111.6,25.6c-3.4-0.5-6.6-0.5-9.8-0.1l0-1.4c3.3-0.8,6.5-0.8,9.8,0.1L111.6,25.6z"/>
<radialGradient id="SVGID_00000085230160091546268200000018071882463774614971_" cx="-173.4395" cy="402.1574" r="1" gradientTransform="matrix(3.9979 2.163883e-02 2.175780e-02 -4.0199 791.3124 1642.4044)" gradientUnits="userSpaceOnUse">
	<stop  offset="0" style="stop-color:#FFFFFF"/>
	<stop  offset="9.000000e-02" style="stop-color:#F3F3F3"/>
	<stop  offset="0.24" style="stop-color:#D4D4D4"/>
	<stop  offset="0.45" style="stop-color:#A2A2A2"/>
	<stop  offset="0.7" style="stop-color:#5C5C5C"/>
	<stop  offset="0.98" style="stop-color:#050505"/>
	<stop  offset="1" style="stop-color:#000000"/>
</radialGradient>
<path style="opacity:0.8;fill:url(#SVGID_00000085230160091546268200000018071882463774614971_);enable-background:new    ;" d="
	M106.7,31.5c-2.8,0-5-2.9-5-6.5c0-3.6,2.3-6.5,5-6.5c2.8,0,5,2.9,5,6.5C111.7,28.7,109.4,31.6,106.7,31.5z"/>
<path class="st9" d="M113.2,66.4l0.1-32.4l8.2,0c0,0-2.5,20.3-3,24.2C117.9,62.3,117.1,67.5,113.2,66.4L113.2,66.4z"/>
<path d="M112.9,68.3c-1.8,0.5-4,0.8-6.3,0.7c-4.7,0-9.8-1.3-9.9-3.5l-2.6-34.6l0.4-1l-0.4,0c-0.1-1.8,1.6-3.4,4.9-4.3
	c2.1-0.6,4.8-0.9,7.7-0.9c5.5,0,10,1.2,11.8,3.1c0.6,0.7,0.9,1.4,0.8,2.2l0.4,0l-0.5,1l-2.6,34.6C116.5,66.7,115.2,67.7,112.9,68.3
	L112.9,68.3z"/>
<path class="st12" d="M118.9,30.1c0.2-2.9-5.2-4.8-12.2-4.9c-7,0-12.4,1.8-12.2,4.7c0,0.1,0,0.8,0,0.9h0l2.6,34.6c0,0,0,0,0,0
	c0.1,1.7,4.4,3.2,9.5,3.2c5.1,0,9.4-1.3,9.6-3.1c0,0,0,0,0,0l2.6-34.6h0C118.8,30.9,118.9,30.2,118.9,30.1L118.9,30.1z"/>
<linearGradient id="SVGID_00000025404710485943990970000015292056002864043440_" gradientUnits="userSpaceOnUse" x1="90.4919" y1="89.8951" x2="125.7701" y2="91.27" gradientTransform="matrix(1 0 0 -1 0 137.455)">
	<stop  offset="0" style="stop-color:#FFFFFF"/>
	<stop  offset="5.000000e-02" style="stop-color:#B4B4B4"/>
	<stop  offset="0.1" style="stop-color:#747474"/>
	<stop  offset="0.14" style="stop-color:#424242"/>
	<stop  offset="0.18" style="stop-color:#1E1E1E"/>
	<stop  offset="0.21" style="stop-color:#080808"/>
	<stop  offset="0.23" style="stop-color:#000000"/>
	<stop  offset="0.3" style="stop-color:#595959"/>
	<stop  offset="0.36" style="stop-color:#A0A0A0"/>
	<stop  offset="0.41" style="stop-color:#D3D3D3"/>
	<stop  offset="0.44" style="stop-color:#F3F3F3"/>
	<stop  offset="0.46" style="stop-color:#FFFFFF"/>
	<stop  offset="0.49" style="stop-color:#F3F3F3"/>
	<stop  offset="0.54" style="stop-color:#D4D4D4"/>
	<stop  offset="0.6" style="stop-color:#A2A2A2"/>
	<stop  offset="0.68" style="stop-color:#5C5C5C"/>
	<stop  offset="0.76" style="stop-color:#050505"/>
	<stop  offset="0.77" style="stop-color:#000000"/>
</linearGradient>
<path style="opacity:0.7;fill:url(#SVGID_00000025404710485943990970000015292056002864043440_);enable-background:new    ;" d="
	M118.9,30.1c0.2-2.9-5.2-4.8-12.2-4.9c-7,0-12.4,1.8-12.2,4.7c0,0.1,0,0.8,0,0.9h0l2.6,34.6c0,0,0,0,0,0c0.1,1.7,4.4,3.2,9.5,3.2
	c5.1,0,9.4-1.3,9.6-3.1c0,0,0,0,0,0l2.6-34.6h0C118.8,30.9,118.9,30.2,118.9,30.1L118.9,30.1z"/>
<path d="M118.6,35c-1.2-2.1-5.8-3.5-11.8-3.6c-2.9,0-5.5,0.3-7.6,0.9c-2.2,0.6-3.7,1.5-4.2,2.5l-0.4-3.5l0.1-0.9l-0.1,0
	c-0.1-1.7,1.5-3.1,4.6-3.9c2.1-0.6,4.8-0.9,7.6-0.9c5.4,0,9.9,1.2,11.5,3c0.5,0.6,0.8,1.2,0.7,1.9l0.1,0l-0.1,0.9l-0.3,3.8L118.6,35
	L118.6,35z"/>
<path d="M118.5,34.6c-1.2-2.1-5.8-3.5-11.8-3.6c-2.9,0-5.5,0.3-7.6,0.9c-2.2,0.6-3.7,1.5-4.2,2.5l-0.4-3.5l0.1-0.9l-0.1,0
	c-0.1-1.7,1.5-3.1,4.6-3.9c2.1-0.6,4.8-0.9,7.6-0.9c5.4,0,9.9,1.2,11.5,3c0.5,0.6,0.8,1.2,0.7,1.9l0.1,0l-0.1,0.9l-0.3,3.8
	L118.5,34.6L118.5,34.6z"/>
<path d="M94.6,31.3L94.6,31.3l0.2,3.5c1.2-2.2,6-3.5,11.9-3.4c5.9,0,10.7,1.4,11.9,3.6l0.3-3.5l0,0c0-0.1,0-0.8,0-0.9
	c0.2-2.9-5.2-4.8-12.2-4.9c-7,0-12.4,1.8-12.2,4.7C94.6,30.5,94.6,31.2,94.6,31.3L94.6,31.3z"/>
<path d="M94.5,30.9L94.5,30.9l0.2,3.5c1.2-2.2,6-3.5,11.9-3.4c5.9,0,10.7,1.4,11.9,3.6l0.3-3.5h0c0-0.1,0-0.8,0-0.9
	c0.2-2.9-5.2-4.8-12.2-4.9c-7,0-12.4,1.8-12.2,4.7C94.5,30,94.5,30.8,94.5,30.9L94.5,30.9z"/>
<path class="st7" d="M94.5,30.7L94.5,30.7l0.2,3.5c1.2-2.2,6-3.5,11.9-3.4c5.9,0,10.7,1.4,11.9,3.6l0.3-3.5h0c0-0.1,0-0.8,0-0.9
	c0.2-2.9-5.2-4.8-12.2-4.9c-7,0-12.4,1.8-12.2,4.7C94.4,29.9,94.4,30.6,94.5,30.7L94.5,30.7z"/>
<path class="st14" d="M94.5,30.9L94.5,30.9l0.2,3.5c1.2-2.2,6-3.5,11.9-3.4c5.9,0,10.7,1.4,11.9,3.6l0.3-3.5l0,0c0-0.1,0-0.8,0-0.9
	c0.2-2.9-5.2-4.8-12.2-4.9c-7,0-12.4,1.8-12.2,4.7C94.5,30,94.5,30.8,94.5,30.9L94.5,30.9z"/>
<linearGradient id="SVGID_00000139280768851639684500000010288743558780002440_" gradientUnits="userSpaceOnUse" x1="94.3912" y1="107.6114" x2="118.8222" y2="107.5643" gradientTransform="matrix(1 0 0 -1 0 137.455)">
	<stop  offset="0" style="stop-color:#000000"/>
	<stop  offset="8.000000e-02" style="stop-color:#3F3F3F"/>
	<stop  offset="0.17" style="stop-color:#787878"/>
	<stop  offset="0.25" style="stop-color:#A8A8A8"/>
	<stop  offset="0.33" style="stop-color:#CECECE"/>
	<stop  offset="0.4" style="stop-color:#E9E9E9"/>
	<stop  offset="0.46" style="stop-color:#F9F9F9"/>
	<stop  offset="0.51" style="stop-color:#FFFFFF"/>
	<stop  offset="0.56" style="stop-color:#F8F8F8"/>
	<stop  offset="0.62" style="stop-color:#E6E6E6"/>
	<stop  offset="0.69" style="stop-color:#C9C9C9"/>
	<stop  offset="0.77" style="stop-color:#A0A0A0"/>
	<stop  offset="0.85" style="stop-color:#6C6C6C"/>
	<stop  offset="0.94" style="stop-color:#2D2D2D"/>
	<stop  offset="1" style="stop-color:#000000"/>
</linearGradient>
<path style="fill:url(#SVGID_00000139280768851639684500000010288743558780002440_);" d="M94.5,30.9L94.5,30.9l0.2,3.5
	c1.2-2.2,6-3.5,11.9-3.4c5.9,0,10.7,1.4,11.9,3.6l0.3-3.5l0,0c0-0.1,0-0.8,0-0.9c0.2-2.9-5.2-4.8-12.2-4.9c-7,0-12.4,1.8-12.2,4.7
	C94.5,30,94.5,30.8,94.5,30.9L94.5,30.9z"/>
<radialGradient id="SVGID_00000052104299798951276960000015722919241100081064_" cx="-137.3948" cy="473.2385" r="1" gradientTransform="matrix(2.5041 1.443261e-02 0.1234 -21.4018 384.2251 10173.9385)" gradientUnits="userSpaceOnUse">
	<stop  offset="0" style="stop-color:#FFFFFF"/>
	<stop  offset="4.000000e-02" style="stop-color:#E6E6E6"/>
	<stop  offset="0.15" style="stop-color:#B1B1B1"/>
	<stop  offset="0.26" style="stop-color:#818181"/>
	<stop  offset="0.37" style="stop-color:#595959"/>
	<stop  offset="0.49" style="stop-color:#393939"/>
	<stop  offset="0.6" style="stop-color:#202020"/>
	<stop  offset="0.72" style="stop-color:#0E0E0E"/>
	<stop  offset="0.85" style="stop-color:#030303"/>
	<stop  offset="1" style="stop-color:#000000"/>
</radialGradient>
<path style="opacity:0.8;fill:url(#SVGID_00000052104299798951276960000015722919241100081064_);enable-background:new    ;" d="
	M109.2,47c0,11.8-1.2,21.4-2.6,21.4c-1.4,0-2.5-9.6-2.5-21.4c0-11.8,1.2-21.4,2.6-21.4C108.1,25.6,109.2,35.1,109.2,47z"/>
<path d="M117,40.7c0.1-1.6,0.3-3,0.4-3c-2.1-1.4-4.1-2-6.3-1.9c-0.2-0.1-0.3,1.5-0.2,3.2C113,38.9,115,39.5,117,40.7z"/>
<path d="M116.9,44.7C116.9,44.7,116.9,44.7,116.9,44.7C116.9,44.7,116.9,44.7,116.9,44.7z"/>
<path d="M117,41.2c-2-1.2-3.9-1.8-6.1-1.8c0.1,1.6,0.2,3.3,0.4,3.3c2.2,0,3.5,0.6,5.6,2C116.8,44.6,116.8,42.9,117,41.2L117,41.2z"
	/>
<path class="st17" d="M114.5,66.3c0,1.6,0.6,2-8.3,2c-8.9,0-8.3-0.5-8.3-2c0-1.6,3.7-2.9,8.3-2.8C110.8,63.4,114.5,64.7,114.5,66.3z
	"/>
<path class="st10" d="M109.9,76.4c-1.1,0.3-2.4,0.5-3.7,0.5c-3.8,0-6.8-1.3-7-3.1L98.5,68c-0.1-2,0.9-3,3-3.5
	c1.3-0.4,2.9-0.5,4.7-0.5c3.5,0,6.2,0.7,7.2,1.9c0.4,0.5,0.6,1,0.5,1.5l-0.8,6.5C113,74.9,111.8,75.8,109.9,76.4L109.9,76.4z"/>
<linearGradient id="SVGID_00000153684061844009462710000010822467393949902518_" gradientUnits="userSpaceOnUse" x1="98.411" y1="67.0835" x2="113.9024" y2="67.0537" gradientTransform="matrix(1 0 0 -1 0 137.455)">
	<stop  offset="0" style="stop-color:#000000"/>
	<stop  offset="0.51" style="stop-color:#FFFFFF"/>
	<stop  offset="0.58" style="stop-color:#FBFBFB"/>
	<stop  offset="0.64" style="stop-color:#EFEFEF"/>
	<stop  offset="0.7" style="stop-color:#DCDCDC"/>
	<stop  offset="0.76" style="stop-color:#C1C1C1"/>
	<stop  offset="0.82" style="stop-color:#9F9F9F"/>
	<stop  offset="0.88" style="stop-color:#747474"/>
	<stop  offset="0.94" style="stop-color:#424242"/>
	<stop  offset="0.99" style="stop-color:#090909"/>
	<stop  offset="1" style="stop-color:#000000"/>
</linearGradient>
<path style="fill:url(#SVGID_00000153684061844009462710000010822467393949902518_);" d="M109.9,76.4c-1.1,0.3-2.4,0.5-3.7,0.5
	c-3.8,0-6.8-1.3-7-3.1L98.5,68c-0.1-2,0.9-3,3-3.5c1.3-0.4,2.9-0.5,4.7-0.5c3.5,0,6.2,0.7,7.2,1.9c0.4,0.5,0.6,1,0.5,1.5l-0.8,6.5
	C113,74.9,111.8,75.8,109.9,76.4L109.9,76.4z"/>
<path d="M101.5,64.6c1.3-0.4,2.9-0.5,4.7-0.5c4.4,0,7.8,1.2,7.5,3.2l0,0.7l0,0l-0.7,5.7l0,0c0,0,0,0,0,0c-0.1,1-1.4,1.9-3.2,2.4
	c-1.1,0.3-2.3,0.5-3.7,0.5c-3.6,0-6.6-1.3-6.8-2.9c0-0.1,0-0.1,0-0.2L98.7,68l0-0.7C98.5,66,99.7,65.1,101.5,64.6 M101.4,64.2
	c-2.9,0.8-3.2,2.3-3.1,3.1l0,0.7l0.7,5.7c0,0,0,0.1,0,0.2c0.2,1.8,3.3,3.2,7.2,3.2c1.3,0,2.6-0.2,3.8-0.5c1.8-0.5,3.1-1.4,3.4-2.4
	l0,0l0.1-0.3l0.7-5.7l0-0.8c0.1-0.6-0.1-1.2-0.6-1.7c-1.1-1.2-3.8-2-7.3-2C104.4,63.7,102.7,63.9,101.4,64.2L101.4,64.2z"/>
<path class="st19" d="M109.9,76.3c-1.1,0.3-2.4,0.5-3.7,0.5c-3.7,0-6.7-1.3-6.9-3c0,0,0-0.1-0.2-1.1c-0.1-1.1,1-2.1,3.1-2.7
	c1.2-0.3,2.5-0.5,4-0.5c3,0,5.6,0.8,6.6,2c0.4,0.4,0.5,0.8,0.4,1.3l-0.2,1C113,74.9,111.8,75.8,109.9,76.3z"/>
<path d="M102.3,70.1c1.1-0.3,2.5-0.5,3.9-0.5c4,0,7.2,1.4,7,3.1c0,0.4-0.2,1-0.2,1s0,0,0,0c0,0,0,0.1,0,0.1c-0.1,1-1.4,1.9-3.2,2.4
	c-1.1,0.3-2.3,0.5-3.7,0.5c-3.6,0-6.6-1.3-6.8-2.9c0,0,0-0.1,0-0.1l0,0c0,0-0.1-0.6-0.2-1C99.1,71.6,100.3,70.6,102.3,70.1
	 M102.2,69.8c-2.2,0.6-3.4,1.7-3.2,2.8c0.1,0.4,0.2,1,0.2,1l0,0.1l0,0c0.2,1.7,3.2,3.1,7,3.1c1.3,0,2.6-0.2,3.7-0.5
	c2-0.5,3.2-1.5,3.3-2.5c0,0,0,0,0-0.1l0,0c0,0,0.1-0.7,0.2-1c0.1-0.5-0.1-1-0.5-1.4c-1-1.2-3.7-2-6.7-2
	C104.8,69.4,103.4,69.5,102.2,69.8L102.2,69.8z"/>
<path class="st20" d="M113,73.8c-0.2,1.6-3.3,2.8-6.8,2.8c-3.6,0-6.6-1.3-6.8-2.9c-0.2-1.7,2.8-3.2,6.8-3.2
	C110.2,70.6,113.2,72.1,113,73.8L113,73.8z"/>
<path class="st21" d="M113,73.8c-0.2,1.6-3.3,2.8-6.8,2.8c-3.6,0-6.6-1.3-6.8-2.9c-0.2-1.7,2.8-3.2,6.8-3.2
	C110.2,70.6,113.2,72.1,113,73.8L113,73.8z"/>
<path d="M110.8,74.2c-0.1,1-2.2,1.8-4.6,1.8c-2.4,0-4.5-0.8-4.6-1.8c-0.1-1.1,1.9-2.1,4.6-2.1C108.9,72,111,73.1,110.8,74.2
	L110.8,74.2z"/>
<path class="st9" d="M83.7,34.2L44,34c0,0.5,0,0.9,0,1.3c0,14.9,4,30.3,7.8,42.1c0,0.1,0,0.1,0.1,0.2c0.6,0.7,1.5,1.1,2.5,1.1
	l18.1,0.1c1.1,0,2.2-0.3,3.1-0.9c0-0.1,0-0.1,0.1-0.2c3.9-11.8,8.2-27.2,8.2-42.1C83.8,35.1,83.7,34.7,83.7,34.2L83.7,34.2z"/>
<path class="st12" d="M80.6,35.5c0,15-3.6,30.3-6.9,42.2c-2.3,8.2-2.2,13.8-9.9,13.7c-7.7,0-7.8-5.6-10.1-13.9
	c-3.2-11.9-6.6-27.2-6.5-42.1c0-11.8,7.6-35,16.8-35C73.2,0.4,80.6,23.3,80.6,35.5z"/>
<radialGradient id="SVGID_00000092434921909023067770000004527764013276363676_" cx="-222.801" cy="484.6341" r="1" gradientTransform="matrix(21.9755 0.1189 0.3779 -69.8242 4777.5215 33902.8867)" gradientUnits="userSpaceOnUse">
	<stop  offset="0.41" style="stop-color:#FFFFFF"/>
	<stop  offset="0.43" style="stop-color:#EAEAEA"/>
	<stop  offset="0.48" style="stop-color:#B4B4B4"/>
	<stop  offset="0.53" style="stop-color:#838383"/>
	<stop  offset="0.59" style="stop-color:#5B5B5B"/>
	<stop  offset="0.64" style="stop-color:#3A3A3A"/>
	<stop  offset="0.7" style="stop-color:#202020"/>
	<stop  offset="0.76" style="stop-color:#0E0E0E"/>
	<stop  offset="0.82" style="stop-color:#030303"/>
	<stop  offset="0.89" style="stop-color:#000000"/>
</radialGradient>
<path style="opacity:0.5;fill:url(#SVGID_00000092434921909023067770000004527764013276363676_);enable-background:new    ;" d="
	M66.8,91.3c-0.9,0.2-1.9,0.4-3,0.4c-6.8,0-7.9-4.3-9.4-10.8l-0.8-3.3c-4.4-16.4-6.6-30.2-6.5-42.2c0-10.5,6.5-32.5,15.4-34.9
	c0.5-0.1,1.1-0.2,1.6-0.2c5.7,0,10,8.2,12,13.1c3,7.2,4.9,15.9,4.9,22.2c0,15.5-4,31.5-6.9,42.2c-0.4,1.3-0.7,2.5-0.9,3.7
	C71.7,86.5,70.7,90.2,66.8,91.3L66.8,91.3z"/>
<path d="M62.3,0.6c0.5-0.1,1-0.2,1.6-0.2c9.2,0.1,16.7,22.9,16.7,35.2c0,15-3.6,30.3-6.9,42.2c-1.9,7-2.2,12.1-7,13.4
	c-0.8,0.2-1.8,0.4-3,0.3c-7.7,0-7.8-5.6-10.1-13.9c-3.2-11.9-6.6-27.2-6.5-42.1C47.1,24.2,53.8,3,62.3,0.6z M62.2,0.2
	c-8.9,2.5-15.5,24.6-15.5,35.1c0,12,2.1,25.8,6.6,42.2c0.3,1.2,0.6,2.3,0.8,3.3c1.6,6.5,2.7,10.9,9.6,10.9c1.2,0,2.2-0.1,3.1-0.4
	c4.1-1.1,5-4.9,6.3-10c0.3-1.1,0.6-2.4,0.9-3.6c3-10.7,6.9-26.7,6.9-42.3C81,23.7,73.6,0.1,63.9,0C63.4,0,62.8,0.1,62.2,0.2z"/>
<path class="st28" d="M63.8,68.4c-4.5,0-8-11.7-8-26.6c0-13.9,3.2-25.3,7.4-26.5c5.2-0.1,8.7,11.6,8.7,26.5
	c0,13.9-3.2,25.3-7.4,26.5L63.8,68.4z"/>
<radialGradient id="SVGID_00000137828282298894006550000013707803442772020395_" cx="-202.6946" cy="476.4129" r="0.9996" gradientTransform="matrix(7.7609 4.200629e-02 0.1436 -26.532 1568.5508 12689.332)" gradientUnits="userSpaceOnUse">
	<stop  offset="8.000000e-02" style="stop-color:#FFFFFF"/>
	<stop  offset="0.25" style="stop-color:#FCFCFC"/>
	<stop  offset="0.37" style="stop-color:#F2F2F2"/>
	<stop  offset="0.48" style="stop-color:#E2E2E2"/>
	<stop  offset="0.58" style="stop-color:#CCCCCC"/>
	<stop  offset="0.67" style="stop-color:#AFAFAF"/>
	<stop  offset="0.76" style="stop-color:#8B8B8B"/>
	<stop  offset="0.85" style="stop-color:#606060"/>
	<stop  offset="0.93" style="stop-color:#303030"/>
	<stop  offset="1" style="stop-color:#000000"/>
</radialGradient>
<path style="fill:url(#SVGID_00000137828282298894006550000013707803442772020395_);" d="M63.8,68.4c-4.5,0-8-11.7-8-26.6
	c0-13.9,3.2-25.3,7.4-26.5c5.2-0.1,8.7,11.6,8.7,26.5c0,13.9-3.2,25.3-7.4,26.5L63.8,68.4z"/>
<path d="M63.3,15.5c0.2-0.1,0.4-0.1,0.7-0.1c4.3,0,7.8,11.9,7.8,26.4c0,13.8-3.2,25.1-7.2,26.3c-0.2,0.1-0.4,0.1-0.7,0.1
	c-4.3,0-7.8-11.9-7.8-26.4C56,27.9,59.2,16.6,63.3,15.5z M63.2,15.1c-4.3,1.2-7.5,12.6-7.5,26.6c0,7.1,0.8,13.8,2.3,18.8
	c1.5,5.2,3.6,8,5.9,8c0.3,0,0.5,0,0.8-0.1c4.3-1.2,7.5-12.6,7.5-26.6c0-7.1-0.8-13.8-2.3-18.8c-1.5-5.2-3.6-8-5.9-8
	C63.7,15,63.4,15.1,63.2,15.1L63.2,15.1z"/>
<path class="st30" d="M71.5,36.8c-2.4-1-5-1.5-7.6-1.5c-1.9,0-3.8,0.2-5.6,0.7c-0.7,0.2-1.4,0.4-2,0.7c-0.1-2.2,0.1-4.2,0.3-6
	c0.6-0.3,1.1-0.5,1.6-0.6l4.5-2.3c0.1,0,0.2-0.1,0.3-0.1c1.2-0.3,2.1-0.2,2.7,0.1l4.5,2.6l0.9,0.3c0.4,2,0.6,3.9,0.7,6l0,0.3
	L71.5,36.8L71.5,36.8z"/>
<radialGradient id="SVGID_00000080917017399242580330000006578699905899748000_" cx="-206.1932" cy="477.9051" r="1" gradientTransform="matrix(8.745 4.733230e-02 0.1618 -29.8963 1789.96 14329.4336)" gradientUnits="userSpaceOnUse">
	<stop  offset="8.000000e-02" style="stop-color:#FFFFFF"/>
	<stop  offset="0.16" style="stop-color:#F4F4F4"/>
	<stop  offset="0.3" style="stop-color:#D9D9D9"/>
	<stop  offset="0.47" style="stop-color:#ADADAD"/>
	<stop  offset="0.67" style="stop-color:#707070"/>
	<stop  offset="0.9" style="stop-color:#232323"/>
	<stop  offset="1" style="stop-color:#000000"/>
</radialGradient>
<path style="opacity:0.7;fill:url(#SVGID_00000080917017399242580330000006578699905899748000_);enable-background:new    ;" d="
	M71.5,36.8c-2.4-1-5-1.5-7.6-1.5c-1.9,0-3.8,0.2-5.6,0.7c-0.7,0.2-1.4,0.4-2,0.7c-0.1-2.2,0.1-4.2,0.3-6c0.6-0.3,1.1-0.5,1.6-0.6
	l4.5-2.3c0.1,0,0.2-0.1,0.3-0.1c1.2-0.3,2.1-0.2,2.7,0.1l4.5,2.6l0.9,0.3c0.4,2,0.6,3.9,0.7,6l0,0.3L71.5,36.8L71.5,36.8z"/>
<path d="M63.2,27.8c0.7-0.2,1.7-0.1,2.3,0.2l4.5,2.5c0.3,0.1,0.6,0.2,1,0.3c0.2,1.8,0.4,3.8,0.5,5.8c-2.4-1-5-1.5-7.7-1.5
	c-2,0-3.9,0.3-5.7,0.8c-0.7,0.2-1.4,0.4-2,0.7c0.1-2,0.3-4,0.6-5.8c0.5-0.2,1-0.3,1.5-0.5c0.2-0.1,0.4-0.1,0.5-0.1l4-2.2
	C62.9,27.9,63,27.8,63.2,27.8 M63.1,27.4c-0.2,0.1-0.4,0.1-0.6,0.2l-4,2.2c-0.2,0-0.3,0.1-0.5,0.1c-0.5,0.1-1,0.3-1.5,0.5l-0.2,0.1
	l0,0.2c-0.3,1.9-0.4,3.8-0.6,5.8l0,0.6l0.6-0.2c0.6-0.3,1.3-0.5,2-0.7c1.8-0.5,3.7-0.7,5.6-0.7c2.6,0,5.1,0.5,7.6,1.5l0.6,0.2l0-0.6
	c-0.1-2-0.3-4-0.5-5.8l0-0.2l-0.2-0.1c-0.3-0.1-0.6-0.2-1-0.3l-4.5-2.5C65,27.3,64,27.2,63.1,27.4L63.1,27.4z"/>
<radialGradient id="SVGID_00000134954940535406055800000001079027200502829980_" cx="-137.4109" cy="473.6452" r="1" gradientTransform="matrix(2.5045 1.443494e-02 0.1265 -21.9449 340.5363 10433.8809)" gradientUnits="userSpaceOnUse">
	<stop  offset="0" style="stop-color:#FFFFFF"/>
	<stop  offset="4.000000e-02" style="stop-color:#E6E6E6"/>
	<stop  offset="0.15" style="stop-color:#B1B1B1"/>
	<stop  offset="0.26" style="stop-color:#818181"/>
	<stop  offset="0.37" style="stop-color:#595959"/>
	<stop  offset="0.49" style="stop-color:#393939"/>
	<stop  offset="0.6" style="stop-color:#202020"/>
	<stop  offset="0.72" style="stop-color:#0E0E0E"/>
	<stop  offset="0.85" style="stop-color:#030303"/>
	<stop  offset="1" style="stop-color:#000000"/>
</radialGradient>
<path style="opacity:0.8;fill:url(#SVGID_00000134954940535406055800000001079027200502829980_);enable-background:new    ;" d="
	M66.4,40.7c0,12.1-1.2,21.9-2.6,21.9c-1.4,0-2.5-9.8-2.5-21.9c0-12.1,1.2-21.9,2.6-21.9C65.3,18.8,66.4,28.6,66.4,40.7z"/>
<path d="M64.2,82.6c-1.7,0-3.2-1.3-4.4-3.7c-1.1-2.3-1.7-5.4-1.7-8.6l0.6-1.4c0.4-0.1,0.8-0.1,1.1,0.1c1.3,0.6,2.8,0.9,4.3,0.9
	c1.1,0,2.1-0.1,3.1-0.4c0.4-0.1,0.8-0.3,1.2-0.4l0.1,0c0.6-0.2,1.1-0.1,1.4,0.1l0.3,1c0,6.4-2.2,11.5-5.2,12.4L64.2,82.6L64.2,82.6z
	"/>
<path class="st28" d="M64.2,82.4c-1.6,0-3.1-1.3-4.2-3.6c-1.1-2.3-1.7-5.3-1.7-8.6l0.5-1.2c0.3-0.1,0.7-0.1,1,0.1
	c1.3,0.6,2.8,0.9,4.4,0.9c1.1,0,2.2-0.1,3.2-0.4c0.4-0.1,0.9-0.3,1.2-0.4l0,0c0.5-0.1,1-0.1,1.3,0.1l0.2,0.9
	c0,6.2-2.2,11.4-5.1,12.2L64.2,82.4z"/>
<path d="M58.9,69.2c0.3-0.1,0.6-0.1,0.9,0.1c1.3,0.6,2.8,0.9,4.5,0.9c1.2,0,2.2-0.1,3.2-0.4c0.5-0.1,0.9-0.3,1.3-0.5
	c0,0,0.1,0,0.1,0c0.5-0.1,1.1,0,1.1,0.3c0,0.2,0,0.5,0,0.7c0,6.1-2.2,11.1-5,11.8c-0.3,0.1-0.5,0.1-0.8,0.1c-3.2,0-5.7-5.4-5.7-12
	c0-0.2,0-0.5,0-0.7C58.5,69.4,58.7,69.3,58.9,69.2 M58.8,68.8c-0.5,0.2-0.6,0.5-0.6,0.6c0,0.2,0,0.5,0,0.7c0,6.9,2.7,12.4,6.1,12.4
	c0.3,0,0.6,0,0.9-0.1c3-0.8,5.2-6,5.3-12.2c0-0.2,0-0.5,0-0.7c0-0.2-0.1-0.3-0.3-0.5c-0.3-0.2-0.9-0.3-1.3-0.2c-0.1,0-0.1,0-0.2,0.1
	c-0.4,0.2-0.8,0.3-1.2,0.4c-1,0.3-2,0.4-3.1,0.4c-1.6,0-3.1-0.3-4.3-0.9C59.6,68.8,59.1,68.7,58.8,68.8L58.8,68.8z"/>
<g>
	<g>
		<path d="M61.5,77.6l5.2,0c0.2,0,0.4,0.2,0.4,0.4c0,0.2-0.2,0.4-0.4,0.4l-5.2,0c-0.2,0-0.4-0.2-0.4-0.4
			C61.1,77.8,61.3,77.6,61.5,77.6L61.5,77.6z"/>
	</g>
	<g>
		<path class="st7" d="M61.5,77.6l5.2,0c0.2,0,0.4,0.2,0.4,0.4c0,0.2-0.2,0.4-0.4,0.4l-5.2,0c-0.2,0-0.4-0.2-0.4-0.4
			C61.1,77.8,61.3,77.6,61.5,77.6L61.5,77.6z"/>
	</g>
</g>
<g>
	<g>
		<path d="M61.5,77.6l5.2,0c0.2,0,0.4,0.2,0.4,0.4c0,0.2-0.2,0.4-0.4,0.4l-5.2,0c-0.2,0-0.4-0.2-0.4-0.4
			C61.1,77.8,61.3,77.6,61.5,77.6L61.5,77.6z"/>
	</g>
	<g>
		<path class="st7" d="M61.5,77.6l5.2,0c0.2,0,0.4,0.2,0.4,0.4c0,0.2-0.2,0.4-0.4,0.4l-5.2,0c-0.2,0-0.4-0.2-0.4-0.4
			C61.1,77.8,61.3,77.6,61.5,77.6L61.5,77.6z"/>
	</g>
</g>
<g>
	<g>
		<path d="M61.5,77.6l5.2,0c0.2,0,0.4,0.2,0.4,0.4c0,0.2-0.2,0.4-0.4,0.4l-5.2,0c-0.2,0-0.4-0.2-0.4-0.4
			C61.1,77.8,61.3,77.6,61.5,77.6L61.5,77.6z"/>
	</g>
	<g>
		<path class="st7" d="M61.5,77.6l5.2,0c0.2,0,0.4,0.2,0.4,0.4c0,0.2-0.2,0.4-0.4,0.4l-5.2,0c-0.2,0-0.4-0.2-0.4-0.4
			C61.1,77.8,61.3,77.6,61.5,77.6L61.5,77.6z"/>
	</g>
</g>
<g>
	<g>
		<path d="M60.8,74.9l6.7,0c0.2,0,0.4,0.2,0.4,0.4c0,0.2-0.2,0.4-0.4,0.4l-6.7,0c-0.2,0-0.4-0.2-0.4-0.4
			C60.4,75.1,60.6,74.9,60.8,74.9z"/>
	</g>
	<g>
		<path class="st7" d="M60.8,74.9l6.7,0c0.2,0,0.4,0.2,0.4,0.4c0,0.2-0.2,0.4-0.4,0.4l-6.7,0c-0.2,0-0.4-0.2-0.4-0.4
			C60.4,75.1,60.6,74.9,60.8,74.9z"/>
	</g>
</g>
<g>
	<g>
		<path d="M60.8,74.9l6.7,0c0.2,0,0.4,0.2,0.4,0.4c0,0.2-0.2,0.4-0.4,0.4l-6.7,0c-0.2,0-0.4-0.2-0.4-0.4
			C60.4,75.1,60.6,74.9,60.8,74.9z"/>
	</g>
	<g>
		<path class="st7" d="M60.8,74.9l6.7,0c0.2,0,0.4,0.2,0.4,0.4c0,0.2-0.2,0.4-0.4,0.4l-6.7,0c-0.2,0-0.4-0.2-0.4-0.4
			C60.4,75.1,60.6,74.9,60.8,74.9z"/>
	</g>
</g>
<g>
	<g>
		<path d="M60.8,74.9l6.7,0c0.2,0,0.4,0.2,0.4,0.4c0,0.2-0.2,0.4-0.4,0.4l-6.7,0c-0.2,0-0.4-0.2-0.4-0.4
			C60.4,75.1,60.6,74.9,60.8,74.9z"/>
	</g>
	<g>
		<path class="st7" d="M60.8,74.9l6.7,0c0.2,0,0.4,0.2,0.4,0.4c0,0.2-0.2,0.4-0.4,0.4l-6.7,0c-0.2,0-0.4-0.2-0.4-0.4
			C60.4,75.1,60.6,74.9,60.8,74.9z"/>
	</g>
</g>
<g>
	<g>
		<path d="M60.4,72l7.5,0c0.2,0,0.4,0.2,0.4,0.4c0,0.2-0.2,0.4-0.4,0.4l-7.6,0c-0.2,0-0.4-0.2-0.4-0.4C60,72.1,60.2,72,60.4,72z"/>
	</g>
	<g>
		<path class="st7" d="M60.4,72l7.5,0c0.2,0,0.4,0.2,0.4,0.4c0,0.2-0.2,0.4-0.4,0.4l-7.6,0c-0.2,0-0.4-0.2-0.4-0.4
			C60,72.1,60.2,72,60.4,72z"/>
	</g>
</g>
<g>
	<g>
		<path d="M60.4,72l7.5,0c0.2,0,0.4,0.2,0.4,0.4c0,0.2-0.2,0.4-0.4,0.4l-7.6,0c-0.2,0-0.4-0.2-0.4-0.4C60,72.1,60.2,72,60.4,72z"/>
	</g>
	<g>
		<path class="st7" d="M60.4,72l7.5,0c0.2,0,0.4,0.2,0.4,0.4c0,0.2-0.2,0.4-0.4,0.4l-7.6,0c-0.2,0-0.4-0.2-0.4-0.4
			C60,72.1,60.2,72,60.4,72z"/>
	</g>
</g>
<g>
	<g>
		<path d="M60.4,72l7.5,0c0.2,0,0.4,0.2,0.4,0.4c0,0.2-0.2,0.4-0.4,0.4l-7.6,0c-0.2,0-0.4-0.2-0.4-0.4C60,72.1,60.2,72,60.4,72z"/>
	</g>
	<g>
		<path class="st7" d="M60.4,72l7.5,0c0.2,0,0.4,0.2,0.4,0.4c0,0.2-0.2,0.4-0.4,0.4l-7.6,0c-0.2,0-0.4-0.2-0.4-0.4
			C60,72.1,60.2,72,60.4,72z"/>
	</g>
</g>
<g>
	<g>
		<g>
			<path d="M61.5,77.6l5.2,0c0.2,0,0.4,0.2,0.4,0.4c0,0.2-0.2,0.4-0.4,0.4l-5.2,0c-0.2,0-0.4-0.2-0.4-0.4
				C61.1,77.8,61.3,77.6,61.5,77.6L61.5,77.6z"/>
		</g>
		<g>
			<path class="st7" d="M61.5,77.6l5.2,0c0.2,0,0.4,0.2,0.4,0.4c0,0.2-0.2,0.4-0.4,0.4l-5.2,0c-0.2,0-0.4-0.2-0.4-0.4
				C61.1,77.8,61.3,77.6,61.5,77.6L61.5,77.6z"/>
		</g>
	</g>
	<g>
		<g>
			<path d="M61.5,77.6l5.2,0c0.2,0,0.4,0.2,0.4,0.4c0,0.2-0.2,0.4-0.4,0.4l-5.2,0c-0.2,0-0.4-0.2-0.4-0.4
				C61.1,77.8,61.3,77.6,61.5,77.6L61.5,77.6z"/>
		</g>
		<g>
			<path class="st7" d="M61.5,77.6l5.2,0c0.2,0,0.4,0.2,0.4,0.4c0,0.2-0.2,0.4-0.4,0.4l-5.2,0c-0.2,0-0.4-0.2-0.4-0.4
				C61.1,77.8,61.3,77.6,61.5,77.6L61.5,77.6z"/>
		</g>
	</g>
	<g>
		<g>
			<path d="M61.5,77.6l5.2,0c0.2,0,0.4,0.2,0.4,0.4c0,0.2-0.2,0.4-0.4,0.4l-5.2,0c-0.2,0-0.4-0.2-0.4-0.4
				C61.1,77.8,61.3,77.6,61.5,77.6L61.5,77.6z"/>
		</g>
		<g>
			<path class="st7" d="M61.5,77.6l5.2,0c0.2,0,0.4,0.2,0.4,0.4c0,0.2-0.2,0.4-0.4,0.4l-5.2,0c-0.2,0-0.4-0.2-0.4-0.4
				C61.1,77.8,61.3,77.6,61.5,77.6L61.5,77.6z"/>
		</g>
	</g>
	<g>
		<g>
			<path d="M60.8,74.9l6.7,0c0.2,0,0.4,0.2,0.4,0.4c0,0.2-0.2,0.4-0.4,0.4l-6.7,0c-0.2,0-0.4-0.2-0.4-0.4
				C60.4,75.1,60.6,74.9,60.8,74.9z"/>
		</g>
		<g>
			<path class="st7" d="M60.8,74.9l6.7,0c0.2,0,0.4,0.2,0.4,0.4c0,0.2-0.2,0.4-0.4,0.4l-6.7,0c-0.2,0-0.4-0.2-0.4-0.4
				C60.4,75.1,60.6,74.9,60.8,74.9z"/>
		</g>
	</g>
	<g>
		<g>
			<path d="M60.8,74.9l6.7,0c0.2,0,0.4,0.2,0.4,0.4c0,0.2-0.2,0.4-0.4,0.4l-6.7,0c-0.2,0-0.4-0.2-0.4-0.4
				C60.4,75.1,60.6,74.9,60.8,74.9z"/>
		</g>
		<g>
			<path class="st7" d="M60.8,74.9l6.7,0c0.2,0,0.4,0.2,0.4,0.4c0,0.2-0.2,0.4-0.4,0.4l-6.7,0c-0.2,0-0.4-0.2-0.4-0.4
				C60.4,75.1,60.6,74.9,60.8,74.9z"/>
		</g>
	</g>
	<g>
		<g>
			<path d="M60.8,74.9l6.7,0c0.2,0,0.4,0.2,0.4,0.4c0,0.2-0.2,0.4-0.4,0.4l-6.7,0c-0.2,0-0.4-0.2-0.4-0.4
				C60.4,75.1,60.6,74.9,60.8,74.9z"/>
		</g>
		<g>
			<path class="st7" d="M60.8,74.9l6.7,0c0.2,0,0.4,0.2,0.4,0.4c0,0.2-0.2,0.4-0.4,0.4l-6.7,0c-0.2,0-0.4-0.2-0.4-0.4
				C60.4,75.1,60.6,74.9,60.8,74.9z"/>
		</g>
	</g>
	<g>
		<g>
			<path d="M60.4,72l7.5,0c0.2,0,0.4,0.2,0.4,0.4c0,0.2-0.2,0.4-0.4,0.4l-7.6,0c-0.2,0-0.4-0.2-0.4-0.4C60,72.1,60.2,72,60.4,72z"/>
		</g>
		<g>
			<path class="st7" d="M60.4,72l7.5,0c0.2,0,0.4,0.2,0.4,0.4c0,0.2-0.2,0.4-0.4,0.4l-7.6,0c-0.2,0-0.4-0.2-0.4-0.4
				C60,72.1,60.2,72,60.4,72z"/>
		</g>
	</g>
	<g>
		<g>
			<path d="M60.4,72l7.5,0c0.2,0,0.4,0.2,0.4,0.4c0,0.2-0.2,0.4-0.4,0.4l-7.6,0c-0.2,0-0.4-0.2-0.4-0.4C60,72.1,60.2,72,60.4,72z"/>
		</g>
		<g>
			<path class="st7" d="M60.4,72l7.5,0c0.2,0,0.4,0.2,0.4,0.4c0,0.2-0.2,0.4-0.4,0.4l-7.6,0c-0.2,0-0.4-0.2-0.4-0.4
				C60,72.1,60.2,72,60.4,72z"/>
		</g>
	</g>
	<g>
		<g>
			<path d="M60.4,72l7.5,0c0.2,0,0.4,0.2,0.4,0.4c0,0.2-0.2,0.4-0.4,0.4l-7.6,0c-0.2,0-0.4-0.2-0.4-0.4C60,72.1,60.2,72,60.4,72z"/>
		</g>
		<g>
			<path class="st7" d="M60.4,72l7.5,0c0.2,0,0.4,0.2,0.4,0.4c0,0.2-0.2,0.4-0.4,0.4l-7.6,0c-0.2,0-0.4-0.2-0.4-0.4
				C60,72.1,60.2,72,60.4,72z"/>
		</g>
	</g>
</g>
<path class="st17" d="M72,86.1c0,1.6,0.6,2-8.3,2c-8.9,0-8.3-0.5-8.3-2c0-1.6,3.7-2.9,8.3-2.8C68.4,83.2,72,84.5,72,86.1z"/>
<path class="st10" d="M67.5,96.2c-1.1,0.3-2.4,0.5-3.7,0.5c-3.8,0-6.8-1.3-7-3L56,87.8c-0.1-2,0.9-3,3-3.6c1.3-0.4,2.9-0.5,4.8-0.5
	c3.5,0,6.2,0.7,7.2,1.9c0.4,0.5,0.6,1,0.5,1.5l-0.8,6.5C70.6,94.7,69.4,95.6,67.5,96.2L67.5,96.2z"/>
<linearGradient id="SVGID_00000087377534879102809020000013129423196065901966_" gradientUnits="userSpaceOnUse" x1="55.9813" y1="47.2664" x2="71.475" y2="47.2365" gradientTransform="matrix(1 0 0 -1 0 137.455)">
	<stop  offset="0" style="stop-color:#000000"/>
	<stop  offset="0.51" style="stop-color:#FFFFFF"/>
	<stop  offset="0.58" style="stop-color:#FBFBFB"/>
	<stop  offset="0.64" style="stop-color:#EFEFEF"/>
	<stop  offset="0.7" style="stop-color:#DCDCDC"/>
	<stop  offset="0.76" style="stop-color:#C1C1C1"/>
	<stop  offset="0.82" style="stop-color:#9F9F9F"/>
	<stop  offset="0.88" style="stop-color:#747474"/>
	<stop  offset="0.94" style="stop-color:#424242"/>
	<stop  offset="0.99" style="stop-color:#090909"/>
	<stop  offset="1" style="stop-color:#000000"/>
</linearGradient>
<path style="fill:url(#SVGID_00000087377534879102809020000013129423196065901966_);" d="M67.5,96.2c-1.1,0.3-2.4,0.5-3.7,0.5
	c-3.8,0-6.8-1.3-7-3L56,87.8c-0.1-2,0.9-3,3-3.6c1.3-0.4,2.9-0.5,4.8-0.5c3.5,0,6.2,0.7,7.2,1.9c0.4,0.5,0.6,1,0.5,1.5l-0.8,6.5
	C70.6,94.7,69.4,95.6,67.5,96.2L67.5,96.2z"/>
<path d="M59.1,84.4c1.3-0.4,2.9-0.5,4.7-0.5c4.4,0,7.8,1.2,7.5,3.2l0,0.7l0,0l-0.7,5.7l0,0c0,0,0,0,0,0c-0.1,1-1.4,1.9-3.2,2.4
	c-1.1,0.3-2.3,0.5-3.7,0.5c-3.6,0-6.6-1.3-6.8-2.9c0-0.1,0-0.1,0-0.2l-0.7-5.6l0-0.7C56.1,85.8,57.2,84.9,59.1,84.4 M59,84.1
	c-2.9,0.8-3.2,2.3-3.1,3.1l0,0.7l0.7,5.7c0,0,0,0.1,0,0.2c0.2,1.8,3.3,3.2,7.2,3.2c1.3,0,2.6-0.2,3.8-0.5c1.8-0.5,3.1-1.4,3.4-2.4
	l0,0l0.1-0.3l0.7-5.7l0-0.8c0.1-0.6-0.1-1.2-0.6-1.7c-1.1-1.2-3.8-2-7.4-2C61.9,83.5,60.3,83.7,59,84.1L59,84.1z"/>
<path class="st19" d="M67.4,96.1c-1.1,0.3-2.4,0.5-3.7,0.5c-3.7,0-6.7-1.3-6.9-3c0,0,0-0.1-0.2-1.1c-0.1-1.1,1-2.1,3.1-2.7
	c1.2-0.3,2.5-0.5,4-0.5c3,0,5.6,0.8,6.6,2c0.4,0.4,0.5,0.8,0.4,1.3l-0.2,1C70.5,94.7,69.4,95.6,67.4,96.1L67.4,96.1L67.4,96.1z"/>
<path d="M59.8,89.9c1.1-0.3,2.5-0.5,3.9-0.5c4,0,7.2,1.4,7,3.1c0,0.4-0.2,1-0.2,1s0,0,0,0c0,0,0,0.1,0,0.1c-0.1,1-1.4,1.9-3.2,2.4
	c-1.1,0.3-2.3,0.5-3.7,0.5c-3.6,0-6.6-1.3-6.8-2.9c0,0,0-0.1,0-0.1l0,0c0,0-0.1-0.6-0.2-1C56.7,91.4,57.9,90.4,59.8,89.9 M59.8,89.7
	c-2.2,0.6-3.4,1.7-3.2,2.8c0.1,0.4,0.2,1,0.2,1l0,0.1c0,0,0,0,0,0c0.2,1.7,3.2,3.1,7,3.1c1.3,0,2.6-0.2,3.7-0.5
	c2-0.5,3.2-1.5,3.3-2.5c0,0,0,0,0-0.1l0,0c0,0,0.1-0.7,0.2-1c0.1-0.5-0.1-1-0.5-1.4c-1-1.2-3.7-2-6.7-2C62.3,89.2,61,89.3,59.8,89.7
	L59.8,89.7z"/>
<path class="st20" d="M70.6,93.6c-0.2,1.6-3.3,2.8-6.8,2.8c-3.6,0-6.6-1.3-6.8-2.9c-0.2-1.7,2.8-3.2,6.8-3.2
	C67.7,90.4,70.8,91.9,70.6,93.6z"/>
<path class="st21" d="M70.6,93.6c-0.2,1.6-3.3,2.8-6.8,2.8c-3.6,0-6.6-1.3-6.8-2.9c-0.2-1.7,2.8-3.2,6.8-3.2
	C67.7,90.4,70.8,91.9,70.6,93.6L70.6,93.6z"/>
<path d="M68.4,94c-0.1,1-2.2,1.8-4.6,1.8c-2.4,0-4.5-0.8-4.6-1.8c-0.1-1.1,1.9-2.1,4.6-2.1C66.5,91.8,68.5,92.9,68.4,94L68.4,94z"/>
<path d="M67.2,96.5c-1.1,0.3-2.3,0.4-3.5,0.4c-1.9,0-3.7-0.4-5.1-1.1c-1.4-0.7-2.2-1.7-2.2-2.8c0-1.4,1.5-2.7,3.8-3.4
	c1.1-0.3,2.3-0.4,3.5-0.4c1.9,0,3.7,0.4,5.1,1.1C70.3,91,71,92,71,93.1C71,94.5,69.6,95.8,67.2,96.5z"/>
<radialGradient id="SVGID_00000020357755576258497090000010266916470883939212_" cx="-204.4678" cy="447.1606" r="1" gradientTransform="matrix(8.2302 4.454665e-02 4.479152e-02 -8.2754 1722.0336 3787.3628)" gradientUnits="userSpaceOnUse">
	<stop  offset="0" style="stop-color:#FFFFFF"/>
	<stop  offset="4.000000e-02" style="stop-color:#F5F5F5"/>
	<stop  offset="0.3" style="stop-color:#C4C4C4"/>
	<stop  offset="0.49" style="stop-color:#A5A5A5"/>
	<stop  offset="0.59" style="stop-color:#9A9A9A"/>
	<stop  offset="0.66" style="stop-color:#929292"/>
	<stop  offset="0.84" style="stop-color:#848484"/>
	<stop  offset="1" style="stop-color:#808080"/>
</radialGradient>
<path style="fill:url(#SVGID_00000020357755576258497090000010266916470883939212_);" d="M70.8,93.1c0,2-3.2,3.6-7,3.6
	c-3.9,0-7-1.6-7-3.6c0-2,3.2-3.6,7-3.6C67.6,89.5,70.8,91.1,70.8,93.1z"/>
<path d="M61.9,91.1c-0.8,0.1-1.5,0.3-2.1,0.5l0.4,0.7c0.5-0.2,1-0.3,1.6-0.4L61.9,91.1z"/>
<path d="M65.6,91.1l0,0.8c0.6,0.1,1.1,0.2,1.6,0.4l0.4-0.7C67.1,91.4,66.4,91.2,65.6,91.1z"/>
<path d="M64.9,91c-0.3,0-0.7-0.1-1.1-0.1c-0.4,0-0.8,0-1.1,0l0.1,0.8c0.3,0,0.7,0,1,0c0.3,0,0.7,0,1,0L64.9,91L64.9,91z"/>
<path d="M68,95c-0.3,0.6-2.2,1.1-4.2,1.1s-3.9-0.5-4.2-1.1c-0.4-0.8,1.5-1.5,4.2-1.4C66.5,93.5,68.4,94.3,68,95z"/>
<g class="st35">
	<path d="M63.8,95.7c2.3,0,4-0.4,4.2-1.1c0.3,1-1.6,1.6-4.3,1.6c-2.6,0-4.6-0.7-4.2-1.7C59.8,95.3,61.5,95.7,63.8,95.7z"/>
</g>
<radialGradient id="SVGID_00000052094169863136195120000009028029474069800607_" cx="-211.357" cy="516.9666" r="1" gradientTransform="matrix(0.1483 15.8473 8.6467 -8.089205e-02 -4373.6602 3489.4741)" gradientUnits="userSpaceOnUse">
	<stop  offset="0" style="stop-color:#FDFAF3"/>
	<stop  offset="8.000000e-02" style="stop-color:#F4E0AA"/>
	<stop  offset="0.14" style="stop-color:#ECCA6D"/>
	<stop  offset="0.2" style="stop-color:#E6B93E"/>
	<stop  offset="0.25" style="stop-color:#E2AD1C"/>
	<stop  offset="0.29" style="stop-color:#DFA507"/>
	<stop  offset="0.32" style="stop-color:#DFA300"/>
	<stop  offset="0.4" style="stop-color:#DF7400"/>
	<stop  offset="0.5" style="stop-color:#E03C00"/>
	<stop  offset="0.55" style="stop-color:#E12700"/>
	<stop  offset="0.65" style="stop-color:#A61C00"/>
	<stop  offset="0.82" style="stop-color:#4D0D00"/>
	<stop  offset="0.94" style="stop-color:#150300"/>
	<stop  offset="1" style="stop-color:#000000"/>
</radialGradient>
<path style="fill:url(#SVGID_00000052094169863136195120000009028029474069800607_);" d="M68,95c0,1.1-1.7,47.3-4.2,47.3
	c-2.5,0-4.4-46.2-4.4-47.3c0-1.1,1.8-1.5,4.3-1.5C66.2,93.5,68,93.9,68,95L68,95z"/>
<g>
	
		<linearGradient id="SVGID_00000014626140601472869240000014304632233174062773_" gradientUnits="userSpaceOnUse" x1="69.1404" y1="62.3867" x2="61.2819" y2="14.8876" gradientTransform="matrix(1 0 0 -1 0 137.455)">
		<stop  offset="0" style="stop-color:#FDFAF3"/>
		<stop  offset="8.000000e-02" style="stop-color:#F4E0AA"/>
		<stop  offset="0.14" style="stop-color:#ECCA6D"/>
		<stop  offset="0.2" style="stop-color:#E6B93E"/>
		<stop  offset="0.25" style="stop-color:#E2AD1C"/>
		<stop  offset="0.29" style="stop-color:#DFA507"/>
		<stop  offset="0.32" style="stop-color:#DFA300"/>
		<stop  offset="0.4" style="stop-color:#DF7400"/>
		<stop  offset="0.5" style="stop-color:#E03C00"/>
		<stop  offset="0.55" style="stop-color:#E12700"/>
		<stop  offset="0.65" style="stop-color:#A61C00"/>
		<stop  offset="0.82" style="stop-color:#4D0D00"/>
		<stop  offset="0.94" style="stop-color:#150300"/>
		<stop  offset="1" style="stop-color:#000000"/>
	</linearGradient>
	<path style="fill:url(#SVGID_00000014626140601472869240000014304632233174062773_);" d="M68,95c0,1.1-1.7,47.3-4.2,47.3
		c-2.5,0-4.4-46.2-4.4-47.3c0-1.1,1.8-1.5,4.3-1.5C66.2,93.5,68,93.9,68,95L68,95z"/>
</g>
<radialGradient id="SVGID_00000163751691781096611050000014512227165440997253_" cx="-194.6178" cy="514.4464" r="1" gradientTransform="matrix(0.1758 9.1312 9.3826 -0.1806 -4685.0732 1847.9241)" gradientUnits="userSpaceOnUse">
	<stop  offset="0" style="stop-color:#FDFAF3"/>
	<stop  offset="8.000000e-02" style="stop-color:#F4E0AA"/>
	<stop  offset="0.14" style="stop-color:#ECCA6D"/>
	<stop  offset="0.2" style="stop-color:#E6B93E"/>
	<stop  offset="0.25" style="stop-color:#E2AD1C"/>
	<stop  offset="0.29" style="stop-color:#DFA507"/>
	<stop  offset="0.32" style="stop-color:#DFA300"/>
	<stop  offset="0.4" style="stop-color:#DF7400"/>
	<stop  offset="0.5" style="stop-color:#E03C00"/>
	<stop  offset="0.55" style="stop-color:#E12700"/>
	<stop  offset="0.65" style="stop-color:#A61C00"/>
	<stop  offset="0.82" style="stop-color:#4D0D00"/>
	<stop  offset="0.94" style="stop-color:#150300"/>
	<stop  offset="1" style="stop-color:#000000"/>
</radialGradient>
<path style="fill:url(#SVGID_00000163751691781096611050000014512227165440997253_);" d="M110.7,74c0,0.6-1.8,26.1-4.4,26.1
	c-2.6,0-4.7-25.5-4.7-26.1c0-0.6,1-2,4.5-2C109.7,72,110.7,73.4,110.7,74L110.7,74z"/>
<linearGradient id="SVGID_00000157997631249079925440000014488991038716982407_" gradientUnits="userSpaceOnUse" x1="104.429" y1="173.4998" x2="104.8769" y2="145.5057" gradientTransform="matrix(1 0 0 -1 0 137.455)">
	<stop  offset="0" style="stop-color:#FDFAF3"/>
	<stop  offset="8.000000e-02" style="stop-color:#F4E0AA"/>
	<stop  offset="0.14" style="stop-color:#ECCA6D"/>
	<stop  offset="0.2" style="stop-color:#E6B93E"/>
	<stop  offset="0.25" style="stop-color:#E2AD1C"/>
	<stop  offset="0.29" style="stop-color:#DFA507"/>
	<stop  offset="0.32" style="stop-color:#DFA300"/>
	<stop  offset="0.4" style="stop-color:#DF7400"/>
	<stop  offset="0.5" style="stop-color:#E03C00"/>
	<stop  offset="0.55" style="stop-color:#E12700"/>
	<stop  offset="0.65" style="stop-color:#A61C00"/>
	<stop  offset="0.82" style="stop-color:#4D0D00"/>
	<stop  offset="0.94" style="stop-color:#150300"/>
	<stop  offset="1" style="stop-color:#000000"/>
</linearGradient>
<path style="fill:url(#SVGID_00000157997631249079925440000014488991038716982407_);" d="M110.7,74c0,0.6-1.8,26.1-4.4,26.1
	c-2.6,0-4.7-25.5-4.7-26.1c0-0.6,1-2,4.5-2C109.7,72,110.7,73.4,110.7,74L110.7,74z"/>
<radialGradient id="SVGID_00000132777221933928640610000002850973499653298329_" cx="-194.6178" cy="514.4465" r="1" gradientTransform="matrix(0.1758 9.1312 9.3826 -0.1806 -4770.5508 1849.017)" gradientUnits="userSpaceOnUse">
	<stop  offset="0" style="stop-color:#FDFAF3"/>
	<stop  offset="8.000000e-02" style="stop-color:#F4E0AA"/>
	<stop  offset="0.14" style="stop-color:#ECCA6D"/>
	<stop  offset="0.2" style="stop-color:#E6B93E"/>
	<stop  offset="0.25" style="stop-color:#E2AD1C"/>
	<stop  offset="0.29" style="stop-color:#DFA507"/>
	<stop  offset="0.32" style="stop-color:#DFA300"/>
	<stop  offset="0.4" style="stop-color:#DF7400"/>
	<stop  offset="0.5" style="stop-color:#E03C00"/>
	<stop  offset="0.55" style="stop-color:#E12700"/>
	<stop  offset="0.65" style="stop-color:#A61C00"/>
	<stop  offset="0.82" style="stop-color:#4D0D00"/>
	<stop  offset="0.94" style="stop-color:#150300"/>
	<stop  offset="1" style="stop-color:#000000"/>
</radialGradient>
<path style="fill:url(#SVGID_00000132777221933928640610000002850973499653298329_);" d="M25.2,73.6c0,0.6-1.8,26.1-4.4,26.1
	c-2.6,0-4.7-25.5-4.7-26.1c0-0.6,1-2,4.5-2S25.2,73,25.2,73.6L25.2,73.6z"/>
<linearGradient id="SVGID_00000085932948757622580020000015881814140324968126_" gradientUnits="userSpaceOnUse" x1="18.9315" y1="172.4048" x2="19.3793" y2="144.4125" gradientTransform="matrix(1 0 0 -1 0 137.455)">
	<stop  offset="0" style="stop-color:#FDFAF3"/>
	<stop  offset="8.000000e-02" style="stop-color:#F4E0AA"/>
	<stop  offset="0.14" style="stop-color:#ECCA6D"/>
	<stop  offset="0.2" style="stop-color:#E6B93E"/>
	<stop  offset="0.25" style="stop-color:#E2AD1C"/>
	<stop  offset="0.29" style="stop-color:#DFA507"/>
	<stop  offset="0.32" style="stop-color:#DFA300"/>
	<stop  offset="0.4" style="stop-color:#DF7400"/>
	<stop  offset="0.5" style="stop-color:#E03C00"/>
	<stop  offset="0.55" style="stop-color:#E12700"/>
	<stop  offset="0.65" style="stop-color:#A61C00"/>
	<stop  offset="0.82" style="stop-color:#4D0D00"/>
	<stop  offset="0.94" style="stop-color:#150300"/>
	<stop  offset="1" style="stop-color:#000000"/>
</linearGradient>
<path style="fill:url(#SVGID_00000085932948757622580020000015881814140324968126_);" d="M25.2,73.6c0,0.6-1.8,26.1-4.4,26.1
	c-2.6,0-4.7-25.5-4.7-26.1c0-0.6,1-2,4.5-2S25.2,73,25.2,73.6L25.2,73.6z"/>
</svg>
