<svg width="78" height="75" viewBox="0 0 78 75" fill="none" xmlns="http://www.w3.org/2000/svg">
<g id="Star 1">
<g filter="url(#filter0_i_8_22021)">
<path d="M36.3279 2.23608C37.4413 0.0543306 40.5587 0.0543268 41.6721 2.23608L51.4962 21.4863C51.9321 22.3404 52.7501 22.9347 53.6971 23.0854L75.0409 26.4799C77.46 26.8647 78.4233 29.8295 76.6924 31.5627L61.4202 46.8545C60.7425 47.533 60.4301 48.4946 60.5795 49.4419L63.9467 70.79C64.3283 73.2095 61.8062 75.0419 59.623 73.9313L40.3603 64.132C39.5055 63.6972 38.4945 63.6972 37.6397 64.132L18.377 73.9313C16.1938 75.0419 13.6717 73.2095 14.0533 70.79L17.4205 49.4419C17.5699 48.4946 17.2575 47.533 16.5798 46.8545L1.30759 31.5627C-0.423317 29.8295 0.540024 26.8647 2.95906 26.4799L24.3029 23.0854C25.2499 22.9347 26.0679 22.3405 26.5038 21.4863L36.3279 2.23608Z" fill="url(#paint0_radial_8_22021)"/>
</g>
<path d="M36.7732 2.46337C37.7011 0.645236 40.2989 0.645234 41.2268 2.46336L51.0508 21.7136C51.5594 22.7101 52.5137 23.4034 53.6186 23.5792L74.9624 26.9737C76.9783 27.2943 77.7811 29.7651 76.3386 31.2093L61.0664 46.5012C60.2758 47.2928 59.9113 48.4146 60.0856 49.5198L63.4528 70.8679C63.7708 72.8842 61.6691 74.4112 59.8498 73.4857L40.587 63.6863C39.5898 63.1791 38.4102 63.1791 37.413 63.6863L18.1502 73.4857C16.3309 74.4112 14.2292 72.8842 14.5472 70.8679L17.9144 49.5198C18.0887 48.4146 17.7242 47.2928 16.9336 46.5012L1.66137 31.2093C0.218946 29.7651 1.02173 27.2943 3.03759 26.9737L24.3814 23.5792C25.4863 23.4034 26.4406 22.7101 26.9492 21.7136L36.7732 2.46337Z" stroke="white"/>
</g>
<defs>
<filter id="filter0_i_8_22021" x="0.427124" y="0.599762" width="77.1458" height="78.6638" filterUnits="userSpaceOnUse" color-interpolation-filters="sRGB">
<feFlood flood-opacity="0" result="BackgroundImageFix"/>
<feBlend mode="normal" in="SourceGraphic" in2="BackgroundImageFix" result="shape"/>
<feColorMatrix in="SourceAlpha" type="matrix" values="0 0 0 0 0 0 0 0 0 0 0 0 0 0 0 0 0 0 127 0" result="hardAlpha"/>
<feOffset dy="5"/>
<feGaussianBlur stdDeviation="5.5"/>
<feComposite in2="hardAlpha" operator="arithmetic" k2="-1" k3="1"/>
<feColorMatrix type="matrix" values="0 0 0 0 0.9475 0 0 0 0 0.9811 0 0 0 0 1 0 0 0 0.89 0"/>
<feBlend mode="normal" in2="shape" result="effect1_innerShadow_8_22021"/>
</filter>
<radialGradient id="paint0_radial_8_22021" cx="0" cy="0" r="1" gradientUnits="userSpaceOnUse" gradientTransform="translate(39 10.1064) rotate(90) scale(74.8936 61.3134)">
<stop stop-color="#FFD600"/>
<stop offset="1" stop-color="#EC4700"/>
</radialGradient>
</defs>
</svg>
